<?xml version="1.0" encoding="UTF-8"?>
<svg version="1.1" xmlns="http://www.w3.org/2000/svg" width="1085" height="230">
<path d="M0 0 C0.73708191 -0.0033284 1.47416382 -0.0066568 2.23358154 -0.01008606 C3.78315616 -0.01511316 5.33274145 -0.0174957 6.88232422 -0.01733398 C9.21470611 -0.01951288 11.54660815 -0.03769286 13.87890625 -0.05664062 C29.63249454 -0.11818258 43.90644165 1.10161465 55.921875 12.48046875 C65.05782954 22.34465155 67.75437051 32.85427455 67.36328125 46.0546875 C66.73704315 55.66822799 62.25678331 64.03337373 55.984375 71.16796875 C56.38269531 71.77382812 56.78101563 72.3796875 57.19140625 73.00390625 C57.72121094 73.84179688 58.25101563 74.6796875 58.796875 75.54296875 C59.31894531 76.35507813 59.84101562 77.1671875 60.37890625 78.00390625 C64.58672632 86.29669033 65.41121206 94.10222169 65.27734375 103.30078125 C65.27309891 104.41863007 65.26885406 105.53647888 65.26448059 106.6882019 C65.24782259 110.22337969 65.21019416 113.75796618 65.171875 117.29296875 C65.15681154 119.70441879 65.14312606 122.11587786 65.13085938 124.52734375 C65.09796138 130.40775041 65.04789204 136.28781731 64.984375 142.16796875 C60.83855613 142.19683626 56.69276284 142.21472202 52.546875 142.23046875 C51.36287109 142.23884766 50.17886719 142.24722656 48.95898438 142.25585938 C47.83427734 142.25908203 46.70957031 142.26230469 45.55078125 142.265625 C43.98759155 142.27348022 43.98759155 142.27348022 42.39282227 142.28149414 C39.984375 142.16796875 39.984375 142.16796875 38.984375 141.16796875 C38.86085691 138.0995194 38.79814378 135.05018158 38.7734375 131.98046875 C38.74534211 130.06509601 38.71667751 128.14973156 38.6875 126.234375 C38.64642253 123.21077949 38.60954495 120.18733413 38.58300781 117.16357422 C38.55519062 114.24804423 38.50928958 111.33322128 38.4609375 108.41796875 C38.45768463 107.52698486 38.45443176 106.63600098 38.45108032 105.71801758 C38.31877225 98.87370911 37.34036925 92.33637481 33.171875 86.73046875 C28.30890652 83.25691983 22.92564544 82.81349296 17.109375 82.54296875 C16.42101562 82.50429687 15.73265625 82.465625 15.0234375 82.42578125 C13.34414254 82.33248709 11.66429733 82.24918637 9.984375 82.16796875 C9.98659561 82.90490463 9.98881622 83.64184052 9.99110413 84.40110779 C10.01110703 91.33209644 10.02634913 98.26308079 10.03618717 105.19409084 C10.04141495 108.75774297 10.04851069 112.32137132 10.05981445 115.88500977 C10.07271676 119.97802972 10.07760406 124.07102455 10.08203125 128.1640625 C10.08719254 129.44945419 10.09235382 130.73484589 10.09767151 132.05918884 C10.09778481 133.83091209 10.09778481 133.83091209 10.09790039 135.63842773 C10.100121 136.68433578 10.10234161 137.73024384 10.10462952 138.80784607 C9.984375 141.16796875 9.984375 141.16796875 8.984375 142.16796875 C5.01161685 142.42053752 1.02671325 142.35319326 -2.953125 142.35546875 C-4.07654297 142.36771484 -5.19996094 142.37996094 -6.35742188 142.39257812 C-7.42927734 142.39451172 -8.50113281 142.39644531 -9.60546875 142.3984375 C-10.59409912 142.40254639 -11.58272949 142.40665527 -12.60131836 142.41088867 C-15.015625 142.16796875 -15.015625 142.16796875 -17.015625 140.16796875 C-17.20959259 137.13663708 -17.27772353 134.19697394 -17.25854492 131.16479492 C-17.26044327 130.2290715 -17.26234161 129.29334808 -17.26429749 128.32926941 C-17.26802625 125.20640899 -17.25724452 122.08377769 -17.24609375 118.9609375 C-17.24489959 116.76556933 -17.24444929 114.57020064 -17.2447052 112.37483215 C-17.24313509 107.74000911 -17.23482577 103.10526269 -17.22143555 98.47045898 C-17.2047892 92.64593298 -17.20069496 86.82149318 -17.20126152 80.99694633 C-17.20056299 54.37227402 -16.94159813 27.77748717 -16.015625 1.16796875 C-10.65372478 0.41785642 -5.41820496 0.00878108 0 0 Z M9.984375 27.16796875 C9.984375 36.73796875 9.984375 46.30796875 9.984375 56.16796875 C12.995625 56.22984375 16.006875 56.29171875 19.109375 56.35546875 C20.04668457 56.38278076 20.98399414 56.41009277 21.94970703 56.43823242 C28.68620888 56.50495177 32.80690398 55.24866328 37.796875 50.48046875 C40.36970496 46.58446909 41.2896823 43.81043565 40.984375 39.16796875 C39.42145376 33.9582313 37.54715303 31.13377447 32.984375 28.16796875 C30.10172351 27.20708492 28.30775229 27.05125934 25.31640625 27.0703125 C24.1094812 27.07405884 24.1094812 27.07405884 22.87817383 27.07788086 C21.86134521 27.08698486 20.8445166 27.09608887 19.796875 27.10546875 C16.55875 27.12609375 13.320625 27.14671875 9.984375 27.16796875 Z " fill="#000001" transform="translate(590.015625,43.83203125)"/>
<path d="M0 0 C1.26372044 2.52744088 1.12022795 4.26380308 1.11352539 7.09228516 C1.11344986 8.15323395 1.11337433 9.21418274 1.11329651 10.30728149 C1.10813522 11.45626923 1.10297394 12.60525696 1.09765625 13.7890625 C1.0962413 14.96262299 1.09482635 16.13618347 1.09336853 17.3453064 C1.08775689 21.10522985 1.07520238 24.86509445 1.0625 28.625 C1.0574865 31.16926998 1.05292333 33.71354088 1.04882812 36.2578125 C1.03778368 42.50522853 1.02103418 48.75261006 1 55 C1.76570313 54.82597656 2.53140625 54.65195313 3.3203125 54.47265625 C8.22891303 53.84214599 12.94622699 54.14698289 17.875 54.4375 C18.84953125 54.48970703 19.8240625 54.54191406 20.828125 54.59570312 C23.21913402 54.72463008 25.60964426 54.85955944 28 55 C27.99777939 54.3257045 27.99555878 53.651409 27.99327087 52.9566803 C27.97122071 45.96567309 27.95609453 38.97467569 27.94506836 31.98364258 C27.94002623 29.37133381 27.93319275 26.75902789 27.92456055 24.14672852 C27.91248964 20.40119732 27.90677065 16.65570328 27.90234375 12.91015625 C27.89718246 11.73413345 27.89202118 10.55811066 27.88670349 9.34645081 C27.88662796 8.26540573 27.88655243 7.18436066 27.88647461 6.07055664 C27.884254 5.11347305 27.88203339 4.15638947 27.87974548 3.17030334 C28 1 28 1 29 0 C37.36222495 -1.60127712 45.61376706 -1.24240488 54 0 C55.04050134 3.12150403 55.1257568 5.28083879 55.12698364 8.55508423 C55.13121338 10.28821114 55.13121338 10.28821114 55.13552856 12.05635071 C55.13249222 13.95939217 55.13249222 13.95939217 55.12939453 15.90087891 C55.13074942 17.24943591 55.13252985 18.59799254 55.13470459 19.94654846 C55.13926757 23.60955349 55.13749424 27.27253038 55.1343255 30.93553591 C55.1317971 34.76410276 55.13414069 38.59266718 55.13571167 42.42123413 C55.13753151 48.84886102 55.13513143 55.27647642 55.13037109 61.70410156 C55.1249242 69.14487331 55.12669497 76.58561768 55.1321975 84.02638876 C55.13672837 90.40773079 55.13737944 96.78906454 55.13475883 103.17040765 C55.13319651 106.98498444 55.13300116 110.79954833 55.13629532 114.6141243 C55.13917382 118.19768755 55.13719875 121.78121531 55.13140106 125.3647747 C55.12943798 127.31475144 55.13242723 129.26473116 55.13552856 131.21470642 C55.13270874 132.36448471 55.12988892 133.514263 55.12698364 134.69888306 C55.1264181 136.20708335 55.1264181 136.20708335 55.12584114 137.74575233 C55 140 55 140 54 141 C50.02724185 141.25256877 46.04233825 141.18522451 42.0625 141.1875 C40.93908203 141.19974609 39.81566406 141.21199219 38.65820312 141.22460938 C37.58634766 141.22654297 36.51449219 141.22847656 35.41015625 141.23046875 C34.42152588 141.23457764 33.43289551 141.23868652 32.41430664 141.24291992 C30 141 30 141 28 139 C27.75949097 136.55758667 27.75949097 136.55758667 27.77294922 133.44873047 C27.77310028 132.28767792 27.77325134 131.12662537 27.77340698 129.9303894 C27.78372955 128.67203278 27.79405212 127.41367615 27.8046875 126.1171875 C27.8075174 124.83264679 27.81034729 123.54810608 27.81326294 122.22463989 C27.82090191 118.80837233 27.84055248 115.39227463 27.8626709 111.97607422 C27.88312375 108.4905837 27.89237296 105.00506493 27.90234375 101.51953125 C27.92273729 94.67953744 27.9618823 87.84001019 28 81 C19.09 81 10.18 81 1 81 C1.01160156 85.16367188 1.02320313 89.32734375 1.03515625 93.6171875 C1.04158495 96.93228627 1.04700856 100.24738329 1.05175018 103.56248474 C1.0570359 107.06461839 1.0641021 110.56672793 1.07543945 114.06884766 C1.08835974 118.08496334 1.0932324 122.1010534 1.09765625 126.1171875 C1.10281754 127.37554413 1.10797882 128.63390076 1.11329651 129.9303894 C1.11340981 131.67196823 1.11340981 131.67196823 1.11352539 133.44873047 C1.115746 134.47465302 1.11796661 135.50057556 1.12025452 136.55758667 C1 139 1 139 0 141 C-4.14581887 141.02886751 -8.29161216 141.04675327 -12.4375 141.0625 C-13.62150391 141.07087891 -14.80550781 141.07925781 -16.02539062 141.08789062 C-17.15009766 141.09111328 -18.27480469 141.09433594 -19.43359375 141.09765625 C-20.99678345 141.10551147 -20.99678345 141.10551147 -22.59155273 141.11352539 C-25 141 -25 141 -26 140 C-26.09639184 138.20305962 -26.12187425 136.40229107 -26.12025452 134.60276794 C-26.12162918 133.43182587 -26.12300385 132.26088379 -26.12442017 131.05445862 C-26.12082489 129.75830124 -26.11722961 128.46214386 -26.11352539 127.12670898 C-26.11324352 125.75712079 -26.11340125 124.38753244 -26.1139679 123.01794434 C-26.11425588 119.28877052 -26.10835909 115.55962859 -26.10139394 111.83046222 C-26.09516047 107.93735587 -26.09455661 104.04424887 -26.09336853 100.15113831 C-26.09025519 92.77401854 -26.08204178 85.39691351 -26.07201904 78.01980025 C-26.06085797 69.62332457 -26.05534747 61.22684821 -26.05032361 52.83036697 C-26.03985916 35.55356944 -26.02225968 18.27678628 -26 1 C-17.72448993 -1.91190047 -8.58144087 -1.95032747 0 0 Z " fill="#010001" transform="translate(319,45)"/>
<path d="M0 0 C2 2 2 2 2.24050903 4.29055786 C2.2338472 5.72285233 2.2338472 5.72285233 2.22705078 7.18408203 C2.22689972 8.26505157 2.22674866 9.34602112 2.22659302 10.45974731 C2.21627045 11.63060883 2.20594788 12.80147034 2.1953125 14.0078125 C2.1924826 15.20356903 2.18965271 16.39932556 2.18673706 17.63131714 C2.17551305 21.46264519 2.15040431 25.29374222 2.125 29.125 C2.11497308 31.71744455 2.10584673 34.30989275 2.09765625 36.90234375 C2.07726533 43.26839048 2.03812015 49.63393566 2 56 C10.91 55.67 19.82 55.34 29 55 C28.9896875 52.59847656 28.979375 50.19695312 28.96875 47.72265625 C28.95345509 37.95506156 29.21266691 28.20007554 29.5 18.4375 C29.54839617 16.73242808 29.59657422 15.02734995 29.64453125 13.32226562 C29.76052036 9.21476825 29.8794121 5.10736482 30 1 C34.14581887 0.97113249 38.29161216 0.95324673 42.4375 0.9375 C43.62150391 0.92912109 44.80550781 0.92074219 46.02539062 0.91210938 C47.15009766 0.90888672 48.27480469 0.90566406 49.43359375 0.90234375 C50.47572021 0.89710693 51.51784668 0.89187012 52.59155273 0.88647461 C55 1 55 1 56 2 C56.0985732 3.79462768 56.12632112 5.59317025 56.12698364 7.39050293 C56.13121338 9.14474831 56.13121338 9.14474831 56.13552856 10.93443298 C56.13249222 12.87631248 56.13249222 12.87631248 56.12939453 14.85742188 C56.13074855 16.22538805 56.13252849 17.59335386 56.13470459 18.96131897 C56.13927881 22.68642374 56.13748941 26.41150094 56.1343255 30.13660622 C56.13180184 34.02657778 56.13413946 37.91654691 56.13571167 41.80651855 C56.13753335 48.34025498 56.1351271 54.87398013 56.13037109 61.40771484 C56.12492848 68.97227683 56.12669113 76.53681186 56.1321975 84.1013732 C56.13672868 90.58458484 56.13737915 97.06778835 56.13475883 103.55100107 C56.13319608 107.42820585 56.13300222 111.30539795 56.13629532 115.18260193 C56.13917411 118.82687587 56.1371982 122.47111491 56.13140106 126.11538506 C56.12943788 128.09877855 56.13242731 130.08217498 56.13552856 132.06556702 C56.13270874 133.23506393 56.12988892 134.40456085 56.12698364 135.60949707 C56.1264181 137.14371685 56.1264181 137.14371685 56.12584114 138.70893097 C56 141 56 141 55 142 C53.23140807 142.09946453 51.45888549 142.13080217 49.6875 142.1328125 C48.61242187 142.13410156 47.53734375 142.13539063 46.4296875 142.13671875 C45.29789063 142.13285156 44.16609375 142.12898437 43 142.125 C41.30230469 142.13080078 41.30230469 142.13080078 39.5703125 142.13671875 C38.49523437 142.13542969 37.42015625 142.13414062 36.3125 142.1328125 C35.31863281 142.13168457 34.32476563 142.13055664 33.30078125 142.12939453 C31 142 31 142 30 141 C29.90618698 139.15881971 29.88256046 137.31402359 29.88647461 135.47045898 C29.88655014 134.28931015 29.88662567 133.10816132 29.88670349 131.89122009 C29.89186478 130.6058284 29.89702606 129.32043671 29.90234375 127.99609375 C29.9037587 126.68794205 29.90517365 125.37979034 29.90663147 124.03199768 C29.9104559 120.54837141 29.92028554 117.06478661 29.93133545 113.58117676 C29.94155118 110.02873302 29.94618414 106.47628241 29.95117188 102.92382812 C29.96137768 95.94918209 29.98094936 88.97465003 30 82 C20.76 82 11.52 82 2 82 C2.01160156 86.24746094 2.02320313 90.49492187 2.03515625 94.87109375 C2.04158318 98.24907146 2.04700741 101.62704744 2.05175018 105.00502777 C2.0570399 108.57571125 2.06411339 112.14637115 2.07543945 115.71704102 C2.08834176 119.81006097 2.09322906 123.9030558 2.09765625 127.99609375 C2.10281754 129.28148544 2.10797882 130.56687714 2.11329651 131.89122009 C2.11340981 133.66294334 2.11340981 133.66294334 2.11352539 135.47045898 C2.115746 136.51636703 2.11796661 137.56227509 2.12025452 138.63987732 C2 141 2 141 1 142 C-2.97275815 142.25256877 -6.95766175 142.18522451 -10.9375 142.1875 C-12.06091797 142.19974609 -13.18433594 142.21199219 -14.34179688 142.22460938 C-15.41365234 142.22654297 -16.48550781 142.22847656 -17.58984375 142.23046875 C-18.57847412 142.23457764 -19.56710449 142.23868652 -20.58569336 142.24291992 C-23 142 -23 142 -25 140 C-25.24888897 137.67514324 -25.24888897 137.67514324 -25.24723816 134.70597839 C-25.25143265 133.58295822 -25.25562714 132.45993805 -25.25994873 131.30288696 C-25.25151947 129.44595718 -25.25151947 129.44595718 -25.24291992 127.55151367 C-25.24481827 126.25227463 -25.24671661 124.95303558 -25.24867249 123.61442566 C-25.25352965 120.04402776 -25.2458532 116.47375441 -25.23571944 112.90337157 C-25.22694729 109.16876218 -25.22869626 105.43415678 -25.2290802 101.69953918 C-25.2281428 95.42393914 -25.21945074 89.14838735 -25.20581055 82.87280273 C-25.19010475 75.62014872 -25.18481171 68.36754767 -25.1855461 61.11487788 C-25.18622222 53.39497083 -25.17927467 45.67508416 -25.1700995 37.95518327 C-25.16796962 35.7313792 -25.1672585 33.50757842 -25.16686058 31.28377342 C-25.16566729 27.13471361 -25.15594599 22.98571614 -25.14526367 18.83666992 C-25.14571686 17.60478943 -25.14617004 16.37290894 -25.14663696 15.10369873 C-25.14237198 13.97221909 -25.13810699 12.84073944 -25.13371277 11.67497253 C-25.13203692 10.69401706 -25.13036108 9.71306158 -25.12863445 8.70238018 C-25.00185487 6.03896754 -24.59481876 3.59552819 -24 1 C-16.07457065 -0.02263604 -7.97870106 -0.63271957 0 0 Z " fill="#010001" transform="translate(501,44)"/>
<path d="M0 0 C11.41486465 11.02947533 13.29994496 23.13185311 13.72543335 38.42150879 C13.7722513 42.27594239 13.79086941 46.12972147 13.79296875 49.984375 C13.79619378 51.40155061 13.79955871 52.81872591 13.80305481 54.23590088 C13.80898615 57.18054985 13.81090061 60.12516971 13.81030273 63.06982422 C13.81020064 66.8206377 13.82392885 70.57126394 13.84107494 74.32203293 C13.85224482 77.23902224 13.85422053 80.15596666 13.85369301 83.07297516 C13.85486268 84.45550439 13.85922659 85.83803518 13.86702538 87.22054291 C13.94028554 101.52789697 12.00824288 113.46480911 1.75 124.1875 C-7.10894718 132.43781722 -16.84613212 136.2794499 -29.0859375 136.01953125 C-41.09538222 134.9333528 -51.01390312 130.20644232 -58.8125 120.9375 C-64.85116378 112.81995197 -67.51420563 105.25295493 -67.55200195 95.20507812 C-67.55857315 94.44348389 -67.56514435 93.68188965 -67.57191467 92.8972168 C-67.59160396 90.3793934 -67.60330437 87.86162973 -67.61328125 85.34375 C-67.61735678 84.47979111 -67.6214323 83.61583221 -67.62563133 82.72569275 C-67.6464797 78.14720908 -67.66078324 73.56875521 -67.67016602 68.99023438 C-67.68119037 64.28758811 -67.71554748 59.58542023 -67.75533772 54.8829422 C-67.78163839 51.24523105 -67.78987001 47.60763121 -67.79344749 43.96983337 C-67.79828369 42.23808077 -67.80981174 40.50633213 -67.82848549 38.77467346 C-67.96546392 25.2233008 -66.88914565 13.75380779 -57.6484375 3.0703125 C-41.60711471 -12.86076065 -17.65591493 -14.93352086 0 0 Z M-38.99682617 22.93115234 C-40.78889912 26.67783878 -40.93686605 30.14952228 -41.05078125 34.2265625 C-41.08359695 35.05443268 -41.11641266 35.88230286 -41.15022278 36.73526001 C-41.48138383 45.92994358 -41.56109297 55.13063725 -41.56030273 64.33056641 C-41.56251438 67.20620003 -41.5808419 70.0814636 -41.59960938 72.95703125 C-42.52310678 91.11375755 -42.52310678 91.11375755 -35.375 106.8125 C-31.11075038 109.65533308 -27.3777492 109.68419115 -22.375 108.8125 C-17.56103956 106.1859048 -15.08253899 102.98077893 -13.375 97.8125 C-13.06682796 94.52097292 -13.06682796 94.52097292 -13.1003418 90.91430664 C-13.09523087 90.24046432 -13.09011993 89.56662201 -13.08485413 88.87236023 C-13.07100966 86.65570066 -13.07191091 84.43935379 -13.07421875 82.22265625 C-13.07032907 80.67475775 -13.06599383 79.1268603 -13.06123352 77.57896423 C-13.05378245 74.33849626 -13.05405454 71.09813726 -13.05932617 67.85766602 C-13.06512026 63.71387951 -13.0481862 59.57054005 -13.0249815 55.42682743 C-13.01021943 52.23112906 -13.00937579 49.03553776 -13.01249123 45.83981133 C-13.01197929 44.31245475 -13.00676547 42.78509199 -12.99667931 41.25776863 C-12.98428328 39.1182497 -12.99112444 36.97959395 -13.00268555 34.84008789 C-13.00205612 33.6249501 -13.0014267 32.40981232 -13.0007782 31.15785217 C-13.58174349 25.96431854 -15.51302327 22.75656975 -19 18.9375 C-26.30849682 14.33585385 -33.69958145 16.01116293 -38.99682617 22.93115234 Z " fill="#010001" transform="translate(736.375,52.1875)"/>
<path d="M0 0 C0.84949219 0.48597656 1.69898438 0.97195312 2.57421875 1.47265625 C12.48626471 7.73991401 18.12041611 16.72647309 21 28 C21.43803412 32.58152737 21.38420905 37.09083995 21.25 41.6875 C21.23195313 42.87794922 21.21390625 44.06839844 21.1953125 45.29492188 C21.14868489 48.19749031 21.08326281 51.09829111 21 54 C15.2373997 55.05556451 9.8940924 54.94831638 4.0625 54.5625 C3.18787109 54.51029297 2.31324219 54.45808594 1.41210938 54.40429688 C-0.72564632 54.2757979 -2.86288669 54.13877359 -5 54 C-5.04898438 52.87722656 -5.09796875 51.75445312 -5.1484375 50.59765625 C-5.16809739 36.92992277 -5.16809739 36.92992277 -10.5 24.9375 C-13.98234285 22.48791079 -17.42336989 22.28952005 -21.59375 22.515625 C-25.67748899 23.33767636 -27.26092243 24.85006079 -30 28 C-32.59110246 32.95689166 -32.28261994 37.68765624 -31 43 C-26.26875246 53.05390102 -12.84744619 57.97190139 -3.52734375 62.96875 C6.94179988 68.74002226 15.44920066 75.43040301 20.10546875 86.66796875 C22.93820922 97.21961775 22.28036361 110.39335718 17 120 C11.19952325 129.73210689 2.86682088 136.76426848 -8 140 C-18.77257599 142.693144 -29.40332357 141.17308873 -39.0625 135.9375 C-49.03770996 129.78231319 -55.34483671 121.45374984 -58.53051758 110.11108398 C-59.35447749 106.40604949 -59.50515857 102.65511274 -59.75 98.875 C-59.81832031 98.05128906 -59.88664063 97.22757812 -59.95703125 96.37890625 C-60.109375 93.9921875 -60.109375 93.9921875 -60 90 C-56.32196296 87.54797531 -53.55895848 87.73841119 -49.3125 87.8125 C-48.28866211 87.8134668 -48.28866211 87.8134668 -47.24414062 87.81445312 C-42.4269648 87.8553923 -37.76978398 88.33083839 -33 89 C-32.85304687 90.62808594 -32.85304687 90.62808594 -32.703125 92.2890625 C-32.55295324 93.73446565 -32.40186268 95.17977353 -32.25 96.625 C-32.1571875 97.69427734 -32.1571875 97.69427734 -32.0625 98.78515625 C-31.51084438 103.79602815 -30.25442567 106.98620834 -27 111 C-22.74696324 113.83535784 -18.99241992 113.76089759 -14 113 C-10.59783738 111.32317036 -8.56392329 108.90718095 -6.5625 105.6875 C-5.79017691 101.99751189 -5.65781826 98.56116562 -7 95 C-10.69262354 90.61631836 -14.95741895 88.02011458 -19.875 85.25 C-21.39079167 84.37398625 -22.90641322 83.49767807 -24.421875 82.62109375 C-26.66069487 81.33751 -28.900948 80.05650118 -31.14257812 78.77783203 C-44.05663408 71.38132178 -54.22897733 63.97592557 -58.375 48.8125 C-60.06244512 39.15753049 -60.41776712 27.91952221 -56 19 C-55.60941406 18.18144531 -55.21882812 17.36289063 -54.81640625 16.51953125 C-49.75934696 7.05008028 -41.72579015 1.19215093 -32 -3 C-21.99507784 -5.94763629 -9.00313451 -5.31358376 0 0 Z " fill="#010101" transform="translate(258,47)"/>
<path d="M0 0 C0.98033203 -0.020625 1.96066406 -0.04125 2.97070312 -0.0625 C4.39479492 -0.07023437 4.39479492 -0.07023437 5.84765625 -0.078125 C6.70496338 -0.0874707 7.56227051 -0.09681641 8.44555664 -0.10644531 C11.84363592 0.37961286 13.3647413 0.90812643 15.9375 3.25 C17.15370436 6.54116756 17.62804188 9.91593997 18.15625 13.375 C18.42594101 14.96226143 18.42594101 14.96226143 18.70108032 16.58158875 C19.3001298 20.13466923 19.86854496 23.6919866 20.4375 27.25 C20.85308641 29.75012583 21.27094361 32.2498751 21.69091797 34.74926758 C22.36870451 38.78978737 23.04486703 42.83048892 23.71066284 46.8730011 C25.56104268 58.09872337 27.50533634 69.30664308 29.4765625 80.51171875 C29.77769523 82.22688292 30.07874118 83.94206233 30.37969971 85.65725708 C31.56919578 92.43524465 32.75873839 99.21322182 33.95239258 105.99047852 C34.65741281 109.99640793 35.35710125 114.00323696 36.05305099 118.01075172 C36.31164476 119.49467518 36.57204267 120.97828553 36.83436966 122.46155357 C37.19522877 124.50312193 37.549772 126.54569365 37.90283203 128.58862305 C38.10361359 129.73574265 38.30439514 130.88286224 38.51126099 132.06474304 C38.92839735 135.18197646 39.08841833 138.10959847 38.9375 141.25 C37.9375 142.25 37.9375 142.25 35.62084961 142.36352539 C34.62061768 142.35828857 33.62038574 142.35305176 32.58984375 142.34765625 C31.51025391 142.34443359 30.43066406 142.34121094 29.31835938 142.33789062 C28.18205078 142.32951172 27.04574219 142.32113281 25.875 142.3125 C24.73482422 142.30798828 23.59464844 142.30347656 22.41992188 142.29882812 C19.59239649 142.28699747 16.7649736 142.2705141 13.9375 142.25 C11.34332654 137.06165307 11.57937675 133.66876746 10.9375 127.25 C2.6875 126.92 -5.5625 126.59 -14.0625 126.25 C-14.371875 128.51875 -14.68125 130.7875 -15 133.125 C-15.9375 140 -15.9375 140 -17.0625 142.25 C-25.3125 142.25 -33.5625 142.25 -42.0625 142.25 C-43.15520367 138.97188899 -42.97454906 137.69534585 -42.37255859 134.3605957 C-42.19373642 133.34932114 -42.01491425 132.33804657 -41.83067322 131.29612732 C-41.62616043 130.18391312 -41.42164764 129.07169891 -41.2109375 127.92578125 C-41.00050308 126.74810684 -40.79006866 125.57043243 -40.57325745 124.35707092 C-39.99062337 121.10523239 -39.40135315 117.85473034 -38.80894089 114.60466766 C-38.18631146 111.18147508 -37.57121334 107.75692966 -36.95532227 104.33251953 C-36.17014074 99.97052179 -35.38359668 95.60877853 -34.59309387 91.2477417 C-32.69176284 80.75799408 -30.81544113 70.2639921 -28.9508667 59.76765251 C-28.06926485 54.80944343 -27.18367953 49.85194483 -26.29771805 44.89451313 C-25.57687195 40.86027875 -24.85782713 36.82574235 -24.14300537 32.79043579 C-23.46677801 28.97446344 -22.78448559 25.15962341 -22.09763908 21.34554863 C-21.84508195 19.93719481 -21.59467506 18.52845348 -21.34655952 17.11931038 C-21.00624363 15.18838057 -20.65750466 13.25894093 -20.30834961 11.32958984 C-20.11502548 10.24640472 -19.92170135 9.1632196 -19.72251892 8.04721069 C-19.11285016 5.46338784 -18.49857346 3.47706536 -17.0625 1.25 C-11.65539536 -0.38167845 -5.61410848 0.02964546 0 0 Z M-2.0625 50.25 C-3.20396003 57.47622654 -4.34305015 64.70282374 -5.48046875 71.9296875 C-5.86793926 74.38973518 -6.25595855 76.84969649 -6.64453125 79.30957031 C-7.20195434 82.83896857 -7.75742327 86.36866957 -8.3125 89.8984375 C-8.48749023 91.00367767 -8.66248047 92.10891785 -8.84277344 93.24765015 C-9.00293945 94.26855743 -9.16310547 95.28946472 -9.328125 96.34130859 C-9.47024414 97.24287689 -9.61236328 98.14444519 -9.75878906 99.07333374 C-10.10856387 101.21384308 -10.10856387 101.21384308 -10.0625 103.25 C-4.7825 103.25 0.4975 103.25 5.9375 103.25 C5.2612926 91.85718918 3.6160755 80.70782793 1.875 69.4375 C1.59005814 67.56972802 1.30554976 65.70188986 1.02148438 63.83398438 C0.33181202 59.30521198 -0.3636995 54.7773725 -1.0625 50.25 C-1.3925 50.25 -1.7225 50.25 -2.0625 50.25 Z " fill="#010101" transform="translate(915.0625,43.75)"/>
<path d="M0 0 C1.1014183 -0.00315216 2.20283661 -0.00630432 3.33763123 -0.009552 C4.51793411 -0.00752777 5.698237 -0.00550354 6.91430664 -0.00341797 C8.13598038 -0.00437469 9.35765411 -0.00533142 10.61634827 -0.00631714 C13.19768322 -0.00699707 15.7790199 -0.00515582 18.36035156 -0.00097656 C22.30611017 0.00436966 26.25175472 -0.00092556 30.19750977 -0.00732422 C32.70727564 -0.00666331 35.21704145 -0.0053819 37.72680664 -0.00341797 C38.9050853 -0.0054422 40.08336395 -0.00746643 41.29734802 -0.009552 C42.95420372 -0.00482376 42.95420372 -0.00482376 44.64453125 0 C45.61096054 0.00079559 46.57738983 0.00159119 47.57310486 0.00241089 C50.60141208 0.13907218 53.43005879 0.45468176 56.38696289 1.12939453 C57.65834063 3.67215002 57.51638789 5.47747654 57.51977539 8.32080078 C57.52106445 9.34753906 57.52235352 10.37427734 57.52368164 11.43212891 C57.51981445 12.50785156 57.51594727 13.58357422 57.51196289 14.69189453 C57.51583008 15.77148438 57.51969727 16.85107422 57.52368164 17.96337891 C57.52239258 18.98882812 57.52110352 20.01427734 57.51977539 21.07080078 C57.51864746 22.01640869 57.51751953 22.9620166 57.51635742 23.9362793 C57.38696289 26.12939453 57.38696289 26.12939453 56.38696289 27.12939453 C53.35718485 27.21810726 50.35029267 27.24458804 47.32055664 27.22705078 C46.41193375 27.22563583 45.50331085 27.22422089 44.56715393 27.22276306 C41.65289068 27.21714646 38.73870308 27.20459118 35.82446289 27.19189453 C33.85376087 27.18688167 31.88305765 27.18231839 29.91235352 27.17822266 C25.07050375 27.1680207 20.22881842 27.14844862 15.38696289 27.12939453 C15.38696289 36.69939453 15.38696289 46.26939453 15.38696289 56.12939453 C18.33504883 56.11779297 21.28313477 56.10619141 24.32055664 56.09423828 C27.16341036 56.08644837 30.00626291 56.08037123 32.84912109 56.07446289 C34.83089731 56.06942186 36.81266978 56.06258915 38.79443359 56.05395508 C41.63648398 56.04187938 44.47848536 56.03616408 47.32055664 56.03173828 C48.21222031 56.026577 49.10388397 56.02141571 50.02256775 56.01609802 C52.1443689 56.01590277 54.26607069 56.06729423 56.38696289 56.12939453 C58.10264081 57.84507245 57.51712114 60.10312188 57.51977539 62.44189453 C57.52106445 63.51697266 57.52235352 64.59205078 57.52368164 65.69970703 C57.51981445 66.83150391 57.51594727 67.96330078 57.51196289 69.12939453 C57.51583008 70.26119141 57.51969727 71.39298828 57.52368164 72.55908203 C57.52239258 73.63416016 57.52110352 74.70923828 57.51977539 75.81689453 C57.51864746 76.81076172 57.51751953 77.80462891 57.51635742 78.82861328 C57.38696289 81.12939453 57.38696289 81.12939453 56.38696289 82.12939453 C52.7352615 82.52400825 49.05595407 82.60640672 45.38696289 82.75439453 C44.30801758 82.79943115 43.22907227 82.84446777 42.11743164 82.89086914 C33.11454449 83.21192406 24.36356367 82.85072852 15.38696289 82.12939453 C15.38696289 93.01939453 15.38696289 103.90939453 15.38696289 115.12939453 C18.33504883 115.11779297 21.28313477 115.10619141 24.32055664 115.09423828 C27.16341036 115.08644837 30.00626291 115.08037123 32.84912109 115.07446289 C34.83089731 115.06942186 36.81266978 115.06258915 38.79443359 115.05395508 C41.63648398 115.04187938 44.47848536 115.03616408 47.32055664 115.03173828 C48.21222031 115.026577 49.10388397 115.02141571 50.02256775 115.01609802 C52.1443689 115.01590277 54.26607069 115.06729423 56.38696289 115.12939453 C58.13241894 116.87485058 57.51719449 119.29063671 57.51977539 121.66064453 C57.52106445 122.78083984 57.52235352 123.90103516 57.52368164 125.05517578 C57.51981445 126.23466797 57.51594727 127.41416016 57.51196289 128.62939453 C57.51583008 129.80888672 57.51969727 130.98837891 57.52368164 132.20361328 C57.52239258 133.32380859 57.52110352 134.44400391 57.51977539 135.59814453 C57.51864746 136.63390625 57.51751953 137.66966797 57.51635742 138.73681641 C57.38696289 141.12939453 57.38696289 141.12939453 56.38696289 142.12939453 C54.34227315 142.23404923 52.29393735 142.26795497 50.24658203 142.2746582 C48.93174332 142.28103806 47.6169046 142.28741791 46.26222229 142.29399109 C44.81552161 142.29551964 43.36882044 142.29663367 41.92211914 142.29736328 C40.44860298 142.30057413 38.97508714 142.30393807 37.50157166 142.30744934 C34.40875509 142.31344706 31.3159665 142.31528859 28.22314453 142.31469727 C24.25382521 142.31459562 20.28468467 142.32824774 16.31540775 142.34546947 C13.27086051 142.3565709 10.22635673 142.35861705 7.18179131 142.35808754 C5.71811749 142.35927047 4.25444264 142.36370969 2.79078865 142.37141991 C0.74612848 142.38118173 -1.29858381 142.37708741 -3.34326172 142.37231445 C-4.5082872 142.37373947 -5.67331268 142.37516449 -6.87364197 142.37663269 C-9.61303711 142.12939453 -9.61303711 142.12939453 -11.61303711 140.12939453 C-11.86192608 137.76771641 -11.86192608 137.76771641 -11.86027527 134.74598694 C-11.86446976 133.60324814 -11.86866425 132.46050934 -11.87298584 131.28314209 C-11.86736633 130.02334534 -11.86174683 128.76354858 -11.85595703 127.46557617 C-11.85702956 126.13026334 -11.85896779 124.79495095 -11.86170959 123.4596405 C-11.86656634 119.82739619 -11.8588916 116.1952743 -11.84875655 112.56304479 C-11.83998743 108.76610654 -11.84173329 104.96917226 -11.84211731 101.17222595 C-11.84118001 94.79407701 -11.83248798 88.41597556 -11.81884766 82.0378418 C-11.80312818 74.66018001 -11.79784929 67.2825703 -11.79858321 59.90489298 C-11.79919336 52.81422201 -11.79408864 45.72356802 -11.7857914 38.63290215 C-11.78225782 35.61263331 -11.78042804 32.59237049 -11.77989769 29.57209969 C-11.77889389 26.01562275 -11.77279416 22.45918961 -11.76273155 18.90272713 C-11.75841178 16.97221449 -11.75897849 15.04169288 -11.75967407 13.11117554 C-11.75540909 11.96561691 -11.7511441 10.82005829 -11.74674988 9.63978577 C-11.74507403 8.64223802 -11.74339819 7.64469027 -11.74167156 6.6169138 C-11.61303711 4.12939453 -11.61303711 4.12939453 -10.61303711 1.12939453 C-7.01314973 0.30544002 -3.6898811 0.00304012 0 0 Z " fill="#010001" transform="translate(401.613037109375,43.87060546875)"/>
<path d="M0 0 C0.68812271 -0.00511093 1.37624542 -0.01022186 2.08522034 -0.01548767 C4.35963641 -0.02938705 6.63374963 -0.0284269 8.90820312 -0.02612305 C10.48856723 -0.03000939 12.06893029 -0.03434394 13.64929199 -0.03910828 C16.96137885 -0.04657092 20.27335912 -0.04627862 23.58544922 -0.04101562 C27.83271667 -0.03521654 32.07954866 -0.05216204 36.32674408 -0.0753603 C39.59009355 -0.09008057 42.85333769 -0.09097176 46.11671448 -0.08785057 C47.68283451 -0.0883645 49.24896033 -0.09361572 50.81504822 -0.10366249 C53.00329034 -0.11597894 55.19067814 -0.10926535 57.37890625 -0.09765625 C58.62450317 -0.09828568 59.8701001 -0.0989151 61.15344238 -0.0995636 C64.18945312 0.2746582 64.18945312 0.2746582 66.08589172 1.67301941 C69.86889275 7.16342637 68.06741434 18.01149541 67.18945312 24.2746582 C65.73494389 29.62457721 63.11673253 34.37552027 60.38232422 39.16772461 C59.18808633 41.27707234 58.06563848 43.41118239 56.95898438 45.56762695 C53.28924853 52.70231253 49.46816342 59.75649885 45.67382812 66.82543945 C44.72886311 68.5861309 43.7838988 70.34682273 42.83898926 72.10754395 C42.19886768 73.2999846 41.5584878 74.49228663 40.91784668 75.68444824 C35.59523099 85.59116077 30.37377507 95.54613873 25.2253418 105.54467773 C24.72236572 106.51904785 24.21938965 107.49341797 23.70117188 108.49731445 C23.04314575 109.77747437 23.04314575 109.77747437 22.37182617 111.08349609 C21.18945312 113.2746582 21.18945312 113.2746582 19.18945312 116.2746582 C19.77605209 116.27243759 20.36265106 116.27021698 20.96702576 116.26792908 C27.04970697 116.2458761 33.1323769 116.23075156 39.21508789 116.21972656 C41.48787904 116.21468495 43.76066692 116.20785183 46.03344727 116.19921875 C49.29248864 116.1871456 52.55148729 116.18142833 55.81054688 116.17700195 C56.83345322 116.17184067 57.85635956 116.16667938 58.91026306 116.16136169 C59.85116287 116.16128616 60.79206268 116.16121063 61.76147461 116.16113281 C62.59420395 116.1589122 63.42693329 116.15669159 64.28489685 116.15440369 C66.18945312 116.2746582 66.18945312 116.2746582 67.18945312 117.2746582 C67.28891765 119.04325013 67.3202553 120.81577271 67.32226562 122.5871582 C67.32355469 123.66223633 67.32484375 124.73731445 67.32617188 125.8449707 C67.32230469 126.97676758 67.3184375 128.10856445 67.31445312 129.2746582 C67.31832031 130.40645508 67.3221875 131.53825195 67.32617188 132.7043457 C67.32488281 133.77942383 67.32359375 134.85450195 67.32226562 135.9621582 C67.3211377 136.95602539 67.32000977 137.94989258 67.31884766 138.97387695 C67.18945312 141.2746582 67.18945312 141.2746582 66.18945312 142.2746582 C63.79136163 142.37493616 61.42205814 142.41084497 59.0234375 142.40405273 C58.27387283 142.40580505 57.52430817 142.40755737 56.75202942 142.40936279 C54.26239743 142.4137814 51.77283589 142.4108433 49.28320312 142.4074707 C47.56066881 142.40814374 45.83813458 142.40911376 44.11560059 142.41036987 C40.50072325 142.41184686 36.88587057 142.40969227 33.27099609 142.4050293 C28.6267882 142.39933201 23.98263809 142.40261101 19.33843231 142.40860176 C15.78008587 142.41220736 12.22175322 142.41106879 8.66340637 142.40847397 C6.95050551 142.4078047 5.2376034 142.40863313 3.52470398 142.41095352 C1.13492491 142.41348003 -1.25475928 142.4096395 -3.64453125 142.40405273 C-4.3593718 142.40607697 -5.07421234 142.4081012 -5.81071472 142.41018677 C-10.69628419 142.38892089 -10.69628419 142.38892089 -11.81054688 141.2746582 C-17.16637196 118.95662004 -4.42558225 100.74238916 6.10125732 82.21002197 C8.37841554 78.16008032 10.49689975 74.02807057 12.62695312 69.8996582 C13.36869157 68.49508622 14.1121663 67.09142969 14.85742188 65.6887207 C18.244159 59.29501198 21.57301511 52.87082162 24.90600586 46.44897461 C28.25470397 40.01336586 31.69423268 33.63184015 35.18945312 27.2746582 C33.25126709 27.23707397 33.25126709 27.23707397 31.27392578 27.19873047 C26.49175656 27.10474196 21.70973551 27.00450054 16.92773438 26.90234375 C14.85582946 26.85896243 12.78388805 26.81728974 10.71191406 26.77734375 C7.73816922 26.71971855 4.76460864 26.65600195 1.79101562 26.59106445 C0.86076569 26.57435196 -0.06948425 26.55763947 -1.02792358 26.54042053 C-1.88866486 26.52047531 -2.74940613 26.50053009 -3.63623047 26.47998047 C-4.39567963 26.46443619 -5.15512878 26.44889191 -5.93759155 26.43287659 C-7.81054688 26.2746582 -7.81054688 26.2746582 -9.81054688 25.2746582 C-9.89734507 21.48313487 -9.95086894 17.69186524 -9.99804688 13.8996582 C-10.02318359 12.81942383 -10.04832031 11.73918945 -10.07421875 10.6262207 C-10.08388672 9.5949707 -10.09355469 8.5637207 -10.10351562 7.5012207 C-10.11922607 6.54812012 -10.13493652 5.59501953 -10.15112305 4.61303711 C-9.98253784 3.45553955 -9.98253784 3.45553955 -9.81054688 2.2746582 C-6.14789913 -0.16710696 -4.36724331 0.01615418 0 0 Z " fill="#010101" transform="translate(767.810546875,43.725341796875)"/>
<path d="M0 0 C7.66225053 0.62731876 14.39479938 3.12774749 19.6875 8.8125 C22.31601308 13.19335514 21.71740701 18.09366559 21 23 C15.9012111 36.90767215 1.85862685 45.9842861 -10.0246582 53.71069336 C-11.00245239 54.34890015 -11.00245239 54.34890015 -12 55 C-13.0526001 55.47518066 -14.1052002 55.95036133 -15.18969727 56.43994141 C-18.40493597 59.36887834 -18.4453389 59.91598374 -18.70947266 64.05639648 C-18.7234202 66.16130379 -18.70626524 68.26656335 -18.6640625 70.37109375 C-18.66828217 71.48557388 -18.67250183 72.60005402 -18.67684937 73.74830627 C-18.6877312 77.31204495 -18.65960007 80.87393327 -18.625 84.4375 C-18.60096227 87.99724709 -18.58576226 91.55615839 -18.59457397 95.11598206 C-18.59915326 97.33082404 -18.58441784 99.54580935 -18.54824829 101.76036072 C-18.55086188 109.23288198 -18.55086188 109.23288198 -20.77490234 113.03149414 C-21.50918457 113.68110107 -22.2434668 114.33070801 -23 115 C-23.54167313 115.52726685 -24.08334625 116.05453369 -24.64143372 116.59777832 C-27.99392109 118.59090885 -31.17251187 118.42677673 -34.9621582 118.40405273 C-35.76104462 118.41091599 -36.55993103 118.41777924 -37.38302612 118.42485046 C-40.022459 118.44314217 -42.66129861 118.43927666 -45.30078125 118.43359375 C-47.13917738 118.43815543 -48.9775718 118.44346096 -50.81596375 118.44947815 C-54.67026695 118.45841466 -58.52436305 118.45598118 -62.37866211 118.44604492 C-67.30829906 118.43457262 -72.23721784 118.45473714 -77.16676044 118.48396206 C-80.96472184 118.50234845 -84.76251207 118.50202643 -88.56050682 118.49632454 C-90.37731112 118.49617153 -92.19412718 118.50219933 -94.01088905 118.51461601 C-96.55759683 118.52956517 -99.10299034 118.51881987 -101.6496582 118.50170898 C-102.39431839 118.51137695 -103.13897858 118.52104492 -103.90620422 118.53100586 C-109.45988751 118.45322976 -112.55259897 117.10920116 -117 114 C-120.30373346 108.57866051 -120.38043884 103.70191298 -120.1875 97.5625 C-120.16719727 96.32209961 -120.16719727 96.32209961 -120.14648438 95.05664062 C-120.11146992 93.0374736 -120.05767562 91.01864682 -120 89 C-120.63164063 89.03480469 -121.26328125 89.06960937 -121.9140625 89.10546875 C-134.71336694 89.49276759 -145.69159991 87.21214007 -155.5 78.875 C-157.86876082 74.33487509 -157.72541468 70.00815133 -157 65 C-155.92592734 62.04630019 -154.63600818 59.70963855 -153 57 C-152.01 57 -151.02 57 -150 57 C-149.85304687 57.60328125 -149.70609375 58.2065625 -149.5546875 58.828125 C-148.3719229 63.04257356 -147.59178654 65.47546193 -144.25 68.4375 C-120.95101618 79.63893453 -87.88740752 70.26787683 -64.94067383 62.28344727 C-62.94927909 61.54809793 -60.97313355 60.78301202 -59 60 C-57.86957275 59.55333984 -57.86957275 59.55333984 -56.71630859 59.09765625 C-39.15778139 52.05018775 -22.03403106 43.92802161 -8 31 C-7.31550781 30.38382813 -6.63101563 29.76765625 -5.92578125 29.1328125 C-0.16099577 23.69433563 3.69558994 18.2190715 4 10 C3.00127264 6.42122696 1.33592633 3.86681868 -1 1 C-0.67 0.67 -0.34 0.34 0 0 Z M-37.9375 67.375 C-38.67935547 67.69210938 -39.42121094 68.00921875 -40.18554688 68.3359375 C-40.89646484 68.6453125 -41.60738281 68.9546875 -42.33984375 69.2734375 C-43.32005493 69.69761963 -43.32005493 69.69761963 -44.32006836 70.13037109 C-46.19570299 70.99377566 -46.19570299 70.99377566 -48 73 C-48.24339551 75.89883083 -48.24339551 75.89883083 -48.125 79.125 C-48.10695313 80.22070312 -48.08890625 81.31640625 -48.0703125 82.4453125 C-48.04710938 83.28835937 -48.02390625 84.13140625 -48 85 C-45.77252674 85.13563775 -43.54265677 85.23227853 -41.3125 85.3125 C-39.45044922 85.39951172 -39.45044922 85.39951172 -37.55078125 85.48828125 C-33.90701806 85.2555041 -33.90701806 85.2555041 -31.0625 83 C-28.34286584 79.04416849 -28.41636906 76.35512336 -28.6875 71.6875 C-28.71005859 70.94693359 -28.73261719 70.20636719 -28.75585938 69.44335938 C-28.8144185 67.62802643 -28.90409114 65.81374319 -29 64 C-31.87618234 64 -35.26953218 66.21280831 -37.9375 67.375 Z M-56 75 C-55.67 75.99 -55.34 76.98 -55 78 C-54.67 77.01 -54.34 76.02 -54 75 C-54.66 75 -55.32 75 -56 75 Z M-70.32421875 79.3125 C-71.35224609 79.58320313 -72.38027344 79.85390625 -73.43945312 80.1328125 C-74.51130859 80.41898437 -75.58316406 80.70515625 -76.6875 81 C-77.77095703 81.28617187 -78.85441406 81.57234375 -79.97070312 81.8671875 C-82.64802177 82.57484881 -85.32438937 83.28591298 -88 84 C-88 84.33 -88 84.66 -88 85 C-77.44 85 -66.88 85 -56 85 C-57.98 82.69 -59.96 80.38 -62 78 C-65.07018733 78 -67.36453565 78.52761166 -70.32421875 79.3125 Z M-74.375 95.625 C-76.48706506 98.71186432 -76.61195145 100.3282913 -76 104 C-74.58333333 106.58333333 -74.58333333 106.58333333 -72 108 C-68.40528996 108.24838381 -68.40528996 108.24838381 -65 107 C-62.75699365 104.92836371 -62.75699365 104.92836371 -62 102 C-62.76172691 98.46835704 -63.43871412 96.56128588 -66 94 C-69.59411792 93.53120201 -71.35164037 93.55638552 -74.375 95.625 Z " fill="#010101" transform="translate(168,75)"/>
<path d="M0 0 C0.72725281 -0.0049649 1.45450562 -0.00992981 2.20379639 -0.01504517 C4.6116226 -0.02965688 7.01938281 -0.03646898 9.42724609 -0.04199219 C11.10533652 -0.04774677 12.78342693 -0.05350446 14.46151733 -0.05926514 C17.9837881 -0.0697739 21.50603607 -0.07561662 25.02832031 -0.07910156 C29.5238235 -0.08457005 34.01902132 -0.10856313 38.51442909 -0.13707352 C41.98388522 -0.15577945 45.45326918 -0.16090983 48.92277145 -0.16243744 C50.57883743 -0.16544923 52.23490258 -0.17342756 53.89091873 -0.18662262 C72.13147948 -0.32152504 72.13147948 -0.32152504 77.82568359 3.16113281 C82.75592053 8.06464501 82.44174898 13.46383755 82.47021484 20.02441406 C82.48912277 21.08863083 82.5080307 22.1528476 82.5275116 23.24931335 C82.56399307 25.50942329 82.59113533 27.76970052 82.60961914 30.0300293 C82.63754473 33.39661449 82.6926395 36.76179508 82.75341797 40.12792969 C82.84142223 45.67658058 82.86122272 51.22228926 82.8369751 56.77154541 C82.82929131 59.07813436 82.83260164 61.38478033 82.84564209 63.69134521 C82.85805734 67.13441025 82.82270947 70.57390535 82.77490234 74.01660156 C82.79046928 75.58744255 82.79046928 75.58744255 82.80635071 77.1900177 C82.63651746 84.17998711 82.63651746 84.17998711 80.3097229 86.99551392 C78.48967333 88.392672 77.0006913 89.42721018 74.82568359 90.16113281 C73.34068359 89.66613281 73.34068359 89.66613281 71.82568359 89.16113281 C71.49568359 63.75113281 71.16568359 38.34113281 70.82568359 12.16113281 C68.84568359 11.83113281 66.86568359 11.50113281 64.82568359 11.16113281 C64.85710449 13.12119263 64.85710449 13.12119263 64.88916016 15.12084961 C64.96163913 19.97555555 65.00751234 24.83021379 65.04541016 29.68530273 C65.06550756 31.78531948 65.09279026 33.88528039 65.12744141 35.98510742 C65.1760413 39.00616239 65.19867121 42.02647658 65.21630859 45.04785156 C65.23695374 45.98449142 65.25759888 46.92113129 65.27886963 47.88615417 C65.28032028 52.11404434 65.23217224 54.49569944 62.98876953 58.16821289 C60.82568359 60.16113281 60.82568359 60.16113281 57.82568359 62.16113281 C57.49352781 65.0248543 57.36187974 67.61129546 57.38818359 70.47363281 C57.36820312 71.23353516 57.34822266 71.9934375 57.32763672 72.77636719 C57.33214946 77.97053792 58.26045576 80.20684242 61.82568359 84.16113281 C61.76492229 87.68528851 61.54823716 90.07730247 59.57568359 93.03613281 C57.25707524 94.52666675 55.58061523 94.96435198 52.82568359 95.16113281 C49.8613407 94.38475729 48.21701207 93.53896721 46.01318359 91.41113281 C44.41457147 88.38218352 44.34197224 86.5471123 44.82568359 83.16113281 C45.48826172 82.44441406 46.15083984 81.72769531 46.83349609 80.98925781 C49.43924421 77.29011735 49.21417176 74.19135661 49.13818359 69.84863281 C49.22393557 64.26046257 49.426629 60.50308205 53.32568359 56.16113281 C55.23193359 54.41113281 55.23193359 54.41113281 56.82568359 53.16113281 C58.98025328 51.00656313 58.08594985 46.08997011 58.14208984 43.09472656 C58.17326149 41.73179222 58.17326149 41.73179222 58.20506287 40.34132385 C58.27066031 37.42717335 58.3294904 34.51292977 58.38818359 31.59863281 C58.43135914 29.6279199 58.4749731 27.65721655 58.51904297 25.68652344 C58.62635203 20.84482293 58.72759034 16.00302845 58.82568359 11.16113281 C54.53568359 11.16113281 50.24568359 11.16113281 45.82568359 11.16113281 C45.71409618 20.03853115 45.78105366 28.91276543 46.07568359 37.78613281 C46.08978271 38.6262793 46.10388184 39.46642578 46.1184082 40.33203125 C46.33900789 45.80906496 47.49765747 48.65498544 50.82568359 53.16113281 C50.82568359 56.96745491 50.67187143 59.15221655 48.20068359 62.09863281 C44.79948488 63.62022171 42.51285629 63.67863073 38.82568359 63.16113281 C35.43891271 60.71112834 34.03869776 59.29720835 33.26318359 55.16113281 C33.82568359 52.16113281 33.82568359 52.16113281 35.84521484 49.89941406 C38.33313987 46.45950194 38.24500468 44.53932963 38.07568359 40.34863281 C38.02154297 38.60646484 38.02154297 38.60646484 37.96630859 36.82910156 C37.91990234 35.94867188 37.87349609 35.06824219 37.82568359 34.16113281 C36.34348392 35.6163834 34.8650122 37.07543182 33.38818359 38.53613281 C32.56447266 39.34824219 31.74076172 40.16035156 30.89208984 40.99707031 C26.68395121 45.40408129 27.56882997 50.16044101 27.51318359 55.97363281 C27.48417969 56.97201172 27.45517578 57.97039062 27.42529297 58.99902344 C27.32130853 64.91955013 27.32130853 64.91955013 29.78662109 70.17285156 C30.45951172 70.82898438 31.13240234 71.48511719 31.82568359 72.16113281 C32.95671719 75.78044033 33.14913026 77.41209842 31.63818359 80.91113281 C29.71539788 83.29803921 28.75927855 84.32296282 25.82568359 85.16113281 C21.96515604 85.08070516 20.31641138 84.58894678 17.38818359 82.03613281 C15.32737686 78.24424842 15.68517827 76.26695198 16.82568359 72.16113281 C17.59875854 71.48860474 17.59875854 71.48860474 18.38745117 70.80249023 C20.08287849 69.20164899 20.08287849 69.20164899 20.00415039 66.59594727 C19.92849854 65.58234131 19.85284668 64.56873535 19.77490234 63.52441406 C18.94606315 43.65356214 18.94606315 43.65356214 24.40771484 36.88769531 C27.75536743 33.40354313 31.37794693 30.30386043 35.25927734 27.4284668 C36.96522909 26.22708514 36.96522909 26.22708514 37.82568359 24.16113281 C38.05518679 21.95676881 38.23644293 19.74721109 38.38818359 17.53613281 C38.53255859 15.43238281 38.67693359 13.32863281 38.82568359 11.16113281 C33.87568359 11.16113281 28.92568359 11.16113281 23.82568359 11.16113281 C24.92326031 16.93422151 24.92326031 16.93422151 28.01318359 21.78613281 C29.82568359 24.16113281 29.82568359 24.16113281 29.82568359 27.22363281 C28.65871017 30.65161726 27.82024007 32.11222575 24.82568359 34.16113281 C21.38818359 34.72363281 21.38818359 34.72363281 17.82568359 34.16113281 C14.43891271 31.71112834 13.03869776 30.29720835 12.26318359 26.16113281 C12.94751599 22.51136004 14.52068655 21.02491702 16.82568359 18.16113281 C17.62790511 14.47138481 17.62790511 14.47138481 17.82568359 11.16113281 C13.53568359 11.16113281 9.24568359 11.16113281 4.82568359 11.16113281 C4.75129969 15.6268373 4.69697189 20.09220966 4.66088867 24.55834961 C4.64584006 26.07631719 4.62539621 27.59424157 4.59936523 29.11206055 C4.56280706 31.29909959 4.54591837 33.48556178 4.53271484 35.67285156 C4.51700439 36.98729248 4.50129395 38.3017334 4.48510742 39.65600586 C4.97927479 44.74185595 6.72041999 47.16113241 10.45068359 50.53613281 C15.53381727 56.1543332 13.95567266 65.4840421 13.92333984 72.65722656 C13.9219249 73.84590836 13.92050995 75.03459015 13.91905212 76.2592926 C13.91347474 80.03909875 13.90092634 83.8188447 13.88818359 87.59863281 C13.88316567 90.16829341 13.87860328 92.73795495 13.87451172 95.30761719 C13.86351271 101.59214278 13.8467971 107.87663349 13.82568359 114.16113281 C10.85568359 115.15113281 10.85568359 115.15113281 7.82568359 116.16113281 C6.82568359 115.16113281 6.82568359 115.16113281 6.71456909 112.81015015 C6.72013824 111.76759064 6.7257074 110.72503113 6.73144531 109.65087891 C6.73409393 108.47230316 6.73674255 107.29372742 6.73947144 106.07943726 C6.74471832 104.79413116 6.74996521 103.50882507 6.75537109 102.18457031 C6.74678407 99.48532669 6.73652804 96.78613793 6.72412109 94.08691406 C6.70586179 89.81404003 6.69703144 85.54188472 6.72607422 81.26904297 C6.74429088 78.48995652 6.74401298 75.71208111 6.72293091 72.93301392 C6.7032433 70.31424159 6.709803 67.69510957 6.74557495 65.07650757 C6.84447148 58.67205073 6.84447148 58.67205073 4.24125671 53.06132507 C2.98878495 51.94037808 1.71315731 50.84465625 0.41357422 49.77868652 C-2.01385828 47.30590762 -2.03136751 45.08737209 -2.11985779 41.7268219 C-2.10560257 40.95362106 -2.09134735 40.18042023 -2.07666016 39.38378906 C-2.08895157 38.57244003 -2.10124298 37.761091 -2.11390686 36.92515564 C-2.14546824 34.3570434 -2.12941176 31.79183074 -2.11181641 29.22363281 C-2.12493556 27.47295527 -2.14118049 25.72229819 -2.16064453 23.97167969 C-2.20135221 19.70088422 -2.19938891 15.43202812 -2.17431641 11.16113281 C-3.82431641 11.49113281 -5.47431641 11.82113281 -7.17431641 12.16113281 C-7.18240326 13.47213959 -7.19049011 14.78314636 -7.19882202 16.13388062 C-7.27617611 28.46547579 -7.36388787 40.79695918 -7.46184349 53.12840843 C-7.51187246 59.46872122 -7.55820178 65.8090168 -7.59619141 72.14941406 C-7.63296096 78.26378601 -7.67929789 84.37801627 -7.73237991 90.49226761 C-7.75096828 92.82952016 -7.76605965 95.16680312 -7.77766037 97.5041008 C-7.79444697 100.76801943 -7.82346332 104.03161039 -7.85546875 107.29541016 C-7.85762894 108.27004715 -7.85978912 109.24468414 -7.86201477 110.24885559 C-7.87317825 111.13509109 -7.88434174 112.0213266 -7.89584351 112.93441772 C-7.90137426 113.70688025 -7.90690502 114.47934277 -7.91260338 115.27521324 C-8.17431641 117.16113281 -8.17431641 117.16113281 -10.17431641 119.16113281 C-12.88886596 119.48865515 -15.426624 119.29197531 -18.17431641 119.16113281 C-19.72003423 117.61541499 -19.30655138 116.17203276 -19.3147583 114.01911926 C-19.32046844 113.12610107 -19.32617859 112.23308289 -19.33206177 111.31300354 C-19.33373856 109.83174232 -19.33373856 109.83174232 -19.33544922 108.32055664 C-19.34041412 107.28641632 -19.34537903 106.252276 -19.35049438 105.1867981 C-19.3651628 101.74724677 -19.37192677 98.3077416 -19.37744141 94.86816406 C-19.38319026 92.48500059 -19.38894802 90.10183714 -19.39471436 87.71867371 C-19.40523851 82.71243066 -19.4110715 77.70620373 -19.41455078 72.69995117 C-19.42002985 66.28497819 -19.44403955 59.87021807 -19.47252274 53.45531178 C-19.49115041 48.52851237 -19.49635486 43.60176413 -19.49788666 38.67493248 C-19.50091484 36.31024706 -19.50894891 33.94556258 -19.52207184 31.58091164 C-19.53913003 28.27000421 -19.53725205 24.95961521 -19.53076172 21.64868164 C-19.5399765 20.67129532 -19.54919128 19.693909 -19.5586853 18.68690491 C-19.52644517 13.43555354 -19.18811475 9.66595108 -16.17431641 5.16113281 C-10.66630297 0.91537245 -6.85515801 0.0355589 0 0 Z M18.82568359 24.16113281 C18.82568359 25.48113281 18.82568359 26.80113281 18.82568359 28.16113281 C20.47568359 27.83113281 22.12568359 27.50113281 23.82568359 27.16113281 C23.49568359 26.17113281 23.16568359 25.18113281 22.82568359 24.16113281 C21.50568359 24.16113281 20.18568359 24.16113281 18.82568359 24.16113281 Z M40.82568359 52.16113281 C40.49568359 53.48113281 40.16568359 54.80113281 39.82568359 56.16113281 C41.14568359 56.49113281 42.46568359 56.82113281 43.82568359 57.16113281 C44.15568359 56.17113281 44.48568359 55.18113281 44.82568359 54.16113281 C43.50568359 53.50113281 42.18568359 52.84113281 40.82568359 52.16113281 Z M22.82568359 74.16113281 C22.49568359 75.48113281 22.16568359 76.80113281 21.82568359 78.16113281 C23.14568359 78.16113281 24.46568359 78.16113281 25.82568359 78.16113281 C26.15568359 77.50113281 26.48568359 76.84113281 26.82568359 76.16113281 C26.49568359 75.50113281 26.16568359 74.84113281 25.82568359 74.16113281 C24.83568359 74.16113281 23.84568359 74.16113281 22.82568359 74.16113281 Z M51.82568359 84.16113281 C51.49568359 85.48113281 51.16568359 86.80113281 50.82568359 88.16113281 C52.14568359 88.16113281 53.46568359 88.16113281 54.82568359 88.16113281 C54.82568359 86.84113281 54.82568359 85.52113281 54.82568359 84.16113281 C53.83568359 84.16113281 52.84568359 84.16113281 51.82568359 84.16113281 Z " fill="#040305" transform="translate(67.17431640625,23.8388671875)"/>
<path d="M0 0 C2.05171223 9.32898179 1.14572548 19.75889254 1.1328125 29.2734375 C1.13348826 31.04586805 1.13446054 32.81829852 1.13571167 34.59072876 C1.13717968 38.29731126 1.13506563 42.00386955 1.13037109 45.71044922 C1.12471555 50.39788127 1.12801668 55.085256 1.13382339 59.772686 C1.15274677 77.87861926 1.12655597 95.9214589 0 114 C13.86 114 27.72 114 42 114 C42.92057325 116.76171975 43.12851977 118.42490433 43.1328125 121.2734375 C43.13410156 122.0984375 43.13539062 122.9234375 43.13671875 123.7734375 C43.13285156 124.63195312 43.12898438 125.49046875 43.125 126.375 C43.12886719 127.22578125 43.13273437 128.0765625 43.13671875 128.953125 C43.13542969 129.78070313 43.13414063 130.60828125 43.1328125 131.4609375 C43.13168457 132.21165527 43.13055664 132.96237305 43.12939453 133.73583984 C42.98688698 136.22945319 42.50940285 138.55765367 42 141 C33.28155997 141.02312611 24.56313044 141.04091646 15.84466648 141.05181217 C11.79674258 141.05704041 7.74883959 141.06413699 3.70092773 141.07543945 C-0.20235971 141.08627043 -4.10562699 141.09227728 -8.0089283 141.09487724 C-9.50133647 141.09673111 -10.99374348 141.100351 -12.48614311 141.10573006 C-14.56948139 141.11294331 -16.65273531 141.11399083 -18.73608398 141.11352539 C-20.51812477 141.11685631 -20.51812477 141.11685631 -22.33616638 141.12025452 C-25 141 -25 141 -26 140 C-26.12344567 138.28497541 -26.17792775 136.56494648 -26.20532227 134.84570312 C-26.22525742 133.7353067 -26.24519257 132.62491028 -26.26573181 131.48086548 C-26.29081566 129.64955582 -26.29081566 129.64955582 -26.31640625 127.78125 C-26.33727798 126.517435 -26.35814972 125.25362 -26.37965393 123.95150757 C-26.43579377 120.51486336 -26.48517932 117.07815435 -26.53263092 113.64138031 C-26.56247252 111.50196996 -26.59384028 109.36258717 -26.62567139 107.22320557 C-27.07362341 76.97509572 -27.34632114 46.74489357 -26.5625 16.5 C-26.5429425 15.71026794 -26.52338501 14.92053589 -26.50323486 14.10687256 C-26.44689071 11.91477796 -26.38325193 9.72304663 -26.31640625 7.53125 C-26.27974854 6.28923828 -26.24309082 5.04722656 -26.20532227 3.76757812 C-26 1 -26 1 -25 0 C-6.42857143 -3.21428571 -6.42857143 -3.21428571 0 0 Z " fill="#000000" transform="translate(993,45)"/>
<path d="M0 0 C0.89847656 0.00410889 1.79695313 0.00821777 2.72265625 0.01245117 C4.18832031 0.01535156 4.18832031 0.01535156 5.68359375 0.01831055 C6.70710938 0.03055664 7.730625 0.04280273 8.78515625 0.05541992 C9.80867188 0.05606445 10.8321875 0.05670898 11.88671875 0.05737305 C19.50451122 0.10259741 19.50451122 0.10259741 21.78515625 1.24291992 C22.78834269 4.82771628 22.91072786 8.25624375 22.91213989 11.96258545 C22.91495972 13.10392441 22.91777954 14.24526337 22.92068481 15.42118835 C22.91866058 16.66399063 22.91663635 17.90679291 22.91455078 19.18725586 C22.9163031 20.50311172 22.91805542 21.81896759 22.91986084 23.17469788 C22.92441226 26.77560316 22.92265551 30.37647974 22.91948175 33.97738552 C22.91694844 37.74454767 22.91929821 41.51170738 22.92086792 45.27886963 C22.92268587 51.60038698 22.92029217 57.92189263 22.91552734 64.2434082 C22.91007603 71.56038972 22.91185518 78.87734341 22.91735375 86.19432425 C22.92188431 92.47379665 22.922536 98.75326065 22.91991508 105.03273416 C22.9183532 108.78468295 22.91815631 112.53661863 22.92145157 116.28856659 C22.9248633 120.46444869 22.92014156 124.64028237 22.91455078 128.81616211 C22.91657501 130.06706131 22.91859924 131.31796051 22.92068481 132.60676575 C22.91645508 134.30185524 22.91645508 134.30185524 22.91213989 136.03118896 C22.91176287 137.0193095 22.91138584 138.00743004 22.91099739 139.02549362 C22.78515625 141.24291992 22.78515625 141.24291992 21.78515625 142.24291992 C19.94356602 142.34251613 18.09818658 142.37372403 16.25390625 142.37573242 C15.13371094 142.37702148 14.01351563 142.37831055 12.859375 142.37963867 C11.67988281 142.37577148 10.50039062 142.3719043 9.28515625 142.36791992 C7.51591797 142.3737207 7.51591797 142.3737207 5.7109375 142.37963867 C4.03064453 142.37770508 4.03064453 142.37770508 2.31640625 142.37573242 C1.28064453 142.37460449 0.24488281 142.37347656 -0.82226562 142.37231445 C-3.21484375 142.24291992 -3.21484375 142.24291992 -4.21484375 141.24291992 C-4.31559798 139.45060495 -4.3456115 137.65428837 -4.34855652 135.85914612 C-4.35495399 134.10706848 -4.35495399 134.10706848 -4.36148071 132.31959534 C-4.36102753 131.02658005 -4.36057434 129.73356476 -4.36010742 128.40136719 C-4.36309737 127.03502307 -4.36649952 125.66867979 -4.37028503 124.30233765 C-4.37914599 120.58130237 -4.38146402 116.86029007 -4.38210082 113.13924527 C-4.3830482 110.03769147 -4.38672451 106.93614306 -4.39027292 103.83459133 C-4.39842545 96.51977036 -4.40085642 89.20496171 -4.40014648 81.89013672 C-4.39954548 74.33352655 -4.41009994 66.77698773 -4.42589015 59.22039562 C-4.43894662 52.74226276 -4.44433118 46.26415327 -4.44369107 39.78600734 C-4.44343553 35.91266211 -4.4463178 32.03938023 -4.45686913 28.16604805 C-4.46651837 24.52420619 -4.46665128 20.88248867 -4.45935249 17.24064255 C-4.45780063 15.26101331 -4.46617551 13.28138417 -4.47479248 11.30177307 C-4.47059799 10.13090149 -4.4664035 8.96002991 -4.46208191 7.75367737 C-4.46262668 6.73178597 -4.46317144 5.70989458 -4.46373272 4.65703678 C-4.12945826 1.41471712 -3.28058638 0.35980858 0 0 Z " fill="#010001" transform="translate(1052.21484375,43.757080078125)"/>
<path d="M0 0 C2.85723315 2.63166212 3.87277368 4.22073881 4.5 8.0625 C3.88116398 11.69816161 2.71748419 12.59308543 0 15 C-0.495 15.886875 -0.99 16.77375 -1.5 17.6875 C-3 20 -3 20 -5.1875 20.8125 C-5.785625 20.874375 -6.38375 20.93625 -7 21 C-7.433125 19.9275 -7.86625 18.855 -8.3125 17.75 C-9.29314648 15.40395579 -10.05434765 13.9378884 -11.75 12 C-13 10 -13 10 -12.875 6.4375 C-11.7147708 1.87945671 -11.7147708 1.87945671 -9 0 C-5.39297148 -1.20234284 -3.64185324 -1.0405295 0 0 Z M-7 6 C-6.67 7.32 -6.34 8.64 -6 10 C-4.68 9.67 -3.36 9.34 -2 9 C-2.66 7.68 -3.32 6.36 -4 5 C-5.2236068 4.9254644 -5.2236068 4.9254644 -7 6 Z " fill="#040305" transform="translate(104,113)"/>
<path d="M0 0 C0.66 0 1.32 0 2 0 C3.18178844 9.74364772 3.14613161 19.44204662 3.1328125 29.23828125 C3.13348832 31.00831617 3.13446065 32.77835101 3.13571167 34.54838562 C3.1371798 38.25077197 3.13506551 41.95313407 3.13037109 45.65551758 C3.12471975 50.33392348 3.12801416 55.0122719 3.13382339 59.69067574 C3.172577 96.69150566 3.172577 96.69150566 2 115 C1.34 115 0.68 115 0 115 C0 77.05 0 39.1 0 0 Z " fill="#0E0E0E" transform="translate(991,45)"/>
<path d="M0 0 C1.11761719 -0.00515625 2.23523438 -0.0103125 3.38671875 -0.015625 C6.3125 0.25 6.3125 0.25 9.3125 2.25 C2.7125 2.58 -3.8875 2.91 -10.6875 3.25 C-11.0175 48.46 -11.3475 93.67 -11.6875 140.25 C-12.0175 140.25 -12.3475 140.25 -12.6875 140.25 C-12.6875 94.71 -12.6875 49.17 -12.6875 2.25 C-7.70537739 0.58929246 -5.02413621 -0.02334093 0 0 Z " fill="#0C0B0C" transform="translate(305.6875,43.75)"/>
<path d="M0 0 C0.99 0.495 0.99 0.495 2 1 C2.17203395 7.80517926 2.33108784 14.61058371 2.48217773 21.41625977 C2.53470642 23.71905995 2.58993383 26.02180057 2.64819336 28.32446289 C3.05739371 44.59640373 2.8604074 60.74453613 2 77 C-0.34045567 73.31343636 -0.24188179 70.14571906 -0.22705078 65.84472656 C-0.22734283 65.13213181 -0.22763489 64.41953705 -0.22793579 63.68534851 C-0.22654577 61.33698219 -0.21100022 58.98893569 -0.1953125 56.640625 C-0.1915812 55.00966566 -0.18873478 53.37870408 -0.18673706 51.7477417 C-0.1791098 47.46020289 -0.15946912 43.1728001 -0.1373291 38.88531494 C-0.11685112 34.50819743 -0.10773117 30.13105788 -0.09765625 25.75390625 C-0.07622235 17.16920849 -0.04209739 8.58462118 0 0 Z " fill="#100F0F" transform="translate(147,32)"/>
<path d="M0 0 C0.66 0 1.32 0 2 0 C3.18107421 6.5020383 3.12737969 12.90181112 3.09765625 19.49609375 C3.0962413 20.68477554 3.09482635 21.87345734 3.09336853 23.09815979 C3.08779114 26.87796594 3.07524275 30.65771189 3.0625 34.4375 C3.05748208 37.0071606 3.05291968 39.57682213 3.04882812 42.14648438 C3.03782911 48.43100997 3.0211135 54.71550068 3 61 C1.02 61.495 1.02 61.495 -1 62 C-0.01 61.505 -0.01 61.505 1 61 C0.67 60.34 0.34 59.68 0 59 C-0.09110781 57.12080452 -0.11752837 55.23833208 -0.11352539 53.35693359 C-0.11344986 52.17586029 -0.11337433 50.99478699 -0.11329651 49.77792358 C-0.10813522 48.49769318 -0.10297394 47.21746277 -0.09765625 45.8984375 C-0.0962413 44.59170074 -0.09482635 43.28496399 -0.09336853 41.93862915 C-0.08954894 38.46323742 -0.07972342 34.98788743 -0.06866455 31.51251221 C-0.05843843 27.96668055 -0.05386833 24.42084215 -0.04882812 20.875 C-0.03810066 13.91664951 -0.02103092 6.95832676 0 0 Z " fill="#100E10" transform="translate(78,77)"/>
<path d="M0 0 C0.66 0 1.32 0 2 0 C2.0270491 3.06255961 2.04686298 6.1248786 2.0625 9.1875 C2.07087891 10.05181641 2.07925781 10.91613281 2.08789062 11.80664062 C2.09111328 12.64775391 2.09433594 13.48886719 2.09765625 14.35546875 C2.10289307 15.12528076 2.10812988 15.89509277 2.11352539 16.68823242 C2 19 2 19 1 24 C-16.16 24 -33.32 24 -51 24 C-51 23.67 -51 23.34 -51 23 C-34.17 23 -17.34 23 0 23 C-0.495 22.01 -0.495 22.01 -1 21 C-1.09504525 19.5753972 -1.1307286 18.14651833 -1.1328125 16.71875 C-1.13410156 15.87699219 -1.13539062 15.03523437 -1.13671875 14.16796875 C-1.13285156 13.28753906 -1.12898438 12.40710938 -1.125 11.5 C-1.13080078 10.17935547 -1.13080078 10.17935547 -1.13671875 8.83203125 C-1.13542969 7.99027344 -1.13414063 7.14851562 -1.1328125 6.28125 C-1.13168457 5.50845703 -1.13055664 4.73566406 -1.12939453 3.93945312 C-1 2 -1 2 0 0 Z " fill="#090909" transform="translate(1034,162)"/>
<path d="M0 0 C2.97 0.495 2.97 0.495 6 1 C6 1.33 6 1.66 6 2 C4.02 2 2.04 2 0 2 C0.00666183 2.54679413 0.01332367 3.09358826 0.02018738 3.6569519 C0.08641995 9.33422989 0.13174995 15.01139864 0.16479492 20.68896484 C0.17990645 22.80945288 0.2003964 24.92990954 0.22631836 27.05029297 C0.26259786 30.09350311 0.27970242 33.13630103 0.29296875 36.1796875 C0.30845261 37.13181122 0.32393646 38.08393494 0.33988953 39.06491089 C0.34011612 39.94567291 0.34034271 40.82643494 0.34057617 41.73388672 C0.34723801 42.51110077 0.35389984 43.28831482 0.36076355 44.08908081 C0.24171158 44.71968414 0.12265961 45.35028748 0 46 C-0.99 46.66 -1.98 47.32 -3 48 C-2.7215625 46.576875 -2.7215625 46.576875 -2.4375 45.125 C-1.71313368 42.10131207 -1.71313368 42.10131207 -3 40 C-3.0408956 37.4295529 -3.0213003 34.8920039 -2.94921875 32.32421875 C-2.9303511 31.56204544 -2.91148346 30.79987213 -2.89204407 30.01460266 C-2.85013342 28.39971668 -2.80539313 26.78490206 -2.75805664 25.17016602 C-2.68808225 22.70798747 -2.63359648 20.24578728 -2.58007812 17.78320312 C-2.53740827 16.21351556 -2.49381808 14.64385268 -2.44921875 13.07421875 C-2.43453049 12.34071701 -2.41984222 11.60721527 -2.40470886 10.85148621 C-2.27073439 6.82661511 -1.76916536 3.63209959 0 0 Z " fill="#0D0D0E" transform="translate(132,33)"/>
<path d="M0 0 C0.33 0 0.66 0 1 0 C1 14.52 1 29.04 1 44 C-0.485 44.495 -0.485 44.495 -2 45 C-1.88269497 38.75188831 -1.75785931 32.50396027 -1.62768555 26.25610352 C-1.58426577 24.12885993 -1.54259607 22.0015799 -1.50268555 19.87426758 C-1.44515293 16.82361849 -1.38141033 13.77315411 -1.31640625 10.72265625 C-1.29969376 9.76537125 -1.28298126 8.80808624 -1.26576233 7.8217926 C-1.24581711 6.94095505 -1.22587189 6.06011749 -1.20532227 5.15258789 C-1.18977798 4.37315323 -1.1742337 3.59371857 -1.15821838 2.79066467 C-1 1 -1 1 0 0 Z " fill="#0C090D" transform="translate(127,33)"/>
<path d="M0 0 C1.08438354 -0.00676758 1.08438354 -0.00676758 2.19067383 -0.01367188 C6.1434184 -0.00216322 9.87133498 0.36613076 13.75 1.125 C13.75 1.455 13.75 1.785 13.75 2.125 C-5.99308753 3.2659647 -25.50962574 2.93723223 -45.25 2.125 C-45.25 1.795 -45.25 1.465 -45.25 1.125 C-11.57943225 0.02878964 -11.57943225 0.02878964 0 0 Z " fill="#090709" transform="translate(444.25,43.875)"/>
<path d="M0 0 C2.574325 2.574325 2.24775746 4.30712646 2.27789307 7.81652832 C2.2738446 8.60926147 2.26979614 9.40199463 2.265625 10.21875 C2.26753845 11.03243042 2.2694519 11.84611084 2.27142334 12.68444824 C2.27278527 14.406009 2.26908828 16.12758003 2.26074219 17.84912109 C2.25004258 20.4894917 2.260637 23.12918189 2.2734375 25.76953125 C2.27211591 27.44010567 2.26955352 29.11067967 2.265625 30.78125 C2.26967346 31.57398315 2.27372192 32.36671631 2.27789307 33.18347168 C2.22992027 38.77007973 2.22992027 38.77007973 0 41 C-1.14843858 36.52611636 -1.04131966 32.21233628 -0.87890625 27.63671875 C-0.84348976 26.44874443 -0.84348976 26.44874443 -0.80735779 25.23677063 C-0.73110306 22.72014719 -0.64691584 20.20386159 -0.5625 17.6875 C-0.50924101 15.9759277 -0.4565009 14.26433917 -0.40429688 12.55273438 C-0.27553999 8.36827776 -0.13967078 4.18410597 0 0 Z " fill="#0C0B0D" transform="translate(574,46)"/>
<path d="M0 0 C0.66 0 1.32 0 2 0 C2.15130716 12.03732485 1.68944522 23.98395472 1 36 C-1.39768972 32.40346542 -1.24541926 30.77476734 -1.23046875 26.50390625 C-1.22853516 25.22322266 -1.22660156 23.94253906 -1.22460938 22.62304688 C-1.21840576 21.956521 -1.21220215 21.28999512 -1.20581055 20.60327148 C-1.18759669 18.57327668 -1.18530072 16.54373975 -1.18554688 14.51367188 C-1.13653337 3.68168791 -1.13653337 3.68168791 0 0 Z " fill="#0D0C0F" transform="translate(111,34)"/>
<path d="M0 0 C-1 3 -1 3 -4 5 C-4.41428346 6.93076478 -4.41428346 6.93076478 -4.29296875 9.1328125 C-4.28330078 9.93847656 -4.27363281 10.74414062 -4.26367188 11.57421875 C-4.2259668 12.83685547 -4.2259668 12.83685547 -4.1875 14.125 C-4.17396484 14.97449219 -4.16042969 15.82398437 -4.14648438 16.69921875 C-4.11108219 18.79974837 -4.05727401 20.89995293 -4 23 C-4.99 22.67 -5.98 22.34 -7 22 C-8.18681726 18.43954823 -8.09689832 15.56191663 -8.0625 11.8125 C-8.05347656 10.54019531 -8.04445313 9.26789063 -8.03515625 7.95703125 C-8.02355469 6.98121094 -8.01195313 6.00539063 -8 5 C-7.01 4.67 -6.02 4.34 -5 4 C-5 3.34 -5 2.68 -5 2 C-2 0 -2 0 0 0 Z " fill="#0C0C0D" transform="translate(129,81)"/>
<path d="M0 0 C0.33 0 0.66 0 1 0 C1.33 6.93 1.66 13.86 2 21 C2.33 21 2.66 21 3 21 C3 25.29 3 29.58 3 34 C1.02 34.495 1.02 34.495 -1 35 C-0.01 34.505 -0.01 34.505 1 34 C0.67 33.34 0.34 32.68 0 32 C-0.08639869 29.59161322 -0.11567764 27.21266119 -0.09765625 24.8046875 C-0.0962413 24.09724396 -0.09482635 23.38980042 -0.09336853 22.66091919 C-0.087766 20.39890331 -0.07521318 18.13698602 -0.0625 15.875 C-0.05748532 14.34244935 -0.05292236 12.80989714 -0.04882812 11.27734375 C-0.03779577 7.51819112 -0.02052952 3.75911228 0 0 Z " fill="#0A080A" transform="translate(78,104)"/>
<path d="M0 0 C0.66 0.33 1.32 0.66 2 1 C1.40832031 1.56847656 0.81664062 2.13695312 0.20703125 2.72265625 C-4.4031189 7.22751749 -8.4500345 11.61779425 -12 17 C-12.33 16.34 -12.66 15.68 -13 15 C-9.30620592 8.91132843 -5.6249793 4.38748386 0 0 Z " fill="#080507" transform="translate(216,49)"/>
<path d="M0 0 C1.2077558 3.62326739 0.54311128 4.64146369 -1 8 C-1.66 8 -2.32 8 -3 8 C-3.061875 8.721875 -3.12375 9.44375 -3.1875 10.1875 C-4.24456647 13.84657625 -6.20550071 15.49211602 -9 18 C-7.51800377 14.13392289 -5.79247064 10.45082594 -3.9375 6.75 C-3.41027344 5.69296875 -2.88304687 4.6359375 -2.33984375 3.546875 C-1 1 -1 1 0 0 Z " fill="#0D080C" transform="translate(783,110)"/>
<path d="M0 0 C0.66 0.33 1.32 0.66 2 1 C2 5.95 2 10.9 2 16 C1.34 16.33 0.68 16.66 0 17 C-1.40333568 11.23073111 -0.67296616 5.81856895 0 0 Z " fill="#09070A" transform="translate(967,112)"/>
<path d="M0 0 C0.66 0 1.32 0 2 0 C3.91384609 3.50871784 4.04276246 4.81367786 3.125 8.8125 C2.75375 9.864375 2.3825 10.91625 2 12 C1.67 12 1.34 12 1 12 C0.01751476 7.9472484 -0.08159574 4.16138263 0 0 Z " fill="#070508" transform="translate(915,99)"/>
<path d="M0 0 C0.33 0 0.66 0 1 0 C1.46174018 4.57617505 0.21158892 6.6809077 -2.5 10.3125 C-3.1496875 11.19550781 -3.799375 12.07851562 -4.46875 12.98828125 C-4.9740625 13.65214844 -5.479375 14.31601563 -6 15 C-6.33 14.34 -6.66 13.68 -7 13 C-5.92325298 10.71741367 -4.80453884 8.5643566 -3.5625 6.375 C-3.22412109 5.76398438 -2.88574219 5.15296875 -2.53710938 4.5234375 C-1.69853808 3.011647 -0.85017423 1.50529601 0 0 Z " fill="#0D090D" transform="translate(791,94)"/>
<path d="M0 0 C1 2 1 2 0.3125 4.25 C-1.18526213 7.38816827 -3.01250158 10.15125227 -5 13 C-6 10 -6 10 -5.29296875 8.02734375 C-4.92816406 7.33769531 -4.56335938 6.64804688 -4.1875 5.9375 C-3.83042969 5.24527344 -3.47335937 4.55304687 -3.10546875 3.83984375 C-2 2 -2 2 0 0 Z " fill="#0C0A0C" transform="translate(677,58)"/>
<path d="M0 0 C0.33 0.99 0.66 1.98 1 3 C0.01 3.66 -0.98 4.32 -2 5 C-2.04165763 6.99956611 -2.04165763 9.00043389 -2 11 C-2.66 11.66 -3.32 12.32 -4 13 C-5.56659619 6.97463002 -5.56659619 6.97463002 -3.953125 4.19921875 C-2.70838944 2.73420696 -1.35934288 1.35934288 0 0 Z " fill="#0E0B0D" transform="translate(88,92)"/>
<path d="M0 0 C1.60407328 -0.02708567 3.2082785 -0.04643483 4.8125 -0.0625 C5.70582031 -0.07410156 6.59914063 -0.08570313 7.51953125 -0.09765625 C10 0 10 0 13 1 C12.67 1.66 12.34 2.32 12 3 C8.04 2.67 4.08 2.34 0 2 C0 1.34 0 0.68 0 0 Z " fill="#060507" transform="translate(355,44)"/>
<path d="M0 0 C0.66 0.33 1.32 0.66 2 1 C1.09276387 5.68738665 0.0452733 10.34193744 -1 15 C-1.33 15 -1.66 15 -2 15 C-1.85816304 13.24967156 -1.71136571 11.49974466 -1.5625 9.75 C-1.48128906 8.77546875 -1.40007813 7.8009375 -1.31640625 6.796875 C-1.04925416 4.43538247 -0.64628032 2.28098935 0 0 Z " fill="#120C0E" transform="translate(896,50)"/>
<path d="M0 0 C0.66 0 1.32 0 2 0 C2.33 3.63 2.66 7.26 3 11 C2.01 10.67 1.02 10.34 0 10 C0 6.7 0 3.4 0 0 Z " fill="#0B0A0A" transform="translate(991,45)"/>
<path d="M0 0 C0.66 0.33 1.32 0.66 2 1 C0.4198632 3.15473199 -1.10646634 5.10646634 -3 7 C-3.64767793 9.57061311 -3.64767793 9.57061311 -4 12 C-4.33 12 -4.66 12 -5 12 C-5.35338623 9.03155565 -5.5417682 6.84401782 -3.88671875 4.265625 C-2.64496832 2.79651181 -1.32662082 1.39295186 0 0 Z " fill="#0B080E" transform="translate(122,79)"/>
<path d="M0 0 C1.65 0 3.3 0 5 0 C4.505 0.391875 4.01 0.78375 3.5 1.1875 C1.54406857 3.55091715 1.75792027 5.01435003 2 8 C1.01 8.33 0.02 8.66 -1 9 C-0.67 6.03 -0.34 3.06 0 0 Z " fill="#0A070A" transform="translate(477,45)"/>
<path d="M0 0 C1.46726798 3.81489674 0.43336419 6.29011622 -1 10 C-1.33 10 -1.66 10 -2 10 C-2.17942163 6.05272412 -2.09350689 3.4019487 0 0 Z " fill="#0B0A0C" transform="translate(202,66)"/>
</svg>
