<?xml version="1.0" encoding="UTF-8"?>
<svg version="1.1" xmlns="http://www.w3.org/2000/svg" width="1500" height="320">
<path d="M0 0 C423.06 0 846.12 0 1282 0 C1282 105.6 1282 211.2 1282 320 C858.94 320 435.88 320 0 320 C0 214.4 0 108.8 0 0 Z " fill="#0B0317" transform="translate(109,0)"/>
<path d="M0 0 C3.3843881 2.85804469 6.57834547 5.79958965 9.51171875 9.12109375 C10.18976563 9.88421875 10.8678125 10.64734375 11.56640625 11.43359375 C13.71393866 14.40046584 14.6706431 16.92804001 15.69921875 20.43359375 C16.02277344 21.50222656 16.34632813 22.57085937 16.6796875 23.671875 C18.25678592 30.20979944 18.66359463 36.64506814 18.6887207 43.3503418 C18.6952919 44.13042099 18.7018631 44.91050018 18.70863342 45.71421814 C18.72818286 48.27041758 18.73998759 50.8265588 18.75 53.3828125 C18.75407553 54.26392008 18.75815105 55.14502766 18.76235008 56.05283546 C18.78313264 60.71678042 18.79746795 65.38069664 18.80688477 70.04467773 C18.81793362 74.82781775 18.85233858 79.61049065 18.89205647 84.393466 C18.91836311 88.10240974 18.92658897 91.81124441 18.93016624 95.52027321 C18.93499584 97.28190071 18.94650435 99.04352456 18.96520424 100.80505943 C19.13382125 117.74076171 16.39653142 132.04465776 4.19921875 144.80859375 C1.51171875 147.12109375 1.51171875 147.12109375 -0.48828125 147.12109375 C-0.81828125 148.11109375 -1.14828125 149.10109375 -1.48828125 150.12109375 C-3.13380087 150.83837153 -4.80250414 151.50434603 -6.48828125 152.12109375 C-7.14828125 152.78109375 -7.80828125 153.44109375 -8.48828125 154.12109375 C-18.24467277 158.86862355 -32.28700364 158.92516047 -42.48828125 155.55859375 C-51.49980859 151.61950588 -58.48532633 145.84372807 -64.48828125 138.12109375 C-65.00261719 137.49976563 -65.51695312 136.8784375 -66.046875 136.23828125 C-67.75274713 133.7326371 -68.64099484 131.3006903 -69.61328125 128.43359375 C-70.58417043 125.00408119 -70.58417043 125.00408119 -72.48828125 122.12109375 C-72.59948684 119.35428089 -72.64567956 116.61220318 -72.64941406 113.84448242 C-72.65437897 112.97603699 -72.65934387 112.10759155 -72.66445923 111.21282959 C-72.67913513 108.32156595 -72.6858957 105.43035737 -72.69140625 102.5390625 C-72.69715809 100.52899677 -72.70291582 98.51893105 -72.7086792 96.50886536 C-72.71920789 92.28105412 -72.72503671 88.05326197 -72.72851562 83.82543945 C-72.73397091 78.43339364 -72.75792698 73.04160412 -72.78648758 67.64963818 C-72.80521612 63.48949987 -72.81032521 59.32942165 -72.8118515 55.16924477 C-72.81486113 53.18352181 -72.8228319 51.19779948 -72.83603668 49.21211815 C-72.9400599 32.35041677 -71.99227493 16.82710459 -59.92578125 3.87109375 C-43.40663114 -11.78640174 -18.10885791 -14.07892662 0 0 Z " fill="#FAFAFA" transform="translate(958.48828125,83.87890625)"/>
<path d="M0 0 C68.34883721 0 68.34883721 0 83 14 C92.19829242 24.69676111 95.58737053 35.39516661 95.30078125 49.453125 C94.48941712 59.02089941 90.70884705 66.20462015 84.91040039 73.63696289 C82.61535998 76.5427691 82.61535998 76.5427691 82.05859375 80.08203125 C83.19324246 82.39370144 84.47514578 84.52503863 85.875 86.6875 C92.27437209 97.10758069 93.15443531 107.12509834 93.1328125 119.14453125 C93.13376923 120.31006027 93.13472595 121.47558929 93.13571167 122.67643738 C93.13639057 125.13154149 93.13455656 127.58664741 93.13037109 130.04174805 C93.12499461 133.81628391 93.13033829 137.59070208 93.13671875 141.36523438 C93.13605839 143.75000026 93.13477811 146.13476608 93.1328125 148.51953125 C93.13483673 149.65485794 93.13686096 150.79018463 93.13894653 151.95991516 C93.13421829 153.52240242 93.13421829 153.52240242 93.12939453 155.11645508 C93.12859894 156.03767654 93.12780334 156.95889801 93.12698364 157.90803528 C93 160 93 160 92 161 C89.9394469 161.09993532 87.8754741 161.13080906 85.8125 161.1328125 C84.55695313 161.13410156 83.30140625 161.13539063 82.0078125 161.13671875 C81.35071289 161.13462402 80.69361328 161.1325293 80.01660156 161.13037109 C78.00838665 161.12502234 76.00039541 161.13031691 73.9921875 161.13671875 C72.10886719 161.13478516 72.10886719 161.13478516 70.1875 161.1328125 C69.02605469 161.13168457 67.86460937 161.13055664 66.66796875 161.12939453 C64 161 64 161 63 160 C62.88782713 158.48285815 62.84326283 156.9606429 62.82641602 155.43945312 C62.81292618 154.46754028 62.79943634 153.49562744 62.78553772 152.4942627 C62.77509933 151.43396851 62.76466095 150.37367432 62.75390625 149.28125 C62.7209412 147.04687147 62.68773004 144.81249657 62.65429688 142.578125 C62.60705615 139.04755391 62.56269011 135.51699461 62.52319336 131.98632812 C62.48323062 128.58446979 62.43171522 125.18292988 62.37890625 121.78125 C62.3704921 120.73714966 62.36207794 119.69304932 62.35340881 118.61730957 C62.35110455 108.22002101 62.35110455 108.22002101 58.44921875 98.87890625 C57.86785156 98.44449219 57.28648437 98.01007813 56.6875 97.5625 C56.11386719 97.11003906 55.54023437 96.65757812 54.94921875 96.19140625 C46.315555 90.91431719 40.56748961 92.60881524 29 92 C29 114.44 29 136.88 29 160 C19.43 160 9.86 160 0 160 C0 107.2 0 54.4 0 0 Z " fill="#FBFBFB" transform="translate(776,78)"/>
<path d="M0 0 C1.21042969 -0.00128906 2.42085937 -0.00257812 3.66796875 -0.00390625 C4.94285156 -0.00003906 6.21773437 0.00382812 7.53125 0.0078125 C9.44357422 0.00201172 9.44357422 0.00201172 11.39453125 -0.00390625 C13.21017578 -0.00197266 13.21017578 -0.00197266 15.0625 0 C16.18205078 0.00112793 17.30160156 0.00225586 18.45507812 0.00341797 C21.03125 0.1328125 21.03125 0.1328125 22.03125 1.1328125 C22.12808581 3.20842056 22.15311902 5.28738454 22.15150452 7.36524963 C22.15235894 8.02355599 22.15321337 8.68186234 22.15409368 9.36011738 C22.1557503 11.58198356 22.15022418 13.80377545 22.14477539 16.02563477 C22.14449353 17.61196898 22.14465123 19.19830332 22.1452179 20.78463745 C22.14550592 25.10469972 22.13960837 29.42473447 22.13264394 33.74479032 C22.12641125 38.25449565 22.12580667 42.76420155 22.12461853 47.27391052 C22.12150496 55.81975624 22.11329124 64.36558924 22.10326904 72.91142935 C22.09210869 82.63798883 22.08659765 92.36454892 22.08157361 102.09111321 C22.07110864 122.10502009 22.05350871 142.11891549 22.03125 162.1328125 C18.06194011 162.15747131 14.09265966 162.17565273 10.12329102 162.18774414 C8.77204614 162.19278307 7.42080674 162.19961427 6.06958008 162.20825195 C4.13104566 162.22033669 2.192472 162.22551078 0.25390625 162.23046875 C-0.91390381 162.23570557 -2.08171387 162.24094238 -3.28491211 162.24633789 C-5.96875 162.1328125 -5.96875 162.1328125 -6.96875 161.1328125 C-7.0629674 159.01599933 -7.08617761 156.89600492 -7.08227539 154.77709961 C-7.08242142 154.11371078 -7.08256744 153.45032196 -7.0827179 152.76683044 C-7.08201881 150.56457294 -7.07422665 148.36239905 -7.06640625 146.16015625 C-7.06454206 144.63700914 -7.06311816 143.11386143 -7.06211853 141.5907135 C-7.05829346 137.57443599 -7.04846328 133.55819442 -7.03741455 129.54193115 C-7.0254055 124.72701511 -7.02079814 119.91208706 -7.01496124 115.09716034 C-7.00525151 107.77568603 -6.98609491 100.45429065 -6.96875 93.1328125 C-17.85875 93.1328125 -28.74875 93.1328125 -39.96875 93.1328125 C-39.95714844 98.02996094 -39.94554687 102.92710937 -39.93359375 107.97265625 C-39.92848685 111.06705861 -39.92367306 114.1614558 -39.91992188 117.25585938 C-39.91393399 122.17213006 -39.90683516 127.08838219 -39.89331055 132.00463867 C-39.88247975 135.96628078 -39.87647276 139.92790302 -39.87387276 143.88955879 C-39.87201886 145.40429561 -39.8683989 146.91903129 -39.86301994 148.43375969 C-39.85580693 150.54823063 -39.85475917 152.66261844 -39.85522461 154.77709961 C-39.853004 155.98289169 -39.85078339 157.18868378 -39.84849548 158.43101501 C-39.96875 161.1328125 -39.96875 161.1328125 -40.96875 162.1328125 C-50.20875 162.1328125 -59.44875 162.1328125 -68.96875 162.1328125 C-68.96875 109.0028125 -68.96875 55.8728125 -68.96875 1.1328125 C-59.39875 1.1328125 -49.82875 1.1328125 -39.96875 1.1328125 C-39.96875 21.9228125 -39.96875 42.7128125 -39.96875 64.1328125 C-29.07875 64.1328125 -18.18875 64.1328125 -6.96875 64.1328125 C-6.98035156 59.59660156 -6.99195313 55.06039062 -7.00390625 50.38671875 C-7.00901323 47.52018087 -7.01382701 44.65364856 -7.01757812 41.78710938 C-7.02356573 37.23297975 -7.03066383 32.67887015 -7.04418945 28.12475586 C-7.0550212 24.45488706 -7.06102744 20.78503972 -7.06362724 17.11515617 C-7.06548097 15.71206258 -7.0691006 14.30897021 -7.07448006 12.9058857 C-7.08169419 10.9471157 -7.08215809 8.9883243 -7.08227539 7.02954102 C-7.084496 5.91257339 -7.08671661 4.79560577 -7.08900452 3.64479065 C-6.8607966 -1.12220948 -4.16454034 0.00419571 0 0 Z " fill="#F9F9FA" transform="translate(732.96875,76.8671875)"/>
<path d="M0 0 C9.24 0 18.48 0 28 0 C29 1 29 1 29.12025452 3.51197815 C29.1169236 5.18742958 29.1169236 5.18742958 29.11352539 6.89672852 C29.11344986 8.15796036 29.11337433 9.4191922 29.11329651 10.71864319 C29.1081891 12.10539794 29.10297309 13.49215229 29.09765625 14.87890625 C29.09579201 16.28995209 29.09436814 17.70099857 29.09336853 19.11204529 C29.08954379 22.83240535 29.0797139 26.5527266 29.06866455 30.27307129 C29.05665461 34.73339791 29.05204798 39.19373748 29.04621124 43.65407562 C29.0365021 50.43607744 29.01734528 57.21799403 29 64 C39.89 64 50.78 64 62 64 C62 43.21 62 22.42 62 1 C71.57 1 81.14 1 91 1 C91 54.13 91 107.26 91 162 C81.76 162 72.52 162 63 162 C62 161 62 161 61.87974548 158.29820251 C61.88196609 157.09241043 61.88418671 155.88661835 61.88647461 154.64428711 C61.88632858 153.98089828 61.88618256 153.31750946 61.8860321 152.63401794 C61.88673119 150.43176044 61.89452335 148.22958655 61.90234375 146.02734375 C61.90420794 144.50419664 61.90563184 142.98104893 61.90663147 141.457901 C61.91045654 137.44162349 61.92028672 133.42538192 61.93133545 129.40911865 C61.9433445 124.59420261 61.94795186 119.77927456 61.95378876 114.96434784 C61.96349849 107.64287353 61.98265509 100.32147815 62 93 C51.11 93 40.22 93 29 93 C29 115.44 29 137.88 29 161 C19.43 161 9.86 161 0 161 C0 107.87 0 54.74 0 0 Z " fill="#F9F9FA" transform="translate(453,77)"/>
<path d="M0 0 C0.77085938 0.00091141 1.54171875 0.00182281 2.3359375 0.00276184 C3.12742187 -0.00152328 3.91890625 -0.00580841 4.734375 -0.01022339 C6.40884443 -0.01596989 8.08333882 -0.01646459 9.7578125 -0.01213074 C12.32595162 -0.0089692 14.8929408 -0.03243001 17.4609375 -0.05778503 C19.08593604 -0.06005777 20.71093769 -0.06076164 22.3359375 -0.05973816 C23.49222656 -0.07355278 23.49222656 -0.07355278 24.671875 -0.08764648 C26.8359375 -0.06877136 26.8359375 -0.06877136 30.3359375 0.30354309 C32.73188805 3.89746892 33.1877426 7.19152699 33.8359375 11.36604309 C33.96484375 12.16461731 34.09375 12.96319153 34.2265625 13.78596497 C35.20334761 20.01297001 35.92292995 26.25196582 36.56201172 32.52131653 C37.22889743 38.85742403 38.23538554 45.11168728 39.37109375 51.37971497 C40.02666311 55.06644784 40.49791656 58.55593674 40.3359375 62.30354309 C40.9959375 62.30354309 41.6559375 62.30354309 42.3359375 62.30354309 C49.29285216 99.18058867 49.29285216 99.18058867 49.3359375 114.30354309 C49.9959375 114.30354309 50.6559375 114.30354309 51.3359375 114.30354309 C51.67478788 116.82374281 52.00714085 119.34452825 52.3359375 121.86604309 C52.43132812 122.57051575 52.52671875 123.2749884 52.625 124.00080872 C53.20260167 128.47722165 53.43083133 132.79015547 53.3359375 137.30354309 C53.9959375 137.30354309 54.6559375 137.30354309 55.3359375 137.30354309 C55.84661142 139.78091954 56.34456367 142.2598266 56.8359375 144.74104309 C56.97902344 145.42875793 57.12210938 146.11647278 57.26953125 146.82502747 C58.3282467 152.24464228 58.3359375 156.58071896 58.3359375 162.30354309 C48.7659375 162.30354309 39.1959375 162.30354309 29.3359375 162.30354309 C26.3359375 150.30354309 26.3359375 150.30354309 26.3359375 144.30354309 C16.7659375 144.30354309 7.1959375 144.30354309 -2.6640625 144.30354309 C-3.28131243 149.47859812 -3.28131243 149.47859812 -3.89038086 154.65461731 C-4.55295139 160.08132087 -4.55295139 160.08132087 -5.6640625 162.30354309 C-14.9040625 162.30354309 -24.1440625 162.30354309 -33.6640625 162.30354309 C-33.6640625 153.30349868 -33.6640625 153.30349868 -33.11720276 150.32368469 C-32.99560067 149.64170769 -32.87399858 148.95973068 -32.74871159 148.25708771 C-32.61322124 147.53829689 -32.47773088 146.81950607 -32.33813477 146.07893372 C-32.19637282 145.29566963 -32.05461088 144.51240555 -31.90855312 143.70540619 C-31.43926286 141.12225368 -30.95995907 138.54107002 -30.48046875 135.95979309 C-30.14532977 134.1276246 -29.81078819 132.29534675 -29.47680664 130.46296692 C-28.76814109 126.5827852 -28.05496264 122.70347096 -27.33816528 118.82478333 C-26.22361261 112.79369756 -25.120083 106.76062432 -24.01733398 100.72737122 C-20.94326682 83.92998424 -17.84542814 67.13753756 -14.6328125 50.36604309 C-14.41882309 49.2448407 -14.20483368 48.12363831 -13.98435974 46.96846008 C-13.05054131 42.08051619 -12.10723002 37.19492441 -11.14086914 32.31330872 C-9.3810724 23.26962476 -8.22147042 14.53199565 -7.95288086 5.31330872 C-7.43091623 -0.12606567 -4.87653483 0.06508969 0 0 Z " fill="#F9F9F9" transform="translate(1154.6640625,76.69645690917969)"/>
<path d="M0 0 C16.04180912 -0.51562958 25.91072418 4.83592157 37.265625 15.4765625 C45.23878185 23.79442349 48.99364644 33.37971172 48.94140625 44.8203125 C48.93890869 45.94477783 48.93641113 47.06924316 48.93383789 48.2277832 C48.92473389 49.64406006 48.91562988 51.06033691 48.90625 52.51953125 C48.885625 57.03640625 48.865 61.55328125 48.84375 66.20703125 C39.27375 66.20703125 29.70375 66.20703125 19.84375 66.20703125 C19.53125 54.08203125 19.53125 54.08203125 19.45581055 50.29248047 C19.22118748 42.32502064 19.22118748 42.32502064 15.84375 35.20703125 C10.66691998 30.53525782 7.45021502 29.85919715 0.609375 29.921875 C-4.2035843 30.41812645 -6.87159029 32.7451771 -9.96875 36.26953125 C-12.1841694 39.8841629 -12.43152399 43.17314628 -12.59375 47.33203125 C-12.68462891 48.94464844 -12.68462891 48.94464844 -12.77734375 50.58984375 C-11.73502803 56.6601856 -8.77914318 61.20489973 -3.87133789 64.95117188 C-1.28565339 66.5479384 1.33671372 67.98964259 4.03125 69.39453125 C5.43963135 70.16458496 5.43963135 70.16458496 6.87646484 70.95019531 C9.52101936 72.39151193 12.17816697 73.80507664 14.84375 75.20703125 C28.93121168 82.65944272 43.09866343 90.84637932 48.21875 106.9609375 C50.80578215 120.39733575 49.3074289 133.47859035 41.90625 145.14453125 C38.18339704 150.32659291 33.83313719 154.26804136 28.84375 158.20703125 C28.40289062 158.696875 27.96203125 159.18671875 27.5078125 159.69140625 C25.43782934 161.57674302 23.45664833 162.34441789 20.84375 163.33203125 C19.544375 163.83089844 19.544375 163.83089844 18.21875 164.33984375 C8.18095246 168.00496061 -5.07562833 167.79613128 -14.87890625 163.4609375 C-18.66221922 161.37784408 -21.92556057 159.07234509 -25.15625 156.20703125 C-25.9090625 155.55863281 -26.661875 154.91023437 -27.4375 154.2421875 C-35.81699568 146.51908565 -41.59836645 136.2465019 -42.3112793 124.69506836 C-42.35188972 122.02930179 -42.3316164 119.37257624 -42.28125 116.70703125 C-42.27222656 115.78921875 -42.26320313 114.87140625 -42.25390625 113.92578125 C-42.23057432 111.68591569 -42.19784235 109.44661942 -42.15625 107.20703125 C-38.18694011 107.18237244 -34.21765966 107.16419102 -30.24829102 107.15209961 C-28.89704614 107.14706068 -27.54580674 107.14022948 -26.19458008 107.1315918 C-24.25604566 107.11950706 -22.317472 107.11433297 -20.37890625 107.109375 C-18.62719116 107.10151978 -18.62719116 107.10151978 -16.84008789 107.09350586 C-14.15625 107.20703125 -14.15625 107.20703125 -13.15625 108.20703125 C-13.06137638 109.99698029 -12.97234655 111.78748737 -12.91723633 113.57910156 C-12.62860134 122.18253392 -12.1239647 128.42825535 -5.53125 134.70703125 C-0.91181871 136.76011182 2.87458282 137.21770932 7.84375 136.20703125 C12.17828565 134.07265619 15.05954735 131.30981623 17.84375 127.39453125 C19.43590016 122.31955263 19.84441173 116.25125285 17.84375 111.20703125 C16.08462991 110.09169159 16.08462991 110.09169159 13.84375 109.20703125 C11.96067846 108.05343787 10.08678836 106.88481254 8.21875 105.70703125 C3.54733171 102.78228758 -1.20135786 100.05712677 -6.04492188 97.42749023 C-20.85070149 89.38320034 -34.14607294 80.02542282 -40.125 63.53515625 C-44.08290645 49.97566191 -43.3747025 36.24001893 -36.96875 23.64453125 C-31.10194309 13.78551845 -22.45169255 5.03876164 -11.3984375 1.265625 C-7.60228819 0.47429942 -3.86313528 0.25339872 0 0 Z " fill="#F9F9FA" transform="translate(386.15625,74.79296875)"/>
<path d="M0 0 C0.70548981 0.00202423 1.41097961 0.00404846 2.1378479 0.00613403 C3.24756454 0.00350555 3.24756454 0.00350555 4.37969971 0.00082397 C6.83686638 -0.00359453 9.29396168 -0.00065657 11.75112915 0.00271606 C13.45124322 0.00204302 15.1513572 0.001073 16.85147095 -0.00018311 C20.41926996 -0.00166008 23.98704398 0.00049445 27.55484009 0.00515747 C32.13851409 0.01085476 36.72212954 0.00757575 41.30580139 0.00158501 C44.81782476 -0.00202063 48.32983414 -0.00088201 51.84185791 0.0017128 C53.53243008 0.00238206 55.22300351 0.00155367 56.91357422 -0.00076675 C59.27222072 -0.00329332 61.6307711 0.00054735 63.9894104 0.00613403 C64.69490021 0.0041098 65.40039001 0.00208557 66.1272583 0 C70.94936644 0.02126585 70.94936644 0.02126585 72.06362915 1.13552856 C72.16356447 3.19608167 72.19443821 5.26005446 72.19644165 7.32302856 C72.19773071 8.57857544 72.19901978 9.83412231 72.2003479 11.12771606 C72.19825317 11.78481567 72.19615845 12.44191528 72.19400024 13.118927 C72.18865149 15.12714191 72.19394606 17.13513316 72.2003479 19.14334106 C72.19905884 20.39888794 72.19776978 21.65443481 72.19644165 22.94802856 C72.19531372 24.10947388 72.19418579 25.27091919 72.19302368 26.46755981 C72.06362915 29.13552856 72.06362915 29.13552856 71.06362915 30.13552856 C69.59008567 30.22856874 68.11212324 30.25299122 66.63565063 30.24905396 C65.69475082 30.24897842 64.75385101 30.24890289 63.78443909 30.24882507 C62.76153275 30.24366379 61.7386264 30.2385025 60.6847229 30.23318481 C59.64292374 30.23176987 58.60112457 30.23035492 57.52775574 30.22889709 C54.18551821 30.22327936 50.84334658 30.21072386 47.50112915 30.19802856 C45.24136449 30.19301585 42.98159878 30.18845255 40.72183228 30.18435669 C35.16905181 30.17415312 29.61641463 30.1545812 24.06362915 30.13552856 C24.06362915 41.35552856 24.06362915 52.57552856 24.06362915 64.13552856 C27.44484009 64.123927 30.82605103 64.11232544 34.3097229 64.10037231 C37.56956895 64.09258282 40.82941398 64.08650545 44.08926392 64.08059692 C46.36205506 64.07555531 48.63484295 64.06872219 50.90762329 64.06008911 C54.16666466 64.04801596 57.42566332 64.04229869 60.6847229 64.03787231 C61.70762924 64.03271103 62.73053558 64.02754974 63.78443909 64.02223206 C64.7253389 64.02215652 65.66623871 64.02208099 66.63565063 64.02200317 C67.46837997 64.01978256 68.30110931 64.01756195 69.15907288 64.01527405 C71.06362915 64.13552856 71.06362915 64.13552856 72.06362915 65.13552856 C72.15130027 67.20814933 72.17058788 69.28373151 72.1612854 71.35818481 C72.15878784 72.49264038 72.15629028 73.62709595 72.15371704 74.79592896 C72.14461304 76.24862183 72.13550903 77.7013147 72.12612915 79.19802856 C72.10550415 83.79740356 72.08487915 88.39677856 72.06362915 93.13552856 C55.89362915 93.13552856 39.72362915 93.13552856 23.06362915 93.13552856 C23.39362915 106.00552856 23.72362915 118.87552856 24.06362915 132.13552856 C39.90362915 132.46552856 55.74362915 132.79552856 72.06362915 133.13552856 C72.06362915 142.70552856 72.06362915 152.27552856 72.06362915 162.13552856 C62.0413475 162.15808017 52.01908258 162.17644399 41.99678135 162.18734074 C37.34351729 162.19256942 32.69027141 162.19966679 28.03701782 162.21096802 C23.55018369 162.22179743 19.06336711 162.22780551 14.57652092 162.23040581 C12.86082622 162.23225996 11.14513254 162.23588039 9.42944527 162.24125862 C7.03478002 162.24846978 4.64018819 162.24951948 2.24551392 162.24905396 C1.52910233 162.25264923 0.81269073 162.25624451 0.0745697 162.25994873 C-4.82231869 162.24958073 -4.82231869 162.24958073 -5.93637085 161.13552856 C-6.03538182 159.07489021 -6.06269403 157.01079997 -6.06335449 154.94778442 C-6.06491448 154.29426719 -6.06647447 153.64074995 -6.06808174 152.96742916 C-6.07209346 150.7617211 -6.06890145 148.55608098 -6.06576538 146.35037231 C-6.06711935 144.77551228 -6.06889925 143.20065257 -6.07107544 141.62579346 C-6.07565034 137.33665827 -6.07385998 133.04754703 -6.07069635 128.75841141 C-6.06817304 124.2798684 -6.07051021 119.80132751 -6.07208252 115.32278442 C-6.0739043 107.8004011 -6.07149768 100.27802759 -6.06674194 92.75564575 C-6.06129931 84.04592192 -6.06306196 75.33622149 -6.06856835 66.62649822 C-6.07309924 59.16240329 -6.07375015 51.69831542 -6.07112968 44.23421955 C-6.06956677 39.77015613 -6.06937352 35.30610373 -6.07266617 30.84204102 C-6.07554453 26.64620741 -6.07356984 22.45040413 -6.06777191 18.25457382 C-6.06644413 16.71016363 -6.06683874 15.16575091 -6.06903458 13.62134171 C-6.07174537 11.52195035 -6.06836587 9.42265768 -6.06335449 7.32327271 C-6.06297747 6.1455983 -6.06260044 4.96792389 -6.06221199 3.75456238 C-5.84532322 -0.75937492 -4.04946106 0.01785842 0 0 Z " fill="#FDFDFE" transform="translate(569.9363708496094,76.86447143554688)"/>
<path d="M0 0 C0.96119247 -0.00817749 1.92238495 -0.01635498 2.91270447 -0.02478027 C6.10512669 -0.04966322 9.29750423 -0.06616111 12.48999023 -0.08056641 C14.12527333 -0.08855192 14.12527333 -0.08855192 15.79359245 -0.09669876 C21.56811699 -0.12344776 27.34261981 -0.14281379 33.1171875 -0.15722656 C39.07350816 -0.17384423 45.02927228 -0.21859334 50.98538303 -0.26959801 C55.57088328 -0.30331478 60.15625244 -0.31480913 64.74186516 -0.32045364 C66.93663708 -0.32715788 69.13140063 -0.34235824 71.32605171 -0.36634445 C74.40662492 -0.39808176 77.48571142 -0.39801906 80.56640625 -0.390625 C81.46598053 -0.40703033 82.36555481 -0.42343567 83.29238892 -0.44033813 C89.80329513 -0.37668666 94.5117661 1.25542926 99.73608398 5.19287109 C103.49382754 9.3500404 103.19231265 13.86303626 103.20361328 19.20239258 C103.2169017 20.10056702 103.23019012 20.99874146 103.24388123 21.9241333 C103.28251288 24.88750067 103.29816099 27.85037741 103.31030273 30.81396484 C103.32502508 32.87752898 103.33990467 34.94109201 103.35493469 37.00465393 C103.38191021 41.32792285 103.39547117 45.65101996 103.40185547 49.97436523 C103.41273564 55.51104805 103.47448294 61.04591305 103.54857159 66.58206081 C103.59695991 70.84322759 103.6093827 75.10395555 103.6119175 79.36537361 C103.61914577 81.40637199 103.63960901 83.44736846 103.67362022 85.48809624 C103.71760078 88.34475821 103.71090072 91.19711177 103.69189453 94.05395508 C103.7159436 94.89414688 103.73999268 95.73433868 103.76477051 96.59999084 C103.69306805 100.26413956 103.52414698 102.35029163 100.9614048 105.09031868 C95.66680504 109.19287109 95.66680504 109.19287109 92.73608398 109.19287109 C92.24108398 60.68287109 92.24108398 60.68287109 91.73608398 11.19287109 C86.78608398 10.69787109 86.78608398 10.69787109 81.73608398 10.19287109 C81.75384888 10.87889908 81.77161377 11.56492706 81.78991699 12.27174377 C81.96719409 19.42553298 82.08768108 26.5786965 82.17553711 33.73413086 C82.21120135 36.40368052 82.27023933 39.06978816 82.33959961 41.73901367 C82.43688251 45.57954222 82.48206879 49.41773965 82.51733398 53.25927734 C82.55862427 54.44807999 82.59991455 55.63688263 82.64245605 56.86170959 C82.64686327 65.03528595 82.64686327 65.03528595 79.93701172 68.47946167 C77.94530564 70.20664255 75.893738 71.68520112 73.73608398 73.19287109 C73.40608398 73.85287109 73.07608398 74.51287109 72.73608398 75.19287109 C72.07608398 75.19287109 71.41608398 75.19287109 70.73608398 75.19287109 C70.73608398 82.12287109 70.73608398 89.05287109 70.73608398 96.19287109 C72.22108398 96.68787109 72.22108398 96.68787109 73.73608398 97.19287109 C76.33931437 99.79610148 77.60171377 101.49115998 78.29858398 105.13037109 C77.5132223 109.40622915 75.92524004 111.27513258 72.73608398 114.19287109 C69.2435267 115.17323805 66.96906805 115.56961622 63.48608398 114.50537109 C61.2858734 112.85521315 60.05494311 111.63276048 58.73608398 109.19287109 C58.35104913 104.80347372 58.26266133 102.90300508 60.73608398 99.19287109 C62.86108398 98.00537109 62.86108398 98.00537109 64.73608398 97.19287109 C64.71924561 96.51297119 64.70240723 95.83307129 64.68505859 95.13256836 C64.34807633 74.36846233 64.34807633 74.36846233 67.77124023 69.66552734 C69.98992829 67.55232366 72.1739398 65.85826481 74.73608398 64.19287109 C75.97948374 61.70607157 75.89435885 59.97490021 75.94140625 57.19238281 C75.96135147 56.15145477 75.98129669 55.11052673 76.00184631 54.03805542 C76.01855881 52.91094147 76.0352713 51.78382751 76.05249023 50.62255859 C76.08366188 48.89551193 76.08366188 48.89551193 76.11546326 47.13357544 C76.18100064 43.44506969 76.23986326 39.75649106 76.29858398 36.06787109 C76.34176521 33.57176972 76.38537937 31.07567579 76.42944336 28.57958984 C76.53668634 22.45075884 76.63794199 16.32185432 76.73608398 10.19287109 C70.13608398 10.19287109 63.53608398 10.19287109 56.73608398 10.19287109 C57.06608398 26.03287109 57.39608398 41.87287109 57.73608398 58.19287109 C59.05608398 58.85287109 60.37608398 59.51287109 61.73608398 60.19287109 C64.09694521 63.73416293 64.30877976 65.02037328 63.73608398 69.19287109 C61.27056674 73.48764306 61.27056674 73.48764306 58.73608398 75.19287109 C55.58779533 75.93232679 52.89173201 75.87118796 49.73608398 75.19287109 C46.3354206 73.06745648 45.85356657 71.62364059 44.79858398 67.75537109 C44.72854244 63.76300323 45.27143145 62.27368676 47.73608398 59.19287109 C48.72608398 58.53287109 49.71608398 57.87287109 50.73608398 57.19287109 C51.15036745 55.26210631 51.15036745 55.26210631 51.02905273 53.06005859 C51.01938477 52.25439453 51.0097168 51.44873047 50.99975586 50.61865234 C50.97461914 49.77689453 50.94948242 48.93513672 50.92358398 48.06787109 C50.91004883 47.21837891 50.89651367 46.36888672 50.88256836 45.49365234 C50.84716617 43.39312272 50.793358 41.29291816 50.73608398 39.19287109 C50.23979492 39.62857422 49.74350586 40.06427734 49.23217773 40.51318359 C48.5528418 41.10873047 47.87350586 41.70427734 47.17358398 42.31787109 C46.18165039 43.18798828 46.18165039 43.18798828 45.16967773 44.07568359 C42.73608398 46.19287109 42.73608398 46.19287109 40.92529297 47.22900391 C38.62330779 48.71574545 37.27545095 49.90609113 35.73608398 52.19287109 C34.84232487 56.66797711 34.76989556 61.02147912 34.87841797 65.56054688 C34.92351405 67.68956942 34.89915779 69.80986179 34.86694336 71.93896484 C34.70540485 78.95318608 34.70540485 78.95318608 37.1027832 85.35473633 C38.89658608 87.1118292 38.89658608 87.1118292 41.73608398 89.19287109 C42.54900235 92.09679421 42.61559398 94.29880781 41.73608398 97.19287109 C39.13832494 100.31018194 37.58444101 101.72901138 33.69702148 102.70458984 C31.61108398 102.88037109 31.61108398 102.88037109 27.73608398 102.19287109 C24.92691383 99.24324244 23.90357135 97.19779532 23.23608398 93.19287109 C23.87033399 89.38737108 25.32508945 87.17115846 27.73608398 84.19287109 C28.39608398 84.19287109 29.05608398 84.19287109 29.73608398 84.19287109 C29.63658447 83.26240967 29.53708496 82.33194824 29.43457031 81.37329102 C26.78674067 52.83282742 26.78674067 52.83282742 33.93139648 43.77490234 C37.89872064 39.62232757 42.21869254 35.97818472 46.87841797 32.62451172 C48.85646289 31.31499858 48.85646289 31.31499858 49.73608398 29.19287109 C50.39608398 29.19287109 51.05608398 29.19287109 51.73608398 29.19287109 C51.73608398 23.58287109 51.73608398 17.97287109 51.73608398 12.19287109 C45.13608398 12.19287109 38.53608398 12.19287109 31.73608398 12.19287109 C31.84107148 20.69684224 31.84107148 20.69684224 35.29858398 24.25537109 C38.58326555 28.2138335 38.16732018 30.19053122 37.73608398 35.19287109 C37.07608398 35.19287109 36.41608398 35.19287109 35.73608398 35.19287109 C35.44733398 35.83224609 35.15858398 36.47162109 34.86108398 37.13037109 C33.73608398 39.19287109 33.73608398 39.19287109 31.73608398 40.19287109 C26.57252042 40.77585408 26.57252042 40.77585408 23.73608398 40.19287109 C20.70720035 37.08826537 19.85898011 34.95755809 19.17358398 30.69287109 C19.78928162 26.86186357 20.92924424 25.67040693 23.55639648 22.94677734 C25.90729616 19.45156557 25.57005654 15.28821479 25.73608398 11.19287109 C19.46608398 11.19287109 13.19608398 11.19287109 6.73608398 11.19287109 C6.67196048 17.13840269 6.63584856 23.07115212 6.66894531 29.01513672 C6.67201062 31.03242902 6.65927531 33.04981404 6.62988281 35.06689453 C6.06146669 48.83367907 6.06146669 48.83367907 12.23999023 60.51318359 C14.58341381 62.63724662 14.58341381 62.63724662 16.73608398 64.19287109 C18.46724521 65.92403232 17.87889214 68.26850915 17.89379883 70.62719727 C17.90406097 71.78897995 17.91432312 72.95076263 17.92489624 74.14775085 C17.93219757 75.41432022 17.9394989 76.68088959 17.94702148 77.98583984 C17.96790295 79.96292394 17.98880185 81.94000802 18.01072121 83.91708088 C18.06393988 88.8071988 18.10801026 93.69732685 18.13745117 98.58764648 C18.15437811 101.32536384 18.17910384 104.06280104 18.21231079 106.80036926 C18.24327116 109.3812168 18.26269655 111.96223408 18.26937866 114.54325867 C18.28594513 115.72080215 18.3025116 116.89834564 18.31958008 118.11157227 C18.32766693 119.14336105 18.33575378 120.17514984 18.34408569 121.23820496 C18.80391356 124.70413287 20.14815831 127.10106976 21.73608398 130.19287109 C21.73608398 131.51287109 21.73608398 132.83287109 21.73608398 134.19287109 C20.41608398 134.19287109 19.09608398 134.19287109 17.73608398 134.19287109 C17.73608398 136.17287109 17.73608398 138.15287109 17.73608398 140.19287109 C16.08608398 140.19287109 14.43608398 140.19287109 12.73608398 140.19287109 C12.73608398 137.88287109 12.73608398 135.57287109 12.73608398 133.19287109 C11.74608398 133.19287109 10.75608398 133.19287109 9.73608398 133.19287109 C9.22993101 131.92447584 8.73139299 130.65304008 8.23608398 129.38037109 C7.95764648 128.67267578 7.67920898 127.96498047 7.39233398 127.23583984 C6.73608398 125.19287109 6.73608398 125.19287109 6.73608398 122.19287109 C8.05608398 122.85287109 9.37608398 123.51287109 10.73608398 124.19287109 C10.73608398 125.51287109 10.73608398 126.83287109 10.73608398 128.19287109 C11.39608398 128.19287109 12.05608398 128.19287109 12.73608398 128.19287109 C12.73608398 125.88287109 12.73608398 123.57287109 12.73608398 121.19287109 C6.12899184 121.35767385 1.52692129 122.47689062 -3.26391602 127.19287109 C-4.72110901 129.13275927 -5.97194342 131.13528511 -7.26391602 133.19287109 C-7.92391602 133.19287109 -8.58391602 133.19287109 -9.26391602 133.19287109 C-9.26391602 137.15287109 -9.26391602 141.11287109 -9.26391602 145.19287109 C-12.89391602 145.19287109 -16.52391602 145.19287109 -20.26391602 145.19287109 C-20.47238997 127.45136423 -20.63293293 109.71027856 -20.73022556 91.96781063 C-20.77660431 83.72933658 -20.83981524 75.49163821 -20.94287109 67.25366211 C-21.03266836 60.07210456 -21.09066103 52.89110878 -21.11071247 45.70900542 C-21.12243171 41.90690366 -21.14990246 38.10640876 -21.21548653 34.30482292 C-21.27677346 30.72316053 -21.29538426 27.14375957 -21.28188515 23.56162262 C-21.28552585 21.62679113 -21.3338636 19.6922039 -21.38369751 17.75801086 C-21.29473307 9.39969872 -21.29473307 9.39969872 -18.26191521 5.84903145 C-12.077283 0.95245867 -7.79213928 0.03632759 0 0 Z " fill="#ECEBED" transform="translate(188.263916015625,57.80712890625)"/>
<path d="M0 0 C11.06535221 -0.02255049 22.13068928 -0.04091478 33.19605923 -0.05181217 C38.33359566 -0.05704113 43.47111563 -0.06413901 48.60864258 -0.07543945 C53.5623141 -0.08626787 58.51596974 -0.09227674 63.46965218 -0.09487724 C65.36397616 -0.09673157 67.25829924 -0.10035234 69.1526165 -0.10573006 C71.79634386 -0.11293989 74.44000471 -0.11399097 77.08374023 -0.11352539 C77.87495773 -0.11712067 78.66617523 -0.12071594 79.48136902 -0.12442017 C84.88594784 -0.11405216 84.88594784 -0.11405216 86 1 C88.51952654 19.46033821 85.29085633 32.76832325 75.59863281 48.37890625 C73.19685061 52.31683138 71.10666285 56.399145 69 60.5 C68.1891013 62.04250953 67.3765799 63.58416702 66.5625 65.125 C63.6937061 70.5757084 60.84676076 76.03776085 58 81.5 C54.30444566 88.59010266 50.60045043 95.67555639 46.875 102.75 C46.27764038 103.88501953 46.27764038 103.88501953 45.66821289 105.04296875 C43.51548847 109.13091774 41.35628087 113.21534688 39.19140625 117.296875 C38.73072754 118.16731445 38.27004883 119.03775391 37.79541016 119.93457031 C36.91027681 121.60680714 36.02332028 123.2780806 35.13427734 124.94824219 C34.53993896 126.07214355 34.53993896 126.07214355 33.93359375 127.21875 C33.4085022 128.2077832 33.4085022 128.2077832 32.87280273 129.21679688 C31.8729355 131.15947308 31.8729355 131.15947308 31 134 C49.15 134 67.3 134 86 134 C86 143.24 86 152.48 86 162 C74.54349633 162.02255012 63.08700729 162.04091456 51.63048649 162.05181217 C46.31134787 162.05704122 40.99222516 162.06413927 35.6730957 162.07543945 C30.54436015 162.08626755 25.41563994 162.09227667 20.28689384 162.09487724 C18.32558386 162.09673163 16.36427476 162.10035251 14.40297127 162.10573006 C11.66584553 162.11293946 8.92878403 162.11399099 6.19165039 162.11352539 C5.37238068 162.11712067 4.55311096 162.12071594 3.70901489 162.12442017 C-1.88594784 162.11405216 -1.88594784 162.11405216 -3 161 C-6.46638337 139.98023638 -0.28679692 125.63502348 10.10693359 108.20996094 C12.63170115 103.92886166 14.91601481 99.54375968 17.1875 95.125 C17.96967307 93.64103979 18.7535343 92.15796817 19.5390625 90.67578125 C21.36154523 87.22261679 23.16486984 83.75994456 24.9609375 80.29296875 C29.77799633 71.00058904 34.63040531 61.7555316 39.83251953 52.67236328 C42.90918317 47.26167896 45.70841576 41.72959232 48.43847656 36.13696289 C49.83127417 33.28974915 51.23808467 30.642873 53 28 C35.51 28 18.02 28 0 28 C0 18.76 0 9.52 0 0 Z " fill="#F8F8F9" transform="translate(989,77)"/>
<path d="M0 0 C9.39778481 1.05429694 18.871424 3.72408409 25.1875 11.25 C27.83245761 15.65826269 27.90279422 20.03090121 27 25 C20.84077368 43.68396883 2.62085515 55.70818691 -13 66 C-14.05316406 66.69738281 -15.10632813 67.39476562 -16.19140625 68.11328125 C-21.31787391 71.44298973 -26.45381825 74.43501193 -32 77 C-33.58748047 77.74443359 -33.58748047 77.74443359 -35.20703125 78.50390625 C-49.15406627 85 -49.15406627 85 -53 85 C-53 85.66 -53 86.32 -53 87 C-55.475 87.495 -55.475 87.495 -58 88 C-58 93.94 -58 99.88 -58 106 C-54.89552247 105.85929562 -51.79152225 105.71265848 -48.6875 105.5625 C-47.80642578 105.52318359 -46.92535156 105.48386719 -46.01757812 105.44335938 C-45.17001953 105.40146484 -44.32246094 105.35957031 -43.44921875 105.31640625 C-42.66893311 105.27974854 -41.88864746 105.24309082 -41.0847168 105.20532227 C-38.80670899 105.05874737 -38.80670899 105.05874737 -36 104 C-32.91577077 99.68624696 -33.55521365 94.20288836 -33.34375 89.1171875 C-33 86 -33 86 -31 84 C-28.36587655 82.85179234 -25.72650879 81.90883626 -23 81 C-22.92383675 88.29566754 -22.8713524 95.59123224 -22.83520508 102.88720703 C-22.82013338 105.3683658 -22.79967254 107.84949799 -22.77368164 110.33056641 C-22.73722833 113.90013189 -22.72025708 117.46934461 -22.70703125 121.0390625 C-22.69154739 122.14553131 -22.67606354 123.25200012 -22.66011047 124.39199829 C-22.65850531 131.76368645 -23.44429916 136.2617491 -28.625 141.8125 C-29.40875 142.534375 -30.1925 143.25625 -31 144 C-31.33 144.33 -31.66 144.66 -32 145 C-35.1646475 145.1167233 -38.30774602 145.16804282 -41.47338867 145.17700195 C-42.46851471 145.18357315 -43.46364075 145.19014435 -44.48892212 145.19691467 C-47.798605 145.21670522 -51.10824235 145.22832421 -54.41796875 145.23828125 C-56.10989066 145.24439454 -56.10989066 145.24439454 -57.83599281 145.25063133 C-63.80805912 145.27151852 -69.78010229 145.28580767 -75.75219727 145.29516602 C-81.92510331 145.30622457 -88.09764828 145.34061087 -94.27042675 145.38033772 C-99.01193415 145.40647484 -103.75335526 145.41485539 -108.49492836 145.41844749 C-110.77031195 145.42332243 -113.04569146 145.43496208 -115.32100487 145.45348549 C-118.50750709 145.47781021 -121.69307219 145.47692353 -124.87963867 145.4699707 C-126.28961372 145.48918579 -126.28961372 145.48918579 -127.72807312 145.50878906 C-133.31914072 145.46434133 -136.60067041 144.79267646 -141 141 C-145.11304005 135.49097782 -145.53266733 131.3084646 -145.25 124.5625 C-145.23195312 123.73556641 -145.21390625 122.90863281 -145.1953125 122.05664062 C-145.1486214 120.03725067 -145.07689393 118.01846555 -145 116 C-143.79730469 115.91363281 -142.59460938 115.82726562 -141.35546875 115.73828125 C-130.68968646 114.88990295 -120.21321154 113.49400154 -109.6875 111.5625 C-108.55014404 111.35729736 -107.41278809 111.15209473 -106.2409668 110.94067383 C-101.62892751 110.066018 -97.2709096 109.23090333 -92.95703125 107.3515625 C-87.80324063 105.25326714 -82.47615108 105.67885176 -77 105.8125 C-75.93910156 105.82603516 -74.87820312 105.83957031 -73.78515625 105.85351562 C-71.18956313 105.88859121 -68.59505933 105.93774156 -66 106 C-67.14540225 104.68712379 -68.29133433 103.37470979 -69.4375 102.0625 C-70.07558594 101.33160156 -70.71367187 100.60070312 -71.37109375 99.84765625 C-72.22541459 98.87860647 -73.08651175 97.91348825 -74 97 C-82.87722257 97.28181659 -91.03568875 99.79991632 -99.48461914 102.32983398 C-115.26271734 106.53354936 -131.12525556 108.53082575 -147.43676758 108.44604492 C-149.96190101 108.43741662 -152.48484637 108.4666648 -155.00976562 108.49804688 C-167.22210584 108.55051857 -178.44359725 107.36185241 -188 99 C-192.15069968 94.53001573 -192.59952536 90.71472955 -192.40625 84.8359375 C-191.78143272 80.47423222 -190.1190819 76.83137576 -188 73 C-187.34 73 -186.68 73 -186 73 C-185.85304687 73.97839844 -185.85304687 73.97839844 -185.703125 74.9765625 C-184.53383152 81.81088127 -182.85438732 86.37095905 -177.625 91.1875 C-162.35482275 101.73119381 -137.18271375 98.22177777 -119.72265625 95.17578125 C-101.7940279 91.66271729 -83.87542071 87.02980702 -67 80 C-65.80761719 79.55398437 -64.61523438 79.10796875 -63.38671875 78.6484375 C-38.6593298 69.30059669 -6.05469338 53.03667086 6 28 C8.44088554 21.53165332 8.87409329 14.93341982 7.375 8.1875 C5.41554653 5.07018767 2.89581059 3.26628655 0 1 C0 0.67 0 0.34 0 0 Z " fill="#F7F6F7" transform="translate(314,120)"/>
<path d="M0 0 C9.57 0 19.14 0 29 0 C29 43.89 29 87.78 29 133 C45.17 133 61.34 133 78 133 C78.020625 137.599375 78.04125 142.19875 78.0625 146.9375 C78.071604 148.39019287 78.08070801 149.84288574 78.09008789 151.33959961 C78.09258545 152.47405518 78.09508301 153.60851074 78.09765625 154.77734375 C78.10289307 155.94515381 78.10812988 157.11296387 78.11352539 158.31616211 C78 161 78 161 77 162 C51.59 162 26.18 162 0 162 C0 108.54 0 55.08 0 0 Z " fill="#F8F7F8" transform="translate(1229,77)"/>
<path d="M0 0 C9.24 0 18.48 0 28 0 C28 53.46 28 106.92 28 162 C18.43 162 8.86 162 -1 162 C-1.02311707 141.02547978 -1.04097824 120.05096261 -1.05181217 99.07643223 C-1.05697554 89.33830393 -1.064019 79.60018368 -1.07543945 69.86206055 C-1.08538506 61.37750507 -1.09185313 52.89295542 -1.09408849 44.40839428 C-1.09539581 39.9130134 -1.09848298 35.41764919 -1.10573006 30.92227364 C-1.11248833 26.69608954 -1.11461736 22.46992907 -1.11310768 18.24374008 C-1.1133841 16.68804102 -1.11539036 15.13234121 -1.11920547 13.5766468 C-1.12413973 11.46188066 -1.1229993 9.34720513 -1.12025452 7.23243713 C-1.12117631 6.04608956 -1.1220981 4.85974199 -1.12304783 3.6374445 C-1 1 -1 1 0 0 Z " fill="#F9F9F9" transform="translate(1324,77)"/>
<path d="M0 0 C5.24672373 2.81074485 7.06260134 6.31318592 9.16186523 11.77410889 C10.9552722 18.67674058 10.57021662 25.89075214 10.53125 32.9765625 C10.53394975 34.71430681 10.53783618 36.45204964 10.54284668 38.18978882 C10.54871591 41.81580109 10.54026045 45.44141693 10.52148438 49.06738281 C10.49866191 53.69861095 10.51185478 58.32891332 10.53577423 62.9601078 C10.55027312 66.54280493 10.54560815 70.12528484 10.53526306 73.70798874 C10.53260883 75.41510505 10.53581929 77.12224156 10.54518127 78.82933426 C10.62079686 96.48385943 10.62079686 96.48385943 4.24609375 104.09375 C-0.5690707 107.83772236 -4.41149842 108.81530715 -10.51171875 108.4609375 C-14.98692351 107.63193568 -16.93619605 105.21053553 -19.8125 101.9375 C-21 100 -21 100 -21 97 C-21.66 97 -22.32 97 -23 97 C-24.2061843 93.38144709 -24.14757437 90.07004079 -24.14526367 86.30322266 C-24.14862228 85.52077682 -24.1519809 84.73833099 -24.15544128 83.93217468 C-24.16494845 81.34278785 -24.16689431 78.75346571 -24.16796875 76.1640625 C-24.17118162 74.36428806 -24.17454572 72.56451388 -24.17805481 70.76473999 C-24.18404558 66.99028925 -24.18589478 63.21586141 -24.18530273 59.44140625 C-24.18520114 54.60703893 -24.19885034 49.77281859 -24.21607494 44.9384861 C-24.22719888 41.22042162 -24.22922182 37.50239262 -24.22869301 33.7843132 C-24.22987264 32.00214507 -24.23429351 30.219976 -24.24202538 28.43782425 C-24.25183265 25.94363392 -24.24894428 23.44976196 -24.24291992 20.95556641 C-24.24853943 20.2208461 -24.25415894 19.48612579 -24.25994873 18.72914124 C-24.23543222 14.73071253 -23.90759696 11.54987761 -22 8 C-21.34 7.67 -20.68 7.34 -20 7 C-19.7525 6.38125 -19.505 5.7625 -19.25 5.125 C-15.37748574 -1.45827424 -6.69072014 -0.93743606 0 0 Z " fill="#0F081B" transform="translate(938,104)"/>
<path d="M0 0 C2.97 0 5.94 0 9 0 C8.9779248 1.37140137 8.95584961 2.74280273 8.93310547 4.15576172 C8.86397344 9.28135886 8.86130653 14.4052731 8.87792969 19.53125 C8.87599217 21.74260133 8.85642391 23.95401452 8.81835938 26.16503906 C8.08291908 38.81907105 8.08291908 38.81907105 12.27978516 50.24267578 C14.06708129 51.7901856 15.89611604 53.29119519 17.76904297 54.73388672 C20.74428272 57.7560114 20.79635698 59.69402286 20.9765625 63.8828125 C20.91090996 66.29882583 20.7927942 68.71392643 20.625 71.125 C20.57988281 72.36765625 20.53476563 73.6103125 20.48828125 74.890625 C20.37129663 77.93222511 20.20771841 80.96347643 20 84 C17 82 17 82 15.625 79.5625 C13.75584326 76.6149836 12.1475302 75.45270624 9 74 C8.01 74.495 8.01 74.495 7 75 C7.99 75.33 8.98 75.66 10 76 C10.33 76.99 10.66 77.98 11 79 C11.680625 79.598125 12.36125 80.19625 13.0625 80.8125 C15 83 15 83 15.4375 86.0625 C14.95287899 89.31638395 14.48069527 89.99636151 12 92 C11.34 92.99 10.68 93.98 10 95 C7.5 95.3125 7.5 95.3125 5 95 C3 93 3 93 2.75 89.6875 C2.98136548 86.27485916 3.5234712 84.04534065 5 81 C2.82271927 81.87644433 2.82271927 81.87644433 1 84 C0.3974106 88.20247414 0.66040855 91.98122566 2 96 C4.31 96.33 6.62 96.66 9 97 C8.67 98.65 8.34 100.3 8 102 C8.66 102 9.32 102 10 102 C10.33 100.68 10.66 99.36 11 98 C12.65 98 14.3 98 16 98 C19 104.625 19 104.625 19 108 C15.31245243 107.50168276 13.39509338 106.89932357 11 104 C11 105.65 11 107.3 11 109 C9.1875 109.6875 9.1875 109.6875 7 110 C5.36328125 108.51953125 5.36328125 108.51953125 4 107 C3.80664062 107.60328125 3.61328125 108.2065625 3.4140625 108.828125 C3.15367187 109.62734375 2.89328125 110.4265625 2.625 111.25 C2.24214844 112.43335938 2.24214844 112.43335938 1.8515625 113.640625 C1.04826333 115.86627958 0.10288338 117.90931672 -1 120 C-1.66 119.67 -2.32 119.34 -3 119 C-3 102.5 -3 86 -3 69 C-2.34 69 -1.68 69 -1 69 C-1.33 68.01 -1.66 67.02 -2 66 C-2.09888793 64.01236728 -2.1382573 62.02157292 -2.14526367 60.03149414 C-2.15164352 58.80334488 -2.15802338 57.57519562 -2.16459656 56.30982971 C-2.16612522 54.96827229 -2.16723919 53.62671434 -2.16796875 52.28515625 C-2.1711824 50.9089708 -2.17454655 49.53278569 -2.17805481 48.15660095 C-2.18404141 45.27244271 -2.18589517 42.38831441 -2.18530273 39.50415039 C-2.18520109 35.81084688 -2.19885719 32.11773554 -2.21607494 28.42447758 C-2.22719999 25.58230204 -2.22922179 22.74017291 -2.22869301 19.89797783 C-2.22987221 18.5364357 -2.23429067 17.17489233 -2.24202538 15.81337166 C-2.25183561 13.9082398 -2.24768029 12.00305156 -2.24291992 10.09790039 C-2.24434494 9.01440811 -2.24576996 7.93091583 -2.24723816 6.81459045 C-2 4 -2 4 0 0 Z " fill="#170F22" transform="translate(181,68)"/>
<path d="M0 0 C0.33 0 0.66 0 1 0 C1.52842837 7.76383226 -4.1526538 13.17580618 -8.9375 18.8125 C-22.79243436 33.7314193 -40.49388928 44.04550101 -59.00732422 52.12597656 C-61.11914418 53.05225878 -63.21700488 54.00687569 -65.31640625 54.9609375 C-77.87077404 60.5605435 -90.74227717 64.43299904 -104 68 C-105.35738281 68.37366699 -105.35738281 68.37366699 -106.7421875 68.75488281 C-122.9818136 73.20632335 -138.15220734 75.14465174 -155 75.25 C-156.71908569 75.2641394 -156.71908569 75.2641394 -158.47290039 75.27856445 C-169.14310642 75.23722218 -178.63029259 74.28887356 -186.5390625 66.48046875 C-190.34974126 62.07924621 -192.16910525 58.52466686 -192.625 52.75 C-192.73714844 51.41195312 -192.73714844 51.41195312 -192.8515625 50.046875 C-192.90054688 49.37140625 -192.94953125 48.6959375 -193 48 C-192.34 48 -191.68 48 -191 48 C-191.00902344 48.58007812 -191.01804688 49.16015625 -191.02734375 49.7578125 C-190.85885591 54.1971009 -190.46856787 57.2083284 -187.125 60.3125 C-172.62476518 71.09779862 -150.12367315 69.53554199 -133.1875 67.5390625 C-129.07995138 66.84632116 -125.04759158 65.97142198 -121 65 C-118.98201263 64.54579939 -116.96376197 64.09276765 -114.9453125 63.640625 C-103.4071533 61.00681146 -92.11394693 58.0829752 -81 54 C-80.25492187 53.73574219 -79.50984375 53.47148437 -78.7421875 53.19921875 C-76.81310739 52.50022008 -74.90786901 51.75480305 -73 51 C-72.21753906 50.71253906 -71.43507813 50.42507812 -70.62890625 50.12890625 C-62.16257976 46.85045642 -54.37078107 42.47727411 -46.47802734 38.01391602 C-45.55586426 37.49756592 -44.63370117 36.98121582 -43.68359375 36.44921875 C-42.85400146 35.97830811 -42.02440918 35.50739746 -41.16967773 35.0222168 C-39 34 -39 34 -36 34 C-36 33.34 -36 32.68 -36 32 C-33.09451118 29.95830515 -31.59857954 29 -28 29 C-28 28.34 -28 27.68 -28 27 C-27.01 27 -26.02 27 -25 27 C-25 26.34 -25 25.68 -25 25 C-19.58823529 21 -19.58823529 21 -17 21 C-16.73960937 20.40058594 -16.47921875 19.80117187 -16.2109375 19.18359375 C-14.91715749 16.85061626 -13.70531236 15.70222219 -11.625 14.0625 C-8.65078479 11.62624056 -6.35431012 9.05188349 -4 6 C-3.34 5.67 -2.68 5.34 -2 5 C-1.27840576 3.35636866 -0.60648579 1.68949614 0 0 Z " fill="#5C5861" transform="translate(320,143)"/>
<path d="M0 0 C3.485625 -0.061875 6.97125 -0.12375 10.5625 -0.1875 C12.18973999 -0.22846802 12.18973999 -0.22846802 13.84985352 -0.27026367 C22.8300897 -0.34708843 28.47033794 1.77404315 35 8 C37.74288635 12.45602014 37.6402375 16.91713889 37 22 C35.71168643 25.632513 34.06582985 28.31905315 30.75 30.4375 C30.1725 30.623125 29.595 30.80875 29 31 C29 31.66 29 32.32 29 33 C25.62301212 35.04173535 23.05453777 35.23525039 19.140625 35.1953125 C18.13547852 35.19031738 17.13033203 35.18532227 16.09472656 35.18017578 C14.19158691 35.15286377 14.19158691 35.15286377 12.25 35.125 C8.2075 35.08375 4.165 35.0425 0 35 C0 23.45 0 11.9 0 0 Z " fill="#0F071B" transform="translate(805,106)"/>
<path d="M0 0 C0.70548981 0.00202423 1.41097961 0.00404846 2.1378479 0.00613403 C3.24756454 0.00350555 3.24756454 0.00350555 4.37969971 0.00082397 C6.83686638 -0.00359453 9.29396168 -0.00065657 11.75112915 0.00271606 C13.45124322 0.00204302 15.1513572 0.001073 16.85147095 -0.00018311 C20.41926996 -0.00166008 23.98704398 0.00049445 27.55484009 0.00515747 C32.13851409 0.01085476 36.72212954 0.00757575 41.30580139 0.00158501 C44.81782476 -0.00202063 48.32983414 -0.00088201 51.84185791 0.0017128 C53.53243008 0.00238206 55.22300351 0.00155367 56.91357422 -0.00076675 C59.27222072 -0.00329332 61.6307711 0.00054735 63.9894104 0.00613403 C64.69490021 0.0041098 65.40039001 0.00208557 66.1272583 0 C70.94936644 0.02126585 70.94936644 0.02126585 72.06362915 1.13552856 C72.16356447 3.19608167 72.19443821 5.26005446 72.19644165 7.32302856 C72.19773071 8.57857544 72.19901978 9.83412231 72.2003479 11.12771606 C72.19825317 11.78481567 72.19615845 12.44191528 72.19400024 13.118927 C72.18865149 15.12714191 72.19394606 17.13513316 72.2003479 19.14334106 C72.19905884 20.39888794 72.19776978 21.65443481 72.19644165 22.94802856 C72.19531372 24.10947388 72.19418579 25.27091919 72.19302368 26.46755981 C72.06362915 29.13552856 72.06362915 29.13552856 71.06362915 30.13552856 C69.59008567 30.22856874 68.11212324 30.25299122 66.63565063 30.24905396 C65.69475082 30.24897842 64.75385101 30.24890289 63.78443909 30.24882507 C62.76153275 30.24366379 61.7386264 30.2385025 60.6847229 30.23318481 C59.64292374 30.23176987 58.60112457 30.23035492 57.52775574 30.22889709 C54.18551821 30.22327936 50.84334658 30.21072386 47.50112915 30.19802856 C45.24136449 30.19301585 42.98159878 30.18845255 40.72183228 30.18435669 C35.16905181 30.17415312 29.61641463 30.1545812 24.06362915 30.13552856 C24.06362915 41.35552856 24.06362915 52.57552856 24.06362915 64.13552856 C39.57362915 64.13552856 55.08362915 64.13552856 71.06362915 64.13552856 C71.06362915 64.46552856 71.06362915 64.79552856 71.06362915 65.13552856 C55.22362915 65.13552856 39.38362915 65.13552856 23.06362915 65.13552856 C23.06362915 52.92552856 23.06362915 40.71552856 23.06362915 28.13552856 C38.57362915 28.13552856 54.08362915 28.13552856 70.06362915 28.13552856 C70.06362915 19.55552856 70.06362915 10.97552856 70.06362915 2.13552856 C45.64362915 2.13552856 21.22362915 2.13552856 -3.93637085 2.13552856 C-3.93637085 54.60552856 -3.93637085 107.07552856 -3.93637085 161.13552856 C20.81362915 161.13552856 45.56362915 161.13552856 71.06362915 161.13552856 C71.06362915 151.89552856 71.06362915 142.65552856 71.06362915 133.13552856 C71.39362915 133.13552856 71.72362915 133.13552856 72.06362915 133.13552856 C72.06362915 142.70552856 72.06362915 152.27552856 72.06362915 162.13552856 C62.0413475 162.15808017 52.01908258 162.17644399 41.99678135 162.18734074 C37.34351729 162.19256942 32.69027141 162.19966679 28.03701782 162.21096802 C23.55018369 162.22179743 19.06336711 162.22780551 14.57652092 162.23040581 C12.86082622 162.23225996 11.14513254 162.23588039 9.42944527 162.24125862 C7.03478002 162.24846978 4.64018819 162.24951948 2.24551392 162.24905396 C1.52910233 162.25264923 0.81269073 162.25624451 0.0745697 162.25994873 C-4.82231869 162.24958073 -4.82231869 162.24958073 -5.93637085 161.13552856 C-6.03538182 159.07489021 -6.06269403 157.01079997 -6.06335449 154.94778442 C-6.06491448 154.29426719 -6.06647447 153.64074995 -6.06808174 152.96742916 C-6.07209346 150.7617211 -6.06890145 148.55608098 -6.06576538 146.35037231 C-6.06711935 144.77551228 -6.06889925 143.20065257 -6.07107544 141.62579346 C-6.07565034 137.33665827 -6.07385998 133.04754703 -6.07069635 128.75841141 C-6.06817304 124.2798684 -6.07051021 119.80132751 -6.07208252 115.32278442 C-6.0739043 107.8004011 -6.07149768 100.27802759 -6.06674194 92.75564575 C-6.06129931 84.04592192 -6.06306196 75.33622149 -6.06856835 66.62649822 C-6.07309924 59.16240329 -6.07375015 51.69831542 -6.07112968 44.23421955 C-6.06956677 39.77015613 -6.06937352 35.30610373 -6.07266617 30.84204102 C-6.07554453 26.64620741 -6.07356984 22.45040413 -6.06777191 18.25457382 C-6.06644413 16.71016363 -6.06683874 15.16575091 -6.06903458 13.62134171 C-6.07174537 11.52195035 -6.06836587 9.42265768 -6.06335449 7.32327271 C-6.06297747 6.1455983 -6.06260044 4.96792389 -6.06221199 3.75456238 C-5.84532322 -0.75937492 -4.04946106 0.01785842 0 0 Z " fill="#949098" transform="translate(569.9363708496094,76.86447143554688)"/>
<path d="M0 0 C0.66 0 1.32 0 2 0 C2.97889343 6.56530414 3.95745543 13.13065763 4.93579102 19.69604492 C5.2683976 21.92782704 5.60107904 24.159598 5.93383789 26.39135742 C6.4131219 29.60592745 6.8921335 32.82053797 7.37109375 36.03515625 C7.51904892 37.02709488 7.66700409 38.01903351 7.81944275 39.04103088 C8.09364178 40.88203929 8.36697768 42.72317655 8.63926697 44.56446838 C8.95465958 46.69387882 9.27478453 48.82258724 9.59570312 50.95117188 C10.34653436 56.61323735 10.05430825 62.29763427 10 68 C3.73 68 -2.54 68 -9 68 C-9 63.55879531 -8.99834438 60.1169883 -8.28149414 55.89770508 C-8.12455582 54.95594925 -7.96761749 54.01419342 -7.80592346 53.04389954 C-7.54814369 51.54683723 -7.54814369 51.54683723 -7.28515625 50.01953125 C-7.02236122 48.44566902 -7.02236122 48.44566902 -6.7542572 46.8400116 C-6.19569708 43.49658132 -5.62989928 40.15444077 -5.0625 36.8125 C-4.49892884 33.48837304 -3.93717803 30.16399522 -3.38145447 26.83854675 C-3.0366178 24.77519464 -2.68744532 22.71256035 -2.33302307 20.65083313 C-1.18500326 13.78441591 -0.48201997 6.94421529 0 0 Z " fill="#191224" transform="translate(1166,127)"/>
<path d="M0 0 C3.04383588 0.19333811 4.44843186 0.49572841 7.125 2.0625 C9.28153764 5.81300024 9.04756208 8.26623586 8.5625 12.5625 C5.5625 14.5625 5.5625 14.5625 2.5625 14.5625 C2.8925 14.005625 3.2225 13.44875 3.5625 12.875 C4.70261312 10.23848842 4.7931312 8.40695144 4.5625 5.5625 C3.43715895 4.20631501 3.43715895 4.20631501 0.5 4.5 C-0.9540625 4.5309375 -0.9540625 4.5309375 -2.4375 4.5625 C-3.87054064 7.42858129 -3.74394155 9.37550783 -3.4375 12.5625 C-1.6875 15.72916667 -1.6875 15.72916667 0.5625 18.5625 C1.42875 19.738125 1.42875 19.738125 2.3125 20.9375 C2.725 21.47375 3.1375 22.01 3.5625 22.5625 C2.2425 22.8925 0.9225 23.2225 -0.4375 23.5625 C0.5525 23.8925 1.5425 24.2225 2.5625 24.5625 C2.8925 25.5525 3.2225 26.5425 3.5625 27.5625 C4.243125 28.160625 4.92375 28.75875 5.625 29.375 C7.5625 31.5625 7.5625 31.5625 8 34.625 C7.51537899 37.87888395 7.04319527 38.55886151 4.5625 40.5625 C3.9025 41.5525 3.2425 42.5425 2.5625 43.5625 C0.0625 43.875 0.0625 43.875 -2.4375 43.5625 C-4.4375 41.5625 -4.4375 41.5625 -4.6875 38.25 C-4.45613452 34.83735916 -3.9140288 32.60784065 -2.4375 29.5625 C-4.61478073 30.43894433 -4.61478073 30.43894433 -6.4375 32.5625 C-7.0400894 36.76497414 -6.77709145 40.54372566 -5.4375 44.5625 C-3.1275 44.8925 -0.8175 45.2225 1.5625 45.5625 C1.0675 48.0375 1.0675 48.0375 0.5625 50.5625 C1.2225 50.5625 1.8825 50.5625 2.5625 50.5625 C2.8925 49.2425 3.2225 47.9225 3.5625 46.5625 C5.2125 46.5625 6.8625 46.5625 8.5625 46.5625 C11.5625 53.1875 11.5625 53.1875 11.5625 56.5625 C7.87495243 56.06418276 5.95759338 55.46182357 3.5625 52.5625 C3.5625 54.2125 3.5625 55.8625 3.5625 57.5625 C1.75 58.25 1.75 58.25 -0.4375 58.5625 C-2.07421875 57.08203125 -2.07421875 57.08203125 -3.4375 55.5625 C-3.63085938 56.16578125 -3.82421875 56.7690625 -4.0234375 57.390625 C-4.41402344 58.58945313 -4.41402344 58.58945313 -4.8125 59.8125 C-5.06773437 60.60140625 -5.32296875 61.3903125 -5.5859375 62.203125 C-6.38923667 64.42877958 -7.33461662 66.47181672 -8.4375 68.5625 C-9.0975 68.2325 -9.7575 67.9025 -10.4375 67.5625 C-10.4375 51.0625 -10.4375 34.5625 -10.4375 17.5625 C-9.7775 17.5625 -9.1175 17.5625 -8.4375 17.5625 C-8.1075 16.9025 -7.7775 16.2425 -7.4375 15.5625 C-6.7775 16.2225 -6.1175 16.8825 -5.4375 17.5625 C-5.7675 17.0675 -6.0975 16.5725 -6.4375 16.0625 C-8.28507529 11.44356178 -7.94715602 7.19339926 -6.5 2.5625 C-4.08346192 0.21919035 -3.27236951 0.16684779 0 0 Z " fill="#C8C6CA" transform="translate(188.4375,119.4375)"/>
<path d="M0 0 C2.99306104 2.38577329 5.62449584 4.99745921 8 8 C8 8.66 8 9.32 8 10 C7.34515625 10.01458252 6.6903125 10.02916504 6.015625 10.04418945 C3.00986327 10.11928043 0.00513903 10.21573671 -3 10.3125 C-4.02996094 10.33505859 -5.05992187 10.35761719 -6.12109375 10.38085938 C-11.51025801 10.56965175 -15.84606431 11.06551931 -20.79248047 13.19116211 C-25.84132464 15.04106487 -31.28273856 15.69782238 -36.5625 16.625 C-37.75552734 16.8415625 -38.94855469 17.058125 -40.17773438 17.28125 C-50.65419976 19.168062 -60.33523856 20.10156916 -71 20 C-71 25.94 -71 31.88 -71 38 C-71.66 37.67 -72.32 37.34 -73 37 C-74.91655479 28.9010104 -73.47083935 21.04635643 -72 13 C-76.95 13 -81.9 13 -87 13 C-87 12.67 -87 12.34 -87 12 C-86.18136475 11.9906543 -85.36272949 11.98130859 -84.51928711 11.97167969 C-66.98304357 11.72156477 -50.18644022 10.811 -33 7 C-32.03723145 6.78762695 -31.07446289 6.57525391 -30.08251953 6.35644531 C-0.88992657 -0.17798531 -0.88992657 -0.17798531 0 0 Z " fill="#646169" transform="translate(240,216)"/>
<path d="M0 0 C0.22891073 3.03306712 0.33937187 5.97258745 0 9 C-2.4544035 11.81801884 -5.57390894 12.64206341 -9 14 C-9.02126953 15.42892578 -9.02126953 15.42892578 -9.04296875 16.88671875 C-9.48103343 28.40663593 -9.48103343 28.40663593 -12.5 31.3125 C-13.325 31.869375 -14.15 32.42625 -15 33 C-15.33 33.33 -15.66 33.66 -16 34 C-17.41570123 34.08651611 -18.835595 34.10704904 -20.25390625 34.09765625 C-21.10791016 34.09443359 -21.96191406 34.09121094 -22.84179688 34.08789062 C-23.73962891 34.07951172 -24.63746094 34.07113281 -25.5625 34.0625 C-26.46419922 34.05798828 -27.36589844 34.05347656 -28.29492188 34.04882812 C-30.52997589 34.03700244 -32.76499602 34.01906638 -35 34 C-35 28.06 -35 22.12 -35 16 C-33.35 15.67 -31.7 15.34 -30 15 C-30 14.34 -30 13.68 -30 13 C-29.24976563 12.69707031 -28.49953125 12.39414063 -27.7265625 12.08203125 C-21.77857911 9.64740329 -15.98735313 7.06218297 -10.265625 4.13671875 C-2.02061856 0 -2.02061856 0 0 0 Z " fill="#120A1D" transform="translate(291,192)"/>
<path d="M0 0 C5.57894737 3.15789474 5.57894737 3.15789474 7 6 C7.13415472 8.6723621 7.04318541 11.32250488 7 14 C6.34 14 5.68 14 5 14 C4.34 15.32 3.68 16.64 3 18 C2.34 18 1.68 18 1 18 C1 18.66 1 19.32 1 20 C-6.25867508 20.61514196 -6.25867508 20.61514196 -9.9375 17.5625 C-10.618125 16.716875 -11.29875 15.87125 -12 15 C-12.33 14.67 -12.66 14.34 -13 14 C-13.54003583 9.63544812 -13.82152749 6.13314137 -11.1875 2.5 C-7.48553987 -0.03848695 -4.40304128 -0.43167071 0 0 Z " fill="#1B1426" transform="translate(233,235)"/>
<path d="M0 0 C25.08 0 50.16 0 76 0 C76 9.24 76 18.48 76 28 C75 29 75 29 73.09544373 29.12025452 C72.26271439 29.11803391 71.42998505 29.11581329 70.57202148 29.11352539 C69.63112167 29.11344986 68.69022186 29.11337433 67.72080994 29.11329651 C66.69790359 29.10813522 65.67499725 29.10297394 64.62109375 29.09765625 C63.57929459 29.0962413 62.53749542 29.09482635 61.46412659 29.09336853 C58.12188906 29.0877508 54.77971743 29.0751953 51.4375 29.0625 C49.17773534 29.05748728 46.91796963 29.05292398 44.65820312 29.04882812 C39.10542266 29.03862456 33.55278548 29.01905264 28 29 C28 40.22 28 51.44 28 63 C43.51 63 59.02 63 75 63 C75 63.33 75 63.66 75 64 C59.16 64 43.32 64 27 64 C27 51.79 27 39.58 27 27 C42.51 27 58.02 27 74 27 C74 18.42 74 9.84 74 1 C49.58 1 25.16 1 0 1 C0 0.67 0 0.34 0 0 Z " fill="#AFACB2" transform="translate(566,78)"/>
<path d="M0 0 C2.3359375 1.6796875 2.3359375 1.6796875 4.375 3.875 C5.06335938 4.59429687 5.75171875 5.31359375 6.4609375 6.0546875 C8 8 8 8 8 10 C-9.68247852 10.97271002 -27.29781823 11.11759242 -45 11 C-42.05270935 8.05270935 -38.46488565 7.93498803 -34.5 7.1875 C-26.8640434 5.6812211 -19.41246059 3.83688665 -11.96484375 1.57495117 C-7.87178225 0.36835075 -4.25930833 -0.59039917 0 0 Z " fill="#11091D" transform="translate(240,216)"/>
<path d="M0 0 C3 2 3 2 5 5 C5.86667119 9.9636623 5.86667119 9.9636623 5 13 C3.63209686 14.77952141 2.1678815 16.1505855 0.46875 17.61328125 C-1.49810687 19.47028707 -2.24554076 21.43483859 -3 24 C-4.32 24 -5.64 24 -7 24 C-7.2475 23.113125 -7.495 22.22625 -7.75 21.3125 C-8.78553556 17.94477191 -8.78553556 17.94477191 -11.125 15.6875 C-13.46483635 12.33373457 -13.64914182 10.11443841 -13.44140625 6.09375 C-13 4 -13 4 -11 1.4375 C-7.15536004 -0.40472331 -4.18181888 -0.95271277 0 0 Z " fill="#E2E1E4" transform="translate(235,167)"/>
<path d="M0 0 C1.12588014 0.95729916 2.2506715 1.91587895 3.375 2.875 C4.00148437 3.40867187 4.62796875 3.94234375 5.2734375 4.4921875 C8.97705355 7.72656713 8.97705355 7.72656713 9.22705078 10.70556641 C9.21657715 11.82624512 9.20610352 12.94692383 9.1953125 14.1015625 C9.18886719 15.31328125 9.18242187 16.525 9.17578125 17.7734375 C9.15902344 19.04445312 9.14226562 20.31546875 9.125 21.625 C9.11597656 22.90375 9.10695312 24.1825 9.09765625 25.5 C9.07402303 28.66685167 9.04107629 31.83333424 9 35 C6 33 6 33 4.59765625 30.66015625 C2.85086109 27.75167824 0.89544183 25.76586335 -1.5625 23.4375 C-5.40853685 19.79355376 -7.81049843 17.32139424 -8.25 11.9375 C-8 9 -8 9 -6 6 C-3 5.6875 -3 5.6875 0 6 C2 8 2 8 2.3125 10.375 C1.94914998 13.42714016 1.01544839 14.73262056 -1 17 C0.98 16.34 2.96 15.68 5 15 C4.70348096 9.80303963 4.70348096 9.80303963 2.875 5.0625 C0.04241497 3.45736848 -2.79688421 3.30218074 -6 3 C-6 2.67 -6 2.34 -6 2 C-4.02 2 -2.04 2 0 2 C0 1.34 0 0.68 0 0 Z " fill="#231C2E" transform="translate(192,117)"/>
<path d="M0 0 C8 0 8 0 9.97507954 1.24729633 C11.20283585 3.34686705 11.38302297 4.61535042 11.39872742 7.04325867 C11.41126556 7.8635556 11.42380371 8.68385254 11.4367218 9.52900696 C11.43528671 10.42524277 11.43385162 11.32147858 11.43237305 12.24487305 C11.4425647 13.19140747 11.45275635 14.13794189 11.46325684 15.11315918 C11.49348418 18.24607182 11.50266772 21.3786792 11.51171875 24.51171875 C11.5285582 26.68220545 11.54670743 28.85268234 11.56611633 31.02314758 C11.61370206 36.73923685 11.64345601 42.45528641 11.66955566 48.17150879 C11.69931793 54.00309086 11.7458631 59.834536 11.79101562 65.66601562 C11.8771463 77.11060558 11.94444816 88.55522364 12 100 C11.01 100 10.02 100 9 100 C8.67 67.66 8.34 35.32 8 2 C5.69 2 3.38 2 1 2 C1 19.16 1 36.32 1 54 C0.67 54 0.34 54 0 54 C0 36.18 0 18.36 0 0 Z " fill="#423C4B" transform="translate(270,68)"/>
<path d="M0 0 C0.66 0 1.32 0 2 0 C2.66 1.98 3.32 3.96 4 6 C6.31 6.33 8.62 6.66 11 7 C10.67 8.65 10.34 10.3 10 12 C10.66 12 11.32 12 12 12 C12.33 10.68 12.66 9.36 13 8 C14.65 8 16.3 8 18 8 C21 14.625 21 14.625 21 18 C17.31245243 17.50168276 15.39509338 16.89932357 13 14 C13 15.65 13 17.3 13 19 C11.1875 19.6875 11.1875 19.6875 9 20 C7.36328125 18.51953125 7.36328125 18.51953125 6 17 C5.81824219 17.62648437 5.63648438 18.25296875 5.44921875 18.8984375 C5.19785156 19.71570313 4.94648438 20.53296875 4.6875 21.375 C4.44386719 22.18710938 4.20023438 22.99921875 3.94921875 23.8359375 C3 26 3 26 0 28 C0 18.76 0 9.52 0 0 Z " fill="#241D2E" transform="translate(179,158)"/>
<path d="M0 0 C6.6 0 13.2 0 20 0 C20.04932375 7.36896784 20.08568329 14.73784026 20.10986328 22.10693359 C20.11994011 24.61541415 20.13360179 27.12388292 20.15087891 29.63232422 C20.17505337 33.23147488 20.18646612 36.83047067 20.1953125 40.4296875 C20.20563507 41.55680145 20.21595764 42.68391541 20.22659302 43.84518433 C20.22674408 44.88611237 20.22689514 45.92704041 20.22705078 46.99951172 C20.231492 47.91884491 20.23593323 48.8381781 20.24050903 49.78536987 C20 52 20 52 18 54 C18 36.84 18 19.68 18 2 C12.72 2 7.44 2 2 2 C2 16.85 2 31.7 2 47 C2.66 47 3.32 47 4 47 C3.67 47.66 3.34 48.32 3 49 C1.00365643 47.35995727 0.08253001 46.48203067 -0.36076355 43.89289856 C-0.35410172 43.08237534 -0.34743988 42.27185211 -0.34057617 41.43676758 C-0.34034958 40.51603958 -0.34012299 39.59531158 -0.33988953 38.64668274 C-0.32440567 37.65597275 -0.30892181 36.66526276 -0.29296875 35.64453125 C-0.28872391 34.62775803 -0.28447906 33.6109848 -0.28010559 32.56340027 C-0.26329997 29.31283188 -0.22564382 26.0628813 -0.1875 22.8125 C-0.17245562 20.61003499 -0.15876679 18.40756027 -0.14648438 16.20507812 C-0.1159409 10.80295536 -0.05722189 5.40216998 0 0 Z " fill="#4D4856" transform="translate(245,68)"/>
<path d="M0 0 C0.33 0 0.66 0 1 0 C2.32002885 6.01615928 2.14383128 12.01954153 2.1328125 18.14453125 C2.13376923 19.31006027 2.13472595 20.47558929 2.13571167 21.67643738 C2.13639057 24.13154149 2.13455656 26.58664741 2.13037109 29.04174805 C2.12499461 32.81628391 2.13033829 36.59070208 2.13671875 40.36523438 C2.13605839 42.75000026 2.13477811 45.13476608 2.1328125 47.51953125 C2.13483673 48.65485794 2.13686096 49.79018463 2.13894653 50.95991516 C2.13421829 52.52240242 2.13421829 52.52240242 2.12939453 54.11645508 C2.12859894 55.03767654 2.12780334 55.95889801 2.12698364 56.90803528 C2 59 2 59 1 60 C-1.0605531 60.09993532 -3.1245259 60.13080906 -5.1875 60.1328125 C-6.44304688 60.13410156 -7.69859375 60.13539063 -8.9921875 60.13671875 C-9.64928711 60.13462402 -10.30638672 60.1325293 -10.98339844 60.13037109 C-12.99161335 60.12502234 -14.99960459 60.13031691 -17.0078125 60.13671875 C-18.26335938 60.13542969 -19.51890625 60.13414062 -20.8125 60.1328125 C-21.97394531 60.13168457 -23.13539063 60.13055664 -24.33203125 60.12939453 C-27 60 -27 60 -28 59 C-28.11738639 57.47243988 -28.16726378 55.93961795 -28.18945312 54.40771484 C-28.20617065 53.42934662 -28.22288818 52.45097839 -28.2401123 51.44296265 C-28.25368774 50.37639435 -28.26726318 49.30982605 -28.28125 48.2109375 C-28.29965942 47.11915192 -28.31806885 46.02736633 -28.33703613 44.90249634 C-28.39599434 41.39338762 -28.44866884 37.88422807 -28.5 34.375 C-28.56784666 29.77854749 -28.64165357 25.18224302 -28.71875 20.5859375 C-28.73911316 19.00430313 -28.73911316 19.00430313 -28.7598877 17.39071655 C-28.8474594 12.16664252 -29.10496789 7.15005824 -30 2 C-27.64384577 4.35615423 -27.05310859 5.9855996 -26.87974548 9.29692078 C-26.88196609 10.19626846 -26.88418671 11.09561615 -26.88647461 12.0222168 C-26.88655014 13.04304855 -26.88662567 14.06388031 -26.88670349 15.11564636 C-26.89186478 16.21572525 -26.89702606 17.31580414 -26.90234375 18.44921875 C-26.9037587 19.5769722 -26.90517365 20.70472565 -26.90663147 21.86665344 C-26.9122353 25.47362912 -26.92478847 29.08054304 -26.9375 32.6875 C-26.94251451 35.13085848 -26.9470775 37.57421793 -26.95117188 40.01757812 C-26.96135567 46.01176176 -26.98093047 52.00581164 -27 58 C-18.09 58 -9.18 58 0 58 C0 38.86 0 19.72 0 0 Z " fill="#9A979F" transform="translate(867,179)"/>
<path d="M0 0 C0.66 0 1.32 0 2 0 C2.43183594 0.433125 2.86367187 0.86625 3.30859375 1.3125 C6.0257109 4.02334205 9.39779098 5.6251861 12.72265625 7.5 C15 9 15 9 17 12 C17.3125 15 17.3125 15 17 18 C15.625 19.6875 15.625 19.6875 14 21 C13.34 21.99 12.68 22.98 12 24 C9.5 24.3125 9.5 24.3125 7 24 C5 22 5 22 4.75 18.5 C5 15 5 15 7 13 C7.64767793 10.42938689 7.64767793 10.42938689 8 8 C7.236875 8.474375 6.47375 8.94875 5.6875 9.4375 C3 11 3 11 0 12 C0 8.04 0 4.08 0 0 Z " fill="#221B2C" transform="translate(179,139)"/>
<path d="M0 0 C3.94280022 1.31426674 6.37977359 2.74730514 9 6 C11.36137777 11.43116887 11.85329646 15.73876439 9.75 21.3125 C8 24 8 24 5.8125 24.875 C5.214375 24.91625 4.61625 24.9575 4 25 C3.67 26.65 3.34 28.3 3 30 C2.01 29.67 1.02 29.34 0 29 C0.33 27.35 0.66 25.7 1 24 C-0.11375 23.896875 -1.2275 23.79375 -2.375 23.6875 C-4.169375 23.3471875 -4.169375 23.3471875 -6 23 C-8.06520632 19.90219052 -8.29477024 19.0459519 -8.3125 15.5 C-8.32925781 14.7265625 -8.34601563 13.953125 -8.36328125 13.15625 C-7.9156717 10.49947074 -7.12254457 9.61127471 -5 8 C-4.34 8 -3.68 8 -3 8 C-3.165 8.680625 -3.33 9.36125 -3.5 10.0625 C-4.07347493 13.43166519 -4.13122252 16.58821459 -4 20 C-2.94945399 21.24660324 -2.94945399 21.24660324 -0.625 21.375 C0.674375 21.189375 0.674375 21.189375 2 21 C3.71711243 18.55503957 3.71711243 18.55503957 5 16 C5.66 16 6.32 16 7 16 C6.5978125 14.081875 6.5978125 14.081875 6.1875 12.125 C6.03667969 11.40570313 5.88585937 10.68640625 5.73046875 9.9453125 C5.07691162 7.62953451 5.07691162 7.62953451 2 6 C2 5.01 2 4.02 2 3 C0.68 2.67 -0.64 2.34 -2 2 C-1.34 1.34 -0.68 0.68 0 0 Z " fill="#EFEEF0" transform="translate(189,141)"/>
<path d="M0 0 C0.33 0 0.66 0 1 0 C1.22891073 3.03306712 1.33937187 5.97258745 1 9 C-1.58652421 11.96971299 -4.21351261 12.48540504 -8 14 C-8.33 18.62 -8.66 23.24 -9 28 C-9.33 28 -9.66 28 -10 28 C-10 21.07 -10 14.14 -10 7 C-10.99 6.67 -11.98 6.34 -13 6 C-12.14535156 5.65066406 -11.29070312 5.30132812 -10.41015625 4.94140625 C-9.30542969 4.48636719 -8.20070313 4.03132812 -7.0625 3.5625 C-5.96035156 3.11003906 -4.85820312 2.65757812 -3.72265625 2.19140625 C-1.13431084 1.25575392 -1.13431084 1.25575392 0 0 Z " fill="#5B5760" transform="translate(290,192)"/>
<path d="M0 0 C3 1 3 1 4 3 C6.01669827 4.13350534 6.01669827 4.13350534 8 5 C8 5.66 8 6.32 8 7 C7.33613281 7.09796875 6.67226562 7.1959375 5.98828125 7.296875 C0.65103949 8.20069988 -3.15492381 8.92874286 -7 13 C-7.70125 14.051875 -8.4025 15.10375 -9.125 16.1875 C-11 19 -11 19 -14 20 C-14 18.35 -14 16.7 -14 15 C-13.34 15 -12.68 15 -12 15 C-10.35 11.04 -8.7 7.08 -7 3 C-6.01 3.33 -5.02 3.66 -4 4 C-4 4.66 -4 5.32 -4 6 C-2.68 5.67 -1.36 5.34 0 5 C0 3.35 0 1.7 0 0 Z " fill="#E7E6E8" transform="translate(192,172)"/>
<path d="M0 0 C0.77085938 0.00091141 1.54171875 0.00182281 2.3359375 0.00276184 C3.12742187 -0.00152328 3.91890625 -0.00580841 4.734375 -0.01022339 C6.40884443 -0.01596989 8.08333882 -0.01646459 9.7578125 -0.01213074 C12.32595162 -0.0089692 14.8929408 -0.03243001 17.4609375 -0.05778503 C19.08593604 -0.06005777 20.71093769 -0.06076164 22.3359375 -0.05973816 C23.49222656 -0.07355278 23.49222656 -0.07355278 24.671875 -0.08764648 C26.8359375 -0.06877136 26.8359375 -0.06877136 30.3359375 0.30354309 C32.68364393 3.82510273 32.71263364 5.81126152 32.9609375 9.99104309 C33.03570313 11.17053528 33.11046875 12.35002747 33.1875 13.56526184 C33.23648437 14.46889465 33.28546875 15.37252747 33.3359375 16.30354309 C33.0059375 16.30354309 32.6759375 16.30354309 32.3359375 16.30354309 C31.3459375 12.01354309 30.3559375 7.72354309 29.3359375 3.30354309 C17.7859375 2.97354309 6.2359375 2.64354309 -5.6640625 2.30354309 C-5.9940625 5.27354309 -6.3240625 8.24354309 -6.6640625 11.30354309 C-6.9940625 11.30354309 -7.3240625 11.30354309 -7.6640625 11.30354309 C-7.71805986 9.84561425 -7.75685427 8.38711597 -7.7890625 6.92854309 C-7.82386719 5.71037903 -7.82386719 5.71037903 -7.859375 4.46760559 C-7.4209462 -0.39018547 -4.07317153 0.05436678 0 0 Z " fill="#9E9BA2" transform="translate(1154.6640625,76.69645690917969)"/>
<path d="M0 0 C1.32 0 2.64 0 4 0 C3.67 1.65 3.34 3.3 3 5 C3.66 5 4.32 5 5 5 C5.33 3.68 5.66 2.36 6 1 C7.65 1 9.3 1 11 1 C14 7.625 14 7.625 14 11 C10.31245243 10.50168276 8.39509338 9.89932357 6 7 C6 8.65 6 10.3 6 12 C4.68 12.33 3.36 12.66 2 13 C0.08615391 9.49128216 -0.04276246 8.18632214 0.875 4.1875 C1.24625 3.135625 1.6175 2.08375 2 1 C1.34 0.67 0.68 0.34 0 0 Z " fill="#8E8B93" transform="translate(186,165)"/>
<path d="M0 0 C0.33 0 0.66 0 1 0 C1 14.52 1 29.04 1 44 C0.34 44 -0.32 44 -1 44 C-1.33 44.66 -1.66 45.32 -2 46 C-3.4606285 43.35261084 -4 42.10551666 -4 39 C-5.32 38.67 -6.64 38.34 -8 38 C-6.68 38 -5.36 38 -4 38 C-3.855625 37.38125 -3.71125 36.7625 -3.5625 36.125 C-3 34 -3 34 -2 32 C-1.9310528 30.62657169 -1.91532292 29.24997898 -1.9375 27.875 C-1.958125 26.59625 -1.97875 25.3175 -2 24 C-1.67 24 -1.34 24 -1 24 C-0.67 16.08 -0.34 8.16 0 0 Z " fill="#D8D7DA" transform="translate(201,127)"/>
<path d="M0 0 C0 6.27 0 12.54 0 19 C-0.33 19 -0.66 19 -1 19 C-1.33 14.05 -1.66 9.1 -2 4 C-8.35233576 8.20544065 -14.06464898 12.59259017 -15.71386719 20.36376953 C-16.53083499 28.56239527 -16.39821981 36.77833165 -16 45 C-16.33 45 -16.66 45 -17 45 C-17 34.77 -17 24.54 -17 14 C-15.68 13.34 -14.36 12.68 -13 12 C-12.67 11.01 -12.34 10.02 -12 9 C-10.2578125 7.24609375 -10.2578125 7.24609375 -8.125 5.4375 C-7.42632812 4.83808594 -6.72765625 4.23867187 -6.0078125 3.62109375 C-1.52289157 0 -1.52289157 0 0 0 Z " fill="#514C59" transform="translate(240,96)"/>
<path d="M0 0 C2.83691625 0.08363974 5.64817989 0.11621679 8.484375 0.09765625 C9.29996887 0.0962413 10.11556274 0.09482635 10.95587158 0.09336853 C13.55395212 0.08778303 16.15194563 0.07523321 18.75 0.0625 C20.51432167 0.05748312 22.27864469 0.05292054 24.04296875 0.04882812 C28.36201256 0.03781835 32.68099154 0.02056369 37 0 C37 0.66 37 1.32 37 2 C19.31752148 2.97271002 1.70218177 3.11759242 -16 3 C-13.63496183 0.63496183 -12.35963958 0.45078941 -9.125 -0.1875 C-8.26132813 -0.36667969 -7.39765625 -0.54585937 -6.5078125 -0.73046875 C-3.9335948 -1.00713701 -2.47486545 -0.6222319 0 0 Z " fill="#302A3A" transform="translate(211,224)"/>
<path d="M0 0 C0.66 0.99 1.32 1.98 2 3 C1.01 3.33 0.02 3.66 -1 4 C-1 7.96 -1 11.92 -1 16 C-0.236875 15.34 0.52625 14.68 1.3125 14 C4 12 4 12 7 12 C7 13.65 7 15.3 7 17 C6.67 16.01 6.34 15.02 6 14 C3.93704708 15.10709491 3.93704708 15.10709491 2 17 C1.19053578 20.10197397 1.19053578 20.10197397 1 23 C0.34 23 -0.32 23 -1 23 C-0.96970703 23.80219971 -0.93941406 24.60439941 -0.90820312 25.4309082 C-0.77155664 29.05808393 -0.63576806 32.68529129 -0.5 36.3125 C-0.45230469 37.57513672 -0.40460938 38.83777344 -0.35546875 40.13867188 C-0.31035156 41.34716797 -0.26523438 42.55566406 -0.21875 43.80078125 C-0.17685547 44.91622314 -0.13496094 46.03166504 -0.09179688 47.1809082 C-0.02866095 49.11981914 0 51.0600614 0 53 C-0.66 52.67 -1.32 52.34 -2 52 C-2 35.5 -2 19 -2 2 C-1.34 2 -0.68 2 0 2 C0 1.34 0 0.68 0 0 Z " fill="#ACA9B0" transform="translate(180,135)"/>
<path d="M0 0 C0.33 0 0.66 0 1 0 C1.0154612 0.95173599 1.0154612 0.95173599 1.03123474 1.92269897 C1.13916135 8.50846962 1.25377035 15.09409959 1.37231445 21.6796875 C1.41570779 24.13961859 1.45737956 26.59958065 1.49731445 29.05957031 C1.55491057 32.58928784 1.61863557 36.11884876 1.68359375 39.6484375 C1.70030624 40.75367767 1.71701874 41.85891785 1.73423767 42.99765015 C1.75418289 44.01855743 1.77412811 45.03946472 1.79467773 46.09130859 C1.81022202 46.99287689 1.8257663 47.89444519 1.84178162 48.82333374 C1.86435092 51.04636301 1.86435092 51.04636301 3 53 C2.938125 54.216875 2.87625 55.43375 2.8125 56.6875 C2.71681334 61.44573659 4.39587427 64.09381141 7 68 C3.599142 66.59274841 1.89754378 65.16032142 0 62 C-0.36076355 59.16522217 -0.36076355 59.16522217 -0.34057617 55.85449219 C-0.34034958 54.61350769 -0.34012299 53.37252319 -0.33988953 52.09393311 C-0.32457089 50.74491005 -0.30892293 49.39589069 -0.29296875 48.046875 C-0.28737075 46.6625413 -0.28310161 45.27820164 -0.28010559 43.89385986 C-0.26867272 40.25723753 -0.23921946 36.62097689 -0.20599365 32.98449707 C-0.17525887 29.27096448 -0.16159301 25.55737323 -0.14648438 21.84375 C-0.11434782 14.56233544 -0.06317087 7.28121847 0 0 Z " fill="#3E3847" transform="translate(179,72)"/>
<path d="M0 0 C2.5625 0.1875 2.5625 0.1875 4.5625 2.1875 C4.1875 4.8125 4.1875 4.8125 3.5625 7.1875 C1.25 7.8125 1.25 7.8125 -1.4375 8.1875 C-2.4275 7.5275 -3.4175 6.8675 -4.4375 6.1875 C-3.3735 0.2595 -3.3735 0.2595 0 0 Z " fill="#181123" transform="translate(220.4375,146.8125)"/>
<path d="M0 0 C2.5625 0.1875 2.5625 0.1875 4.5625 2.1875 C4.75 4.75 4.75 4.75 4.5625 7.1875 C3.5625 8.1875 3.5625 8.1875 1.125 8.375 C-1.4375 8.1875 -1.4375 8.1875 -3.4375 6.1875 C-3.625 3.625 -3.625 3.625 -3.4375 1.1875 C-2.4375 0.1875 -2.4375 0.1875 0 0 Z " fill="#383141" transform="translate(216.4375,84.8125)"/>
<path d="M0 0 C2.375 -0.125 2.375 -0.125 5 0 C5.66 0.66 6.32 1.32 7 2 C6.44444444 6.55555556 6.44444444 6.55555556 5 8 C2.5 8.125 2.5 8.125 0 8 C-0.33 7.67 -0.66 7.34 -1 7 C-0.71269945 4.66055264 -0.38063221 2.3260857 0 0 Z " fill="#383242" transform="translate(240,120)"/>
<path d="M0 0 C3 1 3 1 4 3 C6.01669827 4.13350534 6.01669827 4.13350534 8 5 C8 5.66 8 6.32 8 7 C7.30132812 7.13277344 6.60265625 7.26554688 5.8828125 7.40234375 C4.97273437 7.57894531 4.06265625 7.75554687 3.125 7.9375 C2.22007812 8.11152344 1.31515625 8.28554687 0.3828125 8.46484375 C-1.99956317 8.89963701 -1.99956317 8.89963701 -4 10 C-4 9.34 -4 8.68 -4 8 C-4.66 8 -5.32 8 -6 8 C-5.67 6.68 -5.34 5.36 -5 4 C-4.67 4.66 -4.34 5.32 -4 6 C-2.68 5.67 -1.36 5.34 0 5 C0 3.35 0 1.7 0 0 Z " fill="#CECCD1" transform="translate(192,172)"/>
<path d="M0 0 C1.99954746 -0.04254356 4.00041636 -0.04080783 6 0 C7 1 7 1 7.125 3.5 C7 6 7 6 6 7 C3.5625 7.1875 3.5625 7.1875 1 7 C0.34 6.34 -0.32 5.68 -1 5 C-0.625 2.375 -0.625 2.375 0 0 Z " fill="#2E2738" transform="translate(253,160)"/>
<path d="M0 0 C6.30818278 -0.35706695 6.30818278 -0.35706695 8.9375 1 C10.74093769 4.39470625 10.36262436 7.19244425 10 11 C7 13 7 13 4 13 C4.33 12.443125 4.66 11.88625 5 11.3125 C6.15249005 8.64736676 6.30274405 6.87606851 6 4 C4.04783565 2.04783565 2.46800047 1.15173355 0 0 Z " fill="#ECEBED" transform="translate(187,121)"/>
<path d="M0 0 C1.65 0 3.3 0 5 0 C8 6.625 8 6.625 8 10 C5.6875 9.875 5.6875 9.875 3 9 C0.97798569 5.79266696 0 3.80845564 0 0 Z " fill="#2C2536" transform="translate(192,166)"/>
<path d="M0 0 C0.33 0 0.66 0 1 0 C1 8.25 1 16.5 1 25 C0.34 24.67 -0.32 24.34 -1 24 C-2.90587128 15.94615685 -1.53735756 7.99171821 0 0 Z " fill="#403948" transform="translate(168,229)"/>
<path d="M0 0 C2.5 0.125 2.5 0.125 3.5 1.125 C3.625 3.625 3.625 3.625 3.5 6.125 C2.5 7.125 2.5 7.125 0 7.25 C-2.5 7.125 -2.5 7.125 -3.5 6.125 C-3.625 3.625 -3.625 3.625 -3.5 1.125 C-2.5 0.125 -2.5 0.125 0 0 Z " fill="#221B2D" transform="translate(230.5,172.875)"/>
<path d="M0 0 C0.66 0.33 1.32 0.66 2 1 C0.89718873 2.27200971 -0.20730769 3.54255853 -1.3125 4.8125 C-1.92738281 5.52019531 -2.54226563 6.22789063 -3.17578125 6.95703125 C-6.44911047 10.6228796 -6.44911047 10.6228796 -8 12 C-8.66 12 -9.32 12 -10 12 C-8.52278578 8.54798361 -6.56205999 6.35038064 -3.875 3.75 C-3.15054688 3.04359375 -2.42609375 2.3371875 -1.6796875 1.609375 C-1.12539063 1.07828125 -0.57109375 0.5471875 0 0 Z " fill="#CAC8CC" transform="translate(904,83)"/>
<path d="M0 0 C1.2065625 0.0309375 1.2065625 0.0309375 2.4375 0.0625 C2.4375 2.3725 2.4375 4.6825 2.4375 7.0625 C-0.18437494 6.01375002 -1.35621361 5.41318687 -2.8125 2.9375 C-3.06 2.31875 -3.3075 1.7 -3.5625 1.0625 C-2.5625 0.0625 -2.5625 0.0625 0 0 Z " fill="#3A3343" transform="translate(247.5625,210.9375)"/>
<path d="M0 0 C0.66 0 1.32 0 2 0 C2.16435547 0.99580078 2.16435547 0.99580078 2.33203125 2.01171875 C3.21136023 6.90879478 3.99451714 10.90161428 7 15 C3.60472311 13.59505784 1.69352977 12.30238306 0 9 C-0.24492511 5.98273114 -0.17422028 3.01981824 0 0 Z " fill="#6E6A74" transform="translate(179,125)"/>
<path d="M0 0 C2.97 0 5.94 0 9 0 C9 2.31 9 4.62 9 7 C8.34 7 7.68 7 7 7 C6.71125 6.195625 6.4225 5.39125 6.125 4.5625 C5.26737432 1.8673532 5.26737432 1.8673532 3 1 C3.33 2.65 3.66 4.3 4 6 C3.34 5.67 2.68 5.34 2 5 C2 3.68 2 2.36 2 1 C1.34 0.67 0.68 0.34 0 0 Z " fill="#504B58" transform="translate(192,179)"/>
<path d="M0 0 C2.61534535 1.7805219 4.97453209 3.5556526 7 6 C6.9375 9.875 6.9375 9.875 6 13 C5.67 13 5.34 13 5 13 C4.71125 11.88625 4.4225 10.7725 4.125 9.625 C3.30758671 5.99708908 3.30758671 5.99708908 1 4 C-1.32275177 3.59952556 -3.65739357 3.2602896 -6 3 C-6 2.67 -6 2.34 -6 2 C-4.02 2 -2.04 2 0 2 C0 1.34 0 0.68 0 0 Z " fill="#625E69" transform="translate(192,117)"/>
<path d="M0 0 C1.32 0.33 2.64 0.66 4 1 C1.69 3.31 -0.62 5.62 -3 8 C-3.33 7.34 -3.66 6.68 -4 6 C-3.67 5.01 -3.34 4.02 -3 3 C-2.34 3 -1.68 3 -1 3 C-0.67 2.01 -0.34 1.02 0 0 Z " fill="#241C2E" transform="translate(228,105)"/>
<path d="M0 0 C-0.60990891 3.55780196 -1.5783681 6.6828589 -3 10 C-3.66 10 -4.32 10 -5 10 C-5.3669579 3.51707705 -5.3669579 3.51707705 -3.625 1.0625 C-2 0 -2 0 0 0 Z " fill="#F0EFF1" transform="translate(186,149)"/>
<path d="M0 0 C-1.47721422 3.45201639 -3.43794001 5.64961936 -6.125 8.25 C-6.84945313 8.95640625 -7.57390625 9.6628125 -8.3203125 10.390625 C-8.87460937 10.92171875 -9.42890625 11.4528125 -10 12 C-10 8.07290865 -8.72099538 7.1810287 -6.125 4.3125 C-5.04605469 3.10013672 -5.04605469 3.10013672 -3.9453125 1.86328125 C-2 0 -2 0 0 0 Z " fill="#BDBAC0" transform="translate(362,85)"/>
<path d="M0 0 C1.98 0.99 1.98 0.99 4 2 C4 3.32 4 4.64 4 6 C4.66 6 5.32 6 6 6 C6 6.66 6 7.32 6 8 C5.34 8 4.68 8 4 8 C3.67 8.99 3.34 9.98 3 11 C2.49384702 9.73160474 1.99530901 8.46016898 1.5 7.1875 C1.2215625 6.47980469 0.943125 5.77210938 0.65625 5.04296875 C0 3 0 3 0 0 Z " fill="#C1BFC4" transform="translate(195,180)"/>
<path d="M0 0 C2.5625 0.1875 2.5625 0.1875 4.5625 2.1875 C4.1875 4.8125 4.1875 4.8125 3.5625 7.1875 C2.9025 5.8675 2.2425 4.5475 1.5625 3.1875 C0.2425 3.1875 -1.0775 3.1875 -2.4375 3.1875 C-3.0975 4.1775 -3.7575 5.1675 -4.4375 6.1875 C-3.3735 0.2595 -3.3735 0.2595 0 0 Z " fill="#696470" transform="translate(220.4375,146.8125)"/>
<path d="M0 0 C0.33 0 0.66 0 1 0 C1.2475 1.11375 1.495 2.2275 1.75 3.375 C2.61005339 7.04615198 2.61005339 7.04615198 5.125 8.4375 C5.74375 8.623125 6.3625 8.80875 7 9 C4.75 9.75 4.75 9.75 2 10 C-0.3125 8.1875 -0.3125 8.1875 -2 6 C-2 5.34 -2 4.68 -2 4 C-1.34 4 -0.68 4 0 4 C0 2.68 0 1.36 0 0 Z " fill="#CDCBCF" transform="translate(183,155)"/>
<path d="M0 0 C-0.66 1.32 -1.32 2.64 -2 4 C-2.66 4 -3.32 4 -4 4 C-4 6.97 -4 9.94 -4 13 C-4.66 12.34 -5.32 11.68 -6 11 C-5.66297118 3.92239468 -5.66297118 3.92239468 -3.5625 1 C-2 0 -2 0 0 0 Z " fill="#A4A1A8" transform="translate(239,116)"/>
<path d="M0 0 C1.37562854 1.28965176 2.70766393 2.62689293 4 4 C4 4.66 4 5.32 4 6 C2.02 6.33 0.04 6.66 -2 7 C-2.33 5.68 -2.66 4.36 -3 3 C-2.01 3 -1.02 3 0 3 C0 2.01 0 1.02 0 0 Z " fill="#D8D7DA" transform="translate(184,135)"/>
<path d="M0 0 C0.33 0 0.66 0 1 0 C1.29296875 6.0546875 1.29296875 6.0546875 1 8 C-2 10 -2 10 -5 10 C-3.25 6.125 -3.25 6.125 -1 5 C-0.34444881 2.47266765 -0.34444881 2.47266765 0 0 Z " fill="#D7D5D9" transform="translate(196,124)"/>
<path d="M0 0 C0.66 0.33 1.32 0.66 2 1 C-0.64 3.64 -3.28 6.28 -6 9 C-6.66 8.67 -7.32 8.34 -8 8 C-3.375 2.25 -3.375 2.25 0 0 Z " fill="#383241" transform="translate(190,180)"/>
<path d="M0 0 C0.66 0.33 1.32 0.66 2 1 C0.88121617 2.17262904 -0.24523051 3.33795138 -1.375 4.5 C-2.00148438 5.1496875 -2.62796875 5.799375 -3.2734375 6.46875 C-5 8 -5 8 -7 8 C-5.50902342 4.2047869 -3.24299151 2.38957269 0 0 Z " fill="#2B2435" transform="translate(382,105)"/>
<path d="M0 0 C2.97 0 5.94 0 9 0 C7 3 7 3 4 3.8125 C3.01 3.874375 2.02 3.93625 1 4 C0.34 3.34 -0.32 2.68 -1 2 C-0.67 1.34 -0.34 0.68 0 0 Z " fill="#AFADB3" transform="translate(184,120)"/>
<path d="M0 0 C0 2.97 0 5.94 0 9 C-0.66 8.67 -1.32 8.34 -2 8 C-2.40729228 5.67843403 -2.74438677 3.3431213 -3 1 C-1 0 -1 0 0 0 Z " fill="#67636E" transform="translate(201,160)"/>
<path d="M0 0 C0.33 0.66 0.66 1.32 1 2 C2.32 1.67 3.64 1.34 5 1 C5 1.99 5 2.98 5 4 C3.02 4.99 3.02 4.99 1 6 C1 5.34 1 4.68 1 4 C0.34 4 -0.32 4 -1 4 C-0.67 2.68 -0.34 1.36 0 0 Z " fill="#B8B6BB" transform="translate(187,176)"/>
<path d="M0 0 C3.63 0.66 7.26 1.32 11 2 C11 2.33 11 2.66 11 3 C8 3 5 3 2 3 C1.34 2.01 0.68 1.02 0 0 Z " fill="#A4A1A8" transform="translate(314,120)"/>
<path d="M0 0 C-1.39332574 3.36720387 -2.9789286 4.9859524 -6 7 C-5.37162381 3.35541809 -4.14650034 0 0 0 Z " fill="#D0CED2" transform="translate(177,60)"/>
</svg>
