<svg width="322" height="70" viewBox="0 0 322 70" fill="none" xmlns="http://www.w3.org/2000/svg">
<path d="M286.242 69.64L295.05 50.3208H292.681L276.734 14.9531H288.339L299.708 40.6104L309.97 14.9531H321.26L297.531 69.64H286.242Z" fill="#FFFAF4"/>
<path d="M242.156 54.7417V46.2156L262.208 23.795H242.393V14.9531H274.445V23.5582L254.235 45.8998H274.84V54.7417H242.156Z" fill="#FFFAF4"/>
<path d="M200.172 54.7359V14.9474H209.566L210.356 21.4209C211.566 19.2104 213.277 17.421 215.487 16.0526C217.75 14.6842 220.435 14 223.54 14C226.855 14 229.645 14.6842 231.908 16.0526C234.171 17.421 235.882 19.4209 237.039 22.0525C238.25 24.684 238.855 27.9207 238.855 31.7628V54.7359H228.277V32.7891C228.277 29.6312 227.592 27.2102 226.224 25.5261C224.908 23.8419 222.856 22.9998 220.066 22.9998C218.277 22.9998 216.672 23.4208 215.25 24.2629C213.882 25.105 212.803 26.3155 212.014 27.8944C211.224 29.4207 210.83 31.2891 210.83 33.4996V54.7359H200.172Z" fill="#FFFAF4"/>
<path d="M173.534 55.6833C170.218 55.6833 167.481 55.157 165.323 54.1044C163.166 52.9991 161.56 51.5518 160.508 49.7624C159.508 47.9203 159.008 45.894 159.008 43.6836C159.008 41.2626 159.613 39.131 160.824 37.289C162.087 35.4469 163.955 33.9996 166.429 32.947C168.955 31.8943 172.113 31.368 175.902 31.368H185.77C185.77 29.4207 185.507 27.8155 184.981 26.5524C184.455 25.2366 183.639 24.2629 182.534 23.6314C181.428 22.9998 179.955 22.684 178.113 22.684C176.113 22.684 174.402 23.1314 172.981 24.0261C171.613 24.8682 170.771 26.1839 170.455 27.9734H160.113C160.376 25.1313 161.297 22.684 162.876 20.6314C164.508 18.5262 166.639 16.8947 169.271 15.7368C171.955 14.5789 174.929 14 178.192 14C181.928 14 185.165 14.6316 187.902 15.8947C190.639 17.1578 192.744 18.9736 194.218 21.3419C195.691 23.7103 196.428 26.6313 196.428 30.1049V54.7359H187.428L186.244 48.6571C185.665 49.7097 184.981 50.6571 184.191 51.4992C183.402 52.3413 182.481 53.0781 181.428 53.7096C180.376 54.3412 179.192 54.8149 177.876 55.1307C176.56 55.4991 175.113 55.6833 173.534 55.6833ZM176.06 47.4729C177.428 47.4729 178.639 47.2361 179.692 46.7624C180.797 46.2361 181.744 45.5519 182.534 44.7098C183.323 43.8151 183.928 42.8151 184.349 41.7099C184.823 40.552 185.139 39.3152 185.297 37.9995V37.9205H177.165C175.534 37.9205 174.192 38.131 173.139 38.5521C172.139 38.9205 171.402 39.4731 170.929 40.2099C170.455 40.9468 170.218 41.7889 170.218 42.7362C170.218 43.7888 170.455 44.6572 170.929 45.3414C171.402 46.0256 172.086 46.5519 172.981 46.9203C173.876 47.2887 174.902 47.4729 176.06 47.4729Z" fill="#FFFAF4"/>
<path d="M117.844 54.7382V0.367188H128.501V20.8706C129.817 18.7654 131.554 17.1075 133.712 15.897C135.922 14.6339 138.475 14.0023 141.37 14.0023C144.685 14.0023 147.475 14.7128 149.738 16.1338C152.001 17.5022 153.711 19.5022 154.869 22.1337C156.027 24.7652 156.606 28.0283 156.606 31.923V54.7382H146.027V32.8703C146.027 29.7125 145.369 27.2915 144.054 25.6073C142.738 23.8705 140.659 23.0021 137.817 23.0021C136.08 23.0021 134.501 23.4232 133.08 24.2652C131.659 25.1073 130.528 26.3441 129.686 27.9757C128.896 29.5546 128.501 31.4493 128.501 33.6598V54.7382H117.844Z" fill="#FFFAF4"/>
<path d="M95.5571 55.6833C91.5572 55.6833 88.0046 54.7886 84.8995 52.9991C81.7943 51.2097 79.3733 48.7624 77.6365 45.6572C75.8997 42.552 75.0312 38.9994 75.0312 34.9995C75.0312 30.8944 75.8997 27.2892 77.6365 24.184C79.3733 21.0262 81.7943 18.5525 84.8995 16.7631C88.0046 14.921 91.5572 14 95.5571 14C100.662 14 104.952 15.3421 108.425 18.0262C111.899 20.7104 114.109 24.3945 115.057 29.0786H103.767C103.294 27.2366 102.294 25.7892 100.768 24.7366C99.2939 23.684 97.5308 23.1577 95.4782 23.1577C93.6361 23.1577 91.9782 23.6314 90.5046 24.5787C89.0836 25.4734 87.952 26.8155 87.1099 28.6049C86.3205 30.3417 85.9257 32.4206 85.9257 34.8416C85.9257 36.6837 86.1626 38.3416 86.6363 39.8152C87.1099 41.2362 87.7678 42.4731 88.6099 43.5257C89.452 44.5256 90.452 45.2888 91.6098 45.8151C92.8203 46.3414 94.1098 46.6045 95.4782 46.6045C96.8466 46.6045 98.0834 46.3677 99.1886 45.894C100.346 45.4204 101.32 44.7625 102.11 43.9204C102.899 43.0257 103.452 41.9467 103.767 40.6836H115.057C114.109 45.2625 111.873 48.9203 108.346 51.6571C104.873 54.3412 100.61 55.6833 95.5571 55.6833Z" fill="#FFFAF4"/>
<path d="M52.5945 55.6833C48.5946 55.6833 45.0421 54.8412 41.9369 53.157C38.8843 51.4202 36.4896 49.0255 34.7528 45.973C33.0686 42.8678 32.2266 39.2889 32.2266 35.2364C32.2266 31.0786 33.0686 27.4208 34.7528 24.2629C36.4896 21.0525 38.8843 18.5525 41.9369 16.7631C44.9894 14.921 48.542 14 52.5945 14C56.5418 14 59.9891 14.8684 62.9364 16.6052C65.8837 18.342 68.1731 20.6841 69.8047 23.6314C71.4362 26.5787 72.252 29.9207 72.252 33.6575C72.252 34.1838 72.252 34.789 72.252 35.4732C72.252 36.1048 72.1994 36.7627 72.0941 37.4469H39.8053V30.9733H61.5154C61.3575 28.3944 60.4365 26.3681 58.7523 24.8945C57.1207 23.4208 55.0682 22.684 52.5945 22.684C50.8051 22.684 49.1472 23.1051 47.621 23.9471C46.0947 24.7366 44.8842 25.9734 43.9895 27.6576C43.1474 29.3418 42.7263 31.4733 42.7263 34.0522V36.3416C42.7263 38.4995 43.1211 40.3942 43.9105 42.0257C44.7526 43.6046 45.9105 44.8414 47.3841 45.7361C48.8578 46.5782 50.5683 46.9993 52.5156 46.9993C54.4629 46.9993 56.0681 46.5782 57.3313 45.7361C58.647 44.8941 59.6207 43.8151 60.2523 42.4994H71.1467C70.4099 44.973 69.1731 47.2098 67.4363 49.2097C65.6995 51.2097 63.568 52.7886 61.0417 53.9465C58.5155 55.1044 55.6997 55.6833 52.5945 55.6833Z" fill="#FFFAF4"/>
<path d="M18.4299 54.7453V10.5582H0.117188V1.95312H47.043V10.5582H29.0086V54.7453H18.4299Z" fill="#FFFAF4"/>
</svg>
